<mxfile modified="2020-10-09T19:59:09.403Z" host="app.diagrams.net" agent="5.0 (Macintosh)" etag="2406z11x8D5MvLfk04Ex" version="13.7.7" type="github">
  <diagram id="Ht1M8jgEwFfnCIfOTk4-" name="Page-1">
    <mxGraphModel dx="729" dy="449" grid="1" gridSize="10" guides="1" tooltips="1" connect="1" arrows="1" fold="1" page="1" pageScale="1" pageWidth="1400" pageHeight="850" math="0" shadow="0">
      <root>
        <mxCell id="0" />
        <mxCell id="1" parent="0" />
        <object label="" id="tquT07f-gbf-o2BWBBhi-12">
          <mxCell style="rounded=0;whiteSpace=wrap;html=1;fillColor=none;" parent="1" vertex="1">
            <mxGeometry x="697" y="280" width="283.5" height="400" as="geometry" />
          </mxCell>
        </object>
        <object label="" id="tquT07f-gbf-o2BWBBhi-6">
          <mxCell style="rounded=0;whiteSpace=wrap;html=1;fillColor=none;" parent="1" vertex="1">
            <mxGeometry x="381.75" y="280" width="283.5" height="400" as="geometry" />
          </mxCell>
        </object>
        <mxCell id="-QjtrjUzRDEMRZ5MF8oH-9" value="1" style="rounded=1;whiteSpace=wrap;html=1;fillColor=#007CBD;strokeColor=none;fontColor=#FFFFFF;fontStyle=1;fontSize=22;" parent="1" vertex="1">
          <mxGeometry x="223.5" y="211.5" width="40" height="38" as="geometry" />
        </mxCell>
        <mxCell id="-QjtrjUzRDEMRZ5MF8oH-27" value="2" style="rounded=1;whiteSpace=wrap;html=1;fillColor=#007CBD;strokeColor=none;fontColor=#FFFFFF;fontStyle=1;fontSize=22;" parent="1" vertex="1">
          <mxGeometry x="469" y="211.5" width="40" height="38" as="geometry" />
        </mxCell>
        <mxCell id="-QjtrjUzRDEMRZ5MF8oH-28" value="3" style="rounded=1;whiteSpace=wrap;html=1;fillColor=#007CBD;strokeColor=none;fontColor=#FFFFFF;fontStyle=1;fontSize=22;" parent="1" vertex="1">
          <mxGeometry x="809" y="212.5" width="40" height="38" as="geometry" />
        </mxCell>
        <mxCell id="-QjtrjUzRDEMRZ5MF8oH-48" value="&lt;div&gt;Reference High Availability Architecture&lt;/div&gt;" style="text;html=1;resizable=0;points=[];autosize=1;align=left;verticalAlign=top;spacingTop=-4;fontSize=16;" parent="1" vertex="1">
          <mxGeometry x="339" y="119.5" width="300" height="20" as="geometry" />
        </mxCell>
        <mxCell id="SCVMTBWpLvtzJIhz15lM-35" value="" style="edgeStyle=orthogonalEdgeStyle;html=1;endArrow=open;elbow=vertical;startArrow=none;endFill=0;strokeColor=#545B64;rounded=0;fontSize=14;" parent="1" edge="1">
          <mxGeometry width="100" relative="1" as="geometry">
            <mxPoint x="978" y="273.4677419354839" as="sourcePoint" />
            <mxPoint x="978" y="293.4677419354839" as="targetPoint" />
          </mxGeometry>
        </mxCell>
        <object label="" id="tquT07f-gbf-o2BWBBhi-2">
          <mxCell style="rounded=0;whiteSpace=wrap;html=1;fillColor=none;" parent="1" vertex="1">
            <mxGeometry x="48.25" y="280" width="283.5" height="400" as="geometry" />
          </mxCell>
        </object>
        <mxCell id="tquT07f-gbf-o2BWBBhi-20" style="edgeStyle=orthogonalEdgeStyle;rounded=0;orthogonalLoop=1;jettySize=auto;html=1;exitX=0.5;exitY=1;exitDx=0;exitDy=0;entryX=0.5;entryY=0;entryDx=0;entryDy=0;startArrow=classic;startFill=1;" parent="1" source="tquT07f-gbf-o2BWBBhi-5" target="tquT07f-gbf-o2BWBBhi-11" edge="1">
          <mxGeometry relative="1" as="geometry" />
        </mxCell>
        <mxCell id="tquT07f-gbf-o2BWBBhi-5" value="&lt;b&gt;CONSUL&lt;br&gt;SERVER&lt;br&gt;FOLLOWER&lt;/b&gt;" style="rounded=1;whiteSpace=wrap;html=1;fillColor=#FF3399;" parent="1" vertex="1">
          <mxGeometry x="469" y="305" width="120" height="60" as="geometry" />
        </mxCell>
        <mxCell id="tquT07f-gbf-o2BWBBhi-7" value="&lt;b&gt;CONSUL&lt;br&gt;SERVER&lt;br&gt;LEADER&lt;/b&gt;" style="rounded=1;whiteSpace=wrap;html=1;fillColor=#FF3399;" parent="1" vertex="1">
          <mxGeometry x="106.5" y="294.5" width="120" height="60" as="geometry" />
        </mxCell>
        <mxCell id="tquT07f-gbf-o2BWBBhi-11" value="&lt;b&gt;CONSUL&lt;br&gt;SERVER&lt;br&gt;FOLLOWER&lt;/b&gt;" style="rounded=1;whiteSpace=wrap;html=1;fillColor=#FF3399;" parent="1" vertex="1">
          <mxGeometry x="469" y="414.5" width="120" height="60" as="geometry" />
        </mxCell>
        <mxCell id="tquT07f-gbf-o2BWBBhi-13" value="&lt;b&gt;CONSUL&lt;br&gt;SERVER&lt;br&gt;FOLLOWER&lt;/b&gt;" style="rounded=1;whiteSpace=wrap;html=1;fillColor=#FF3399;" parent="1" vertex="1">
          <mxGeometry x="784.25" y="305" width="120" height="60" as="geometry" />
        </mxCell>
        <mxCell id="tquT07f-gbf-o2BWBBhi-14" value="&lt;b&gt;CONSUL&lt;br&gt;SERVER&lt;br&gt;FOLLOWER&lt;/b&gt;" style="rounded=1;whiteSpace=wrap;html=1;fillColor=#FF3399;" parent="1" vertex="1">
          <mxGeometry x="778.75" y="414" width="120" height="60" as="geometry" />
        </mxCell>
        <mxCell id="tquT07f-gbf-o2BWBBhi-19" value="" style="edgeStyle=orthogonalEdgeStyle;rounded=0;orthogonalLoop=1;jettySize=auto;html=1;entryX=0.5;entryY=1;entryDx=0;entryDy=0;exitX=0.563;exitY=0.992;exitDx=0;exitDy=0;exitPerimeter=0;startArrow=classic;startFill=1;" parent="1" source="tquT07f-gbf-o2BWBBhi-7" target="tquT07f-gbf-o2BWBBhi-13" edge="1">
          <mxGeometry relative="1" as="geometry" />
        </mxCell>
        <mxCell id="tquT07f-gbf-o2BWBBhi-21" value="" style="endArrow=classic;startArrow=classic;html=1;exitX=1;exitY=0.5;exitDx=0;exitDy=0;" parent="1" source="tquT07f-gbf-o2BWBBhi-11" target="tquT07f-gbf-o2BWBBhi-14" edge="1">
          <mxGeometry width="50" height="50" relative="1" as="geometry">
            <mxPoint x="600" y="480" as="sourcePoint" />
            <mxPoint x="650" y="430" as="targetPoint" />
          </mxGeometry>
        </mxCell>
        <mxCell id="tquT07f-gbf-o2BWBBhi-28" value="" style="group" parent="1" vertex="1" connectable="0">
          <mxGeometry x="449" y="500" width="135.5" height="91.67" as="geometry" />
        </mxCell>
        <mxCell id="tquT07f-gbf-o2BWBBhi-29" value="" style="shape=image;verticalLabelPosition=bottom;labelBackgroundColor=#ffffff;verticalAlign=top;aspect=fixed;imageAspect=0;image=data:image/png,iVBORw0KGgoAAAANSUhEUgAAAVQAAAEeCAYAAADVUe2/AAABfWlDQ1BpY2MAACiRfZE9SMNAHMVfU6VaKg4WFXHIUJ0s+IU4ShWLYKG0FVp1MLn0C5o0JCkujoJrwcGPxaqDi7OuDq6CIPgB4uTopOgiJf4vKbSI9eC4H+/uPe7eAUKtxFSzYxxQNctIRCNiOrMq+l7RjQH0w48JiZl6LLmYQtvxdQ8PX+/CPKv9uT9Hj5I1GeARieeYbljEG8Qzm5bOeZ84yAqSQnxOPGbQBYkfuS67/MY577DAM4NGKjFPHCQW8y0stzArGCrxNHFIUTXKF9IuK5y3OKulCmvck78wkNVWklynOYwolhBDHCJkVFBECRbCtGqkmEjQfqSNf8jxx8klk6sIRo4FlKFCcvzgf/C7WzM3NekmBSJA54ttf4wAvl2gXrXt72Pbrp8A3mfgSmv6yzVg9pP0alMLHQG928DFdVOT94DLHWDwSZcMyZG8NIVcDng/o2/KAH23gH/N7a2xj9MHIEVdLd8AB4fAaJ6y19u8u6u1t3/PNPr7AaSbcruTptu3AAAABHNCSVQICAgIfAhkiAAAAAZiS0dEAP8A/wD/oL2nkwAAIABJREFUeJzsvXu0JFld5/v57R0RmXnOqVPvruquftI2dKNNy2MYwRZQ2+ExwuhtR6+jcme8Di5ncDkOaynDrHUBp51RFuN1OTLKLFk4wxV5CHrhSiM2CojS0A3dUP1+v6ofdFXX6zwyI2Lv3/1jx44TmZV5Tp6q6qpz6PiulScy47FjR5zMb/z27/Hd0KJFi7G4++679b/8l/+ir3rVq/TXfu3X9Gz3p8XGh5ztDrRocTahqs+76aab7j948CBf+tKXuOWWWzh06BAigvcegCRJeNe73sXrX//69vfSYlUkZ7sDLVqcSXz2s5/Vz3zmMxw4cIDDhw/zspe9jDRN8d5TFAXWWqy1qCrWWkSEsix5wQtecLa73mIToH3itviOQ1mW19x9991/vX//fr74xS9y8803A2CMwXuPcw4RwRgDUJMngHMOay3e+3q9c44vf/nLv9jtdv/HWbuoFpsCLaG22NS4//779e/+7u+4++67uffee3n00Ufx3pMkCUVRUJYlaZoiIjVZxvdATZ5lWZJlGUVRICI1wXrvMcbwta99rf2ttFgT7ZekxabB448/rp/4xCf41Kc+xZEjR2oyBMaSpTEGkfAVL4qCLMtqCzUSpqrW+6lqbb0mSYJzjqIoOO+88/jLv/zL9rfSYk20PtQWGw433XST3nrrrdx1113cd999HDhwAFXl2muvrS1ICCQZic8Yg6riva+3x88AaZpSlmVNls19IwFDsFjLsqQsy/q4iy666AzfgRabFS2htjiruPnmm/UjH/kI//AP/1CT3L/9t/8W1ZClFH2dqloTYkT0iTbXNd83Pzf3iyQbP8dzlGVZ7xfP6ZxrCbXF1GgJtcWzjn6//5avfe1r73/kkUf46le/yje/+U0WFxdJkoR/82/+Te2nhGBVRjI9kyjLcii6n+c5xhg6nQ6XXnrpGe9Pi82JllBbnFb0+/23fPKTn3z/DTfcwOOPP06/3+fqq68GqNOTnHOkaYpzDuccSZIMWY2jVuaZQLRIjTFDPtayLHnpS196xvvTYnOidbS3OCk8+eST+vjjj3PjjTfy5S9/mQceeKAekscAT0S0QJuWaLQIkyQZGso3yfRMWqqRSOPQP8synHN47/n617/e/k5aTIX2i9JiTezfv19vuOEG7rvvPh544AGOHDlCnudYa2sCGo2WNz9H61NVh1KSmsGg1RCPezYR+9sk/ehPvemmm9rfSYup0H5RWtR48skn9dvf/jaf/OQn+au/+iuKohhKQRpNgG8mx0cyGh26N8mwablGoo1tng2/aRPe+zoNK14L0OagtlgX2i/KcxRf+tKX9Fvf+ha33nor999/P4cOHaqtzTRN66h6lmU1OUYSjfmeTXKMw+VxQ/YmQcXjIoE12z2biATfzBwQEV784hfz/ve/v/2dtJgK7RflOYDPfvaz+r/+1//izjvvZDAY1H7LmI8JDA13ozUaSSWSYSTAJuGMpizF4X4zFzSuj+1GNM+9moV6Job8TUKNhJ8kCe985zt5wxve0P5OWkyF9ovyHYJHH31U9+/fzz333MPXvvY19u/fT1EUAPWwHIZzL8ctm/uNI8zRfc9WVP50wxhTi6MYY8jznDRN2+F+i3Wh/bJsQjzxxBP6sY99jL/+67/mqaeeYnl5maIoyPOcXq9XpybFSDVMR6qTtq1GoJMIeTNi1MK21nLjjTdu/gtrccbQflk2MO677z594okn+MIXvsANN9zAgQMHKIqCTqdDURQYY8iyrI64R1KL/sw4jG8O7aexUMeR6bT7bVY0o/xNn3GbMtViPWi/LBsEf//3f6/XX3899957Lw899BBPPvlkTVLNZPPRyDmsWFYxmAQMSdCtZVVOs33ccq1tmwmjvl6Aubk5/uZv/mZzXlCLs4L2y3KG8fjjj+sdd9zBn/7pn/L5z3+epaUl5ubmajGO+MP23pNl2VBOZzOIM45QR2vb47B1HAGPLtfjK51m382I0YKEV7ziFfze7/3e5ryYFmcFbenps4Rnnnnm5i9+8Ysvvfnmm7njjjvYv38/S0tLvPzlLx8KgPR6PRYXF7HW0u126yh8s3IHGCLWcdH0Jqk2iTW208QowTZJpGkBj0brm9vj+0ltbkaMDvdf+MIXnu0utdhkaAn1NOGP//iP9QMf+AD33HMP1lqe//zn18LGsbSyWcverBXvdDoAtSBHVIkfTZKPRBn9p5Fcm6lNowQaLd/YThPjSHA1YvxOJdKIUfdIK4rSYr34zvglnCHcddddetttt/H1r3+dqBLfzOeMRNi0EpuiG02rr+njHN0nBp6AWjykaaGOHgvDaU5Nf+u0QamISYGoUbKZNgtgs2BcnuyHPvQhLr/88s13MS3OGtovywTcdttt+tGPfpTrr7+ep59+muPHjw9tP5WAzcmmK53Kclybp/s8m9mPGh8+UWDaGNPW8LdYN57zQ/6vfOUrevToUT71qU/x6U9/mqNHj6KqvPzlL6fX6zEYDOh2uxP9jBHTDJ+fjeHxOH/nNOsn9XOtPo62u5qfdTORauxvlBZMkoRvfOMbOhgM6qlTpmkDIMsyZmdnh4KKmx1xBBb9zPGa5ubmDu/evXvHWe7ehsHm+cY/S7j22mv1s5/9bK3JGYfrEKbYiLqdzaF1XE6y+E5l2Wx7te3THLPaPtMcc6oW9ug+GxmRJKKrZnl5mdtuu612A6xFiuMeKk3f9nca4v268cYb+b7v+77N8U8+AzBr7/KdjU984hMSo+6qSp7n5Hk+JNjRrDIarUWPn0d/cJM+j1s/7gc7uv+4c612zLT9Ws+1rHb+9Z5vo6FJfqo6JHw9zTU0U9ri52ag8DsBo+l6l1xyCZdeeunhs9ilDYfvjP/0KeId73hHHcSJw73oT4tEO4px5DUOqxHYam2OW067z3r6Mg0pPxcQA3nRf3ro0KE64DiNlR33GZ2vqrluM6MZCI34nd/5nbPYo42J1lSvsGXLFm3OnhlFMoChNCdY/5D7ZIbmo8tTGfKv5/Nq7Y3rz2pBrs0WpGr6fm+++eahIou1+j/68GmKVH8nwRhTzzT7yCOPsG/fvo3/jz2DaC3UCv/hP/wHVLVOqi/Lss4FnSSAPK31OY2bYC0rdz0W6Oj+k9wMzffTuh1Wu4ZprmUjIz4443A9LiPRrvYaRVNs+zsBTVdGnud885vfJMuydrg/gpZQK7zjHe+QJElq/2mWZUPamLD28Hqaofm47SczfF/t3JPOM+0x6z3PetwaGxWqSpZlFEVRP0ThxHLU1bDZLPL1oPlgueaaa9i+fTttdP9EtITawIc//OGhYV6cSA5ODB6t9nktP+fJ+l9Xs5CaUea1yHstC3rSscAJ55n2Gje6Tzb+z2OlWbP/05LjtCOOjYpxQdhxKXe/+Zu/yZ49e37kjHdwE6Al1Abe+MY3yvbt24fUnZaXl5/1KO00w+1TaWO1dev94a+HfDcbqcR7uLS0dML65wJUhxXLRlMFAa6++mrOO+88kiS54ax0coOjJdQR/Lf/9t+GfGezs7O18j0ME9do7uHo++bnaclmUlvTugZO5TyTzrfafmv1bTORbLTAjh07tqH7+WygWfasqkPlzk0r/U/+5E84//zzW5GDCWgJdQTXXnut7N27t67LX15eJknGF5StNpRdi7AmtTX6flJb6znfWsPzcftO6ttq17Qa4a7W942CSBwLCwtnuytnHM0AWkwfU11RL1NV3vrWt0bBnwfOYlc3NFpCHYP77rtPmoGJUaxFOtNah9P4M9dDUqeTsNY67zTnm4b8NxKiFTYYDM5yT848RoNv0WKN2QqdTodf/dVfZe/eva11ugpaQp2Ayy67jKIo6hlCpw2snMyQfy0iPplh9DRkHpdrWbKTjh13rvWcd6MhEsiofuxzAarBfwrU1x+H/gA///M/T7fbba3TNfCdldtxGrF//369+uqrh6pDTrYWftK+J1M/P2ndemc2nVQssNZ1TerHqWoBbASICIPBgG9961tD//ONSP7PBsZZqTGW8NBDD3HRRRdtrH/YBkRroU7AlVdeKS996Utrcei1MM2PbjXL7nS0t9Z51nP+tdpa7f2kNjY6ManqkCD3cwnNKrGmsIuI8P73v7/W522xOtonzhqYmZnRZvpIHAY1VfjjdCbTlJROKtU8Gctv3LppLcrVzrPWPmv1Yz1W++i6swkR4eDBgzz44IMbnvyfTUTLNE1Ttm7dyk033cQll1yyMf5JGxythboGrr76akRkqDY71vzHNJNmWV5crtcqm3TMWm2t5ZtdzYoct+96LM1p/aVr9X0jQCRooS4uLp6w/rmA5sMtRvyLouA3fuM36PV6Z7NrmwrPjW/LKaLX6ylAmqZDCkSj8mzTWokn429dz7Gjy9Hh3DTnmXb7NMv17ns2IBLm/rrzzjtZXl6u10dr7bmEeM3dbpd7772XCy64oOWJKdFaqFPgLW95Sz3Mj6QahVMm5ag2sZbVuFae51p+y7Wsv1Px1Z4uy3Ut/+3ZtlZVta6MG13/XEFME4y+07/927+l2+22AijrQPvkmRKzs7Mah4WRRGPyP4wv0ztVC2691uR6z99sdxof6lr9m/Zck44ZfX+mYa3lxhtvPGF9tPC/0xHvvapy+eWX84UvfIG9e/e2HLEOtBbqlHjXu95Viw/H4WGzmmQ9EfNJ1uek/Sd9nrRuPcc3t603z3Yaa3kaC3vaPj7baGZ0nG0XxNlA/F+JCL//+79PlmVfP9t92mx47n1rTgE7d+7UOCSMc001p45ey+KaZAmuxxqd1jqdtP80/ZnUh2mt4dPl/z3TOHr0KPfcc8+QpfZcsU6bOadXXHEFn/nMZ7j44otbflgnWgt1HbjuuuswxgwN9ZtzT51KlH8U66lKmtY6XK09g8VgCV+JSgcWxePwuKF9VRUV8Iy3MMN+Ho9DxaPiAV8fp9Loh1eE8UEf0ZXX6cZou6rC0WMLgEExqApgEJMABiS+qMyQ6rNJwcZXAsaMMVMMmGRlv6TxslO8Yh+eRTSF1D/ykY+0ZHqSeM5PI70e/NIv/ZKcc845urS0VBNHzEONftVo1UxCc/soEa9mGTUj9aP7N883Gs2v28SAKMaDSKTCSqvACxJZwEjYZgQvJSKKoqCBdEVBxeDUV+epiMkLgYMUJFCxCqip9nMWAVzVp0DbYYn3qAEfrxODVcHoCon4qr2TRTw2Emls28dtYjh45CgYG0jRxfNWxGkV1BMuWMJ2YyGdAVUwHtRBmYcDSx/ui4T7RdINhNsk5NCjcLwY8L66fxLa8hrOUeRQDsL204Rm9kL8TjnneOMb38jOnTtP23mea2gJdZ342Mc+xhve8IZ6yJ/nOZ1OZ8hSHUWTCJvLcfsBJ+yzGkmPku64cwJgPOFttU4Ej8NgK2tz5DhW6tmNQkV3qI5YYF5XyBgQNaAeEYOo4iuyFTWAglo8PpxXQ5vhQI+viMbiw3nC2fFyamTahOiwracCTkCtYWbbVgZupR9hh2peMS0Ro4h4jLGoM5RJF7bv4byrrqQQpeMHHL/rdo7e/q3qoRIuGZuy8wd+mHTPuXgDJQpmZdpyajV8V2WT5FgF8Y4OhifvuoNi/9fBn3wV1+h3I5JpzF6J79/1rnexc+fOXzzpEz3H0RLqOvGa17xGdu7cqQsLC3S73Tp9ClYnzknr4EQCHYdx1umk8407l2jsY7ALlWBtOVMNx33l54SwjWAhGledSzxeFCME68loZe1ZhDCUF4UkmLd4E6y4xCe1NQqgCN6EIXWwdAFjguXKyn1RAacOTOCkU+XTE1wH4nECTgylgT4lbjat+qhgE7wq6sGalI5JyF2BWE9ROIzMQDJL9tJXwHd/N0Zg1vUZPLMAt98NprIw1UIyAxc+n+TyKyhEUTwm6+BdCZWlGLNEcq+oK0jEkiFYD8XhY3DHt4KVepKI35vmnFnAUKntD//wD7Nv3z663e7/OOkTPcfR+lBPAtdff/3QUL+pTrRaJH/aCPnJ+E9XbcsrxitWo380+AejrzRaYUPWrhIIoelPVFOTkviV9uOwWQV8fd5wjHE2HOfjOVeG24pBxeARUFMfW1+LUBH56bNQIdjao4Nnoysvqa4veDA8oo58eZmuMbh+TpakWAW859ILzyfzBR0tMXmOeBeG6ZJAvB7nmE0MHVfQ9Z6uc3SKAV1X0ClKZtSR5QWdMmfGl8xbYRZPUizD0nESqaz7U0Czmm90qussyxAR/vAP/7BNkzpFtDfvJPGyl71M77zzztoSXE3tady69eZxrhXJX7UthUxtIC0reAGRaOnaxr7hh2almlcLUBtI1WrYzyK1ddc8T2nC0nqDievD3oGoCD5Wb8LSIGEIrYE0MeF8tjrWVFavmkC2hlMLTo36UJvwBg4dPsqDjzwUboERcBp8qRAeLCLgfDjYJlAqpBnMzYTnhBD2P3oM8gE4h6lI0JsEerPQ7YVAVDVaQCS0kxgofWgn+lFLB1bCOY4fh6WFUxryN6P440ZJb3/72/l3/+7ftYR6imhv3kniwQcf1O/5nu8BGCLU9RLjtOQbl6ulOU08RsGS1seoGW3P1wSr4jEiGK32kzA0F59gRDHVvr7yFokoahVXdSvRcJ4mqcbPKh7FIKIhwEVjvnujK6QnUhOqSHgAWH/yg6nYrifElmDYl+qBbx88xEMPPRSCQ1AbhCFsFmxaayzOu2hnrwTKkhhUCs4J8YL6suZY50GsoekyRk0gVL/C7qZyb6gRcAXY6uBGf04FpuFeaJbTzs/Pc8stt3DppZe2fHCKaIf8J4lLLrlELrjgAuBEh/96l9Mk04++Vtt3dOkNDJKS3JY441F1hFiRx0mBNzlecrwd4GxBYfLKtwrGWYw3qHicOLwUqDqseqwGWhHvsIR1aBgqi3pEfZU2BYU4XDV89+LroJep3BHGyZBLQTVYr6jDPkul9M2h/9LSAoiPvo7alNX43kKpBYji8QiKRTG2smadC5an96EdWLGwpXlGrV6+slRXXt571PtAprDiPD5dAbnqe9oc8ltreetb30q32z09J3mOo30inQKefvrpZy666KLtJ2t1TpP4vtYx0+zrBHxlmnV88GnGFCcRRYyvh97ehmMSnyBqSDToYJbGo9aR4LFeEA1+N4wLJGkcIhbxaVhqGMbHofxQ/8STaEjBSqj8sxLStbxdsUwNjRxVSTkVNIf8zWXE/ttvY7m/DFioRhze+/ADiVkPIqCKNRZxHo2PhTjkr/hSAEks3jmElUCiMQYfh/sxi6Fqs16aRsea60+DhToua0RVefTRR1sBlNOE1kI9BezevXvH61//+iGLMSr8T5PmNPq+OTvAJCt0PaWbK0n7PvhF1dXDdnUlVsCIok4xmkGRYl2K0YyiyoHMvQcTfKGZpJSFUmIxNsX54PrzAi4xDChRKTHGU6gLPlOfYyiRsiATEHWoOsRSJ/7HpP9g2TaCJyjiNXCMX9uSXw2j/xMRGSoZ7i8vV0apQ/DVkN1j8BWhJSFib0L2gWsynAKuynKgcoU6F3y/aklIsIQhf7DCGz87lcrNUDGxl5VXDAyeBjJt3ofm/fjwhz9cT33S4tTRPpVOA2ZmZhSoI/6qQYS6KIo4S+TYhP6TDVqtx0oNy1DxJCIkkmCxYZDpQzVTkmSIhgqwWB1lK1Ut65NAPBSo82RZFzCUhcOmFrFQ6AA1QRfWlAZvOmh3lqVBn209i19cYi4JubqlqYJQNpCK9YZUTMhVFYs3UvOJFcWor7ytprZcTwZDQanKd1kXQVjD17761bHHBQ9qqJ4KDZR1O4Yq/1+o+dBS8asAGurPwmaPH8kt0PoM1G6CuEE4rTw6FJSKmJub46677mLfvn0tD5wmtBbqacCb3vQmRIQ8z0mSBGstRVGQZdlQmsp6y1FXs2bX05aqYDUllQ7eQV6WIcfUJNhkpiqvBOcKtMgxPsz86XxBmile+0AoTZTCQm5QYymNUGgIPGUuoasZogkD0+HbdoaF+d080xeMncXlih84EgRrQqVVKZ6CsiLZyrvYuB6nWvl6OeW0KUMIztU5ulKVzhrBaUjCr8tiGy8n1QOAEqHEqiFRgyGpqqiqE1T9LzE4kmDRYnB4SilxlS+5+d8K7tHKh1q5VkUbVk7whqy4FE4BzVzX+P35gz/4A7Isa+X5TiPaJ9NpwszMTC3vF4eT1lqMMbVKFZze6H98v5b/NcRUbG2lqKnmDNLKx+k91kAnTfBliUkSXBWcUR8UmNQajGT4PEVtgmaC9yWJQKYe0YICod+Z53B3C9977U9DknL/33+R8tEH2JvnZMUARx6CU1YhteA8BiHRtLIeU5CVggMrEgJcYsde33owLrndJJZjx45x1513rnFw+LFUOQy4iiyHLEuofKON/AHxw7+yMWlbsSiC4SOrktiV406XyWqMYc+ePXzlK1/h4rZm/7SitVBPE975zncCQYUqTVOMMTjnKIqiHvLDiRblNIn502YBjGszVh15YUhusNQw3LcG0sSQmDDjZ6GewpW4ogypTSbBG0uB54jrs7g1Y7BjlsVOSp6k9ZQwTi1LnR5Pbd/J9/6rf82BXedz384LmPuxf87yi/8RjyAsW4MzKSIpiSQYF1O1grUYrVDVynfa6P+p+E8hDtFXAjEhKBceJocOHVohrHiaejn8E/FQycWUoX4/kl60MAnWbHhV9fzj2h09DXXsf3jjaSLSqIYmEq75T//0T5mdnW2t09OMtvT0NOHXf/3XZdu2bRoJNKr7j8v7gxMjrRFNf+toIGW18tNmO2PX20C6VlLK0uOlJMkyHIYFFZa6c/SNwfZSZGmBXWVJ4h2qFm/Ap11Mr0t27j5yY5G+R5b75E8/SSe1qDoWxFDsOZcnels42tvBAsJx0+Xc7381j913N8cOPcmct2S+0hLxDknMcMkpjWv2lY9zzPWfrJUaj6+JTJXDh0d4ZRypiq+D7R5OtDqJ/taKXxuWZcigYDyZNlwGqxLnKZJq83v4ohe9iBe84AXs3r17x6m12mIUrYV6GvFrv/Zr9Zc2ik5Efyqs7kNdb/7quPeT2/c43w85odbiFawN4ijHypxn5ney62d/iavf/zG+973vh9f9b3y7s4WlQlEHSIdF18Vuv5CF3jYOJTMszu2kP7uNfrfLsndBE9amXHjVSzje6dJXcGoZqGWBhMte8X0sz86wqJAXHlsYuqSkKkjphx8qXgOZRjJap894EsblC4sIZfX/gRWDU2gO3QESENOQjKGyHk2I5lfaWaM/qGBgNqroRlpdcREMv2J7sf1TRbRMsyzjD/7gD0iSpLVOnwW0FuppxDve8Q7p9Xo66tNslqVOsiib2yZZYGtZrpP2BzCJpcgdSOXjFWXROfItu9n1j7+f7T/0Ovb35rHJDq74qX/FgUNH6N96Ixw7glHwtofMbGXBeUqTokkHEWHH3nMZPPoAGYIvHYOiCMlG3mNSi7GW0qak55zDEe+Y7WRkCM4NUFeJsFgTUi458QmvccMq17YexBJYvOBFqoBcsiIuVe8pQ4ughZqCmJCsbypZv6okNxQ0aeUz9axUXA1H8VVp6niFE/gCiuUqof/Zs3FEhKuuuoqLLrqotU6fJbSEeprx53/+51x77bV1cGq0fnqt4fk4rIc8Rkk3LA2u9Fib4oqCJDVYScixLCU9Xvy6N/JQt8NSp4PxhmeSgn/0f/yf/NVd+9m+vMCsCJoZ+m6ATXsUBhw5fQrKrEtuUkqfY7xj+cDjbLvocvJul0UtAcGJgd48PpmBYoHSLSOJqfyFgnolAUQVFQ2VVGbl/ohKld9+onU6zX0Jlq5iRELeLIrJOgxKxWHZcuFFeDGhAGJCRoFiKZMMki4v+9//BU9jydMMSTv4ogwFtuJBTZUVEBwAI54BhgkzVIeds7zALb/9dsQVofIsqoGdsP/qiHm10U8+zrL/6Ec/yr59+y6dutEW60JLqKcZr3vd6+Tiiy/Wp556KuR1jkw1fTLkuNq2cfuMs2CpCCnNwr88HxSU3Q70tmF37KFvE4rEkmhCv5jlsWQWXvA9LH71IDOakxfLzGUpS94HxjEOrKEsBJIOWgyYMwmP3fJ1LnnZK1lKS/KsS+5yjAjWKeIcWgywiVD6MMxOTFUDX4mmxMqo4Kf0WCyrYdr7GR9mxiiqQlk4StVgUavgjFQpUlR6qPUZgCjALWATFm2HviQMsh6FKtJNEe+DJS/QNKlNfAiIryL3po7qiwrWJywlg1AR1TjjyaD5XRs39fVP/uRPRmWpB07yFC3WQEuozwI++clP8qpXvQoIkfUsy4DpfvyrBaLGBZuaQSo40U8YPvsgoORyPEF1SmyCNRnkGgSOJJShlnlBkXZZnDuHc17ySo588yu4xQUychgsY9M5ur05ci0w5QDnFMTiS0cmfeax6P33sOXKHRwrchAlcyXFY4+x3ZUk4giS1CnqPeLBGKnq+6tKqXgNakArAetTSO5RgcIVWLGVu8OgoszalMHxY2RSUnohkeDv9LJSASrVRC+qZbBis4Ttx44w0+0xKAfkXoPIf1VSKpoA0rBGffUp6Bq4amYCU12rdSlbiwXQAo1CKrHfcELC/yQ0vxtxOpM4Q28cLb3zne9k165drXj0s4iWUJ8FvOQlL5FzzjlHFxcX6XQ6J+hPjhvur+YXXY1URzF+3zD3VZp08KUGxSQR1OXgc7r9PmlRYrue0oT8yn5ZMDe/jUOqJAJdV+KOHaG7a46FwQDUkRpDxxgWBn16SRcpC7b4Je7667/kedt2cv6efWgnY+vyAgdu+gdm+guYMsepkkgHayyUHpsacl9ULOYRbJWRUCXjo4FXzPrvR4AnSVO8lngfHjBewz156sCjLBxbaCSHRjIfuquVvxSwj/IP99yzsp+p2NeXjQDSaCZ+lRsQc1LrNCsDPgU3CH7U6vQT3MarIg7zYy70qIAQGOFxAAAgAElEQVT0m9/8Zs4555zDrXj0s4uWUJ8lfOUrX+HKK68EqGdHhfFEGXE60oLGtysoGZAgvsQaxVtIyUn7B3nyq19k/o0/xbdzj6SWsr/AFlnmyfvuIClz0lJJyoKlg08js1uxM1sQm5B6jy4do+MLykGo1Z9NhbJ/lCc//sf09pyH3TrPA48foPv0E8yaSpGKYHlG/6B3oMZXeqiguBA80jDcnnRdk9ZNuiexPWsrR4KxuEEfXKUzKpwYUVcIZFhUUTOBxQH1hH1GCWGmioFr8e7RDsTgVNUegK/0AXAr6xgOzrl1jP9jsUL8DjVLod/97ne3gagzgJZQnyVceuml8spXvlJvvvnm2kodl0cKk0l2vZZos83R42NurGiJNSmlOlLxdJaOcNv1n+SVP/CDXGANy5LRLZc4b/kw997wabZrpfYvSn95gaWDj9LZtQcxc9BfZPnbj7HNOMQoKkJZ9NmSWLpHnyYZHCdPUubLgjkrJF4xCNYmDIowBYtJDANf1PMFqlaqVSNE4itHwSTXx+i1DyNolyJB5CWQq+DLgsFyH6oJB6vwTWirOjLklGrgfwWTD9BqEG8SQUtXZQ3Emz5y6mZ+aZXPuqK1OgCS8NGs7NtM8B8a/q+B0fsRrdPrrruuFUA5QzgFz1SLtXD//ffrVVddVeejwollodMs4/v1lKOOLqOYszEGh5A7QRKLsXAwTfFXvoRr/vVbGXS3MYdy+yf+hMe+8Dn29JeYKQtQQ5kajsgATbpYZumIYPKj9KzDJClL/WU6aRfvPZ0kPEScKiZJg+BJUdJzQidJGTiPpAmkFucGiAn6okAlPg1C8HmqVL7INe7P6LomPJUIeCXoLGooigG3fvNWaPqhawYbtjKrufSGrMdArK7udTi+IQgdh/fx84TUsCEJwJGiglofduxVjUcMgHrv6XQ63HXXXVxyySXtb/0MoLVQn0Vceumlsm/fPj169OjEZP5p8klHt6/XJSCECDRG8ao47+lm85RljvicrQaeufOb/PU7/j3M7IKFBdJigR3FItIvkCRBUYx3zFtwPmiglkXJbJaxXCwghSfpZKhzGGMpnENtRiEGZyylhU7awfdLnAeThtlMS+dQA5kCaE3+Rk3lBkhOqJRaDZP2CdOxGLyGLFBrGon7UxQLxKC5sUHn1FZ2pEiCV7+SvK8rCv/jWLBJpieUmY7BUG3/mr2smmqkS/3Wb/0WvV5vyiNbnCrap9YZQBROiT/2oijo9Xr15H6j81GNEsKQpbkOC3flGK2GrmHYG2Zs6gaNVAqc8RRJl74aSpORJQlpvkTmHL20g8vzoE6fhizJZZOx0JtnEU/H5PRcQa8o6SiIaBXJTjmeZMxedAVLeBIp8UcOMXPkOD1XIH4QNFGr6bg7mEqqL5RHCQZfJdMHY8+Pvf5x92o86RqMJLgyryLgBf1+nzvvvLMiRIJ/dBy5SmN9FJjyK8Ej05CEqtL3qwNX5gSQatpogUqOkGpKmKoR36TO6rTUnpCml3Ys4nU3A6Bbtmzh9ttvb8WjzyDa0tMzgLe+9a11cMAYQ6fTqQNV0bc6qYx0FONKT9cqywxBKaqochxLOlSDeEfiDL2iYFbA2pRFLxzvbKE/N89CXiDGgDX0C8/AdHgm7bHnNdfwI297B6/6lbfzzI7zWe7sYOATShdUrJYTw9y+CziadFjsbWehs4Viy3aKLVtZthaSUP8ffKYhwT2mSQG4QDWNa1rJ453mPo2D15IkSVAN9/7gwYNBQX+cRWsqKRWlEnk2YG3wcVZ+TjFVoajE0b02lVMb/W5okYpQEsSzFaXK1arJUxovqtZGWxyHGJCy1tajmA996EOt7/QMo31ynSFs3bpV8zyvrSfvfa1KNSrvdzJW6KRjVz6blfcm1OGIhMRygFIcR2a3MLjghZx39Ws4dvQQC1/5ElsOP8XucoAoLNmEb2c9znnVNWx//Y9xdGYeq55dx45xy+/9LrueeYJZPU7uByzOzNLddzHPMIfL5hDj6PmSmYXD+KceY7suYwfLkATdUOsyBE9Sqfh7KyGIpEnjGif7UVe7P1BpnwJWTJAdtJZbb72V/qAgSQzOrZSG1mmv2hxyV8EjSsRS5fWGSf+iX9RXFU4rw/MVIrQ26K7G7AZrE5zLa/aUqh51+PEwIgU4IlA9iqaI9O7du/nGN77B+eef3/7GzyBaC/UM4Sd+4ifqL7uI1Ir+zrmhIT+sboWO22e1Y0c/S7S4GhPl5cayNDuPXvx8XvOOd7Hj9W/ieT/5c7zq3b9Jf+/5PO0NfYUlD25mjou+/1UcnN/OgZktPJZt5en5vfzgz/8ST5sufRWcK8hdiWRJZREqTg2FsRSdHkWng/NVf+IUJ0A15V89+8dw34dkSdZ9X0Q0kJorQrDMe/qDkPtZOr+ikhcj7bpiuBoJw/RoORoEF7tjQuasrw4UwnHhpfUH51xo1FrAV2QaL7RuqoFGmtUUlNisjlJVPvjBDzI/P//xtY9scTrREuoZwgc+8AHJsoyyLOuhWZIE66s5l1TENEPZSUP+cW1JNbyHEOG23mA9CCX9xHA8m+OqN7+FR7ft5KG5LTy2bStP7drLP/7FX+X4jr0sZSmSJWA6aG8Ly2Xw6ontsCQpR3fthb3n0TdCr5OSOEVyh6BIxZiFU0pjsJ0epSdULkElkhJQFU+iGlOAhnM0xz1s4vtJ21a2hxQnk1jEJhVTxp9AJLB6/I7XcOZSwVEAZYj2NzICnLF4EUoRSlFKAm8aDWWnUr2SJAnE6VxwESgkHoxKqBajbnJ42K/N2VEnI5JpkiR893d/N1dddRXz8/M/uepBLU47WkI9g/jP//k/1z6uaJ02h/uwto90Gst07LFSTekcCcpXgSoczhjIevQu/C6eybosJB2esV0OZlvIn/dC2LKTBUxFJAaJDwMT/HN9Izwllot+8BpyMWihJN5jixKrHu/LqtDIEYNDYZy7km+qqiENSUxVghpThmKfp7NKxwmCAFUFkWJtioqljKKm3oAkYJOwrF/Bbxzm0AuarSIh2h9ug4Cp9s06kPWg04Osg6YpLk1xSQdNeqjtUHqBqgTZ+5CGpYRqsNFwVPPqZIqhPlCn5ZVlyR/90R8xMzPz9TUPanHa0RLqGcQv//IvS7fbrX/oSZLQ6/VW1UudtG5acgkI6vyeYmUupQpGq/1KwAsWA6RkdpZFZng47bHrJ/8Fhe2EVKNyiXJpgcQDpcP5Pj5V8m6XftZBTYdEEpK8oFw8jvclWZYAJQlKqoIWHjTBI6F2vZGQXiUjVUGqyjUhK6Q66b6s9UAxJkHE4lTw3nB8YTmQYZIFYiQBScHYkAlhU0g7IEllqWrtXw1EmkE6B1t2wdwu2Lo7vLZXr22N91t3wsxs6FinM2T9eoLGahRmCdOemPoBCNMFOmLGyOWXX86FF17Ijh07XjbFYS1OM9o81DOM97znPfzyL/8yQD1FSvQzTpOTerI1/nWZJ1ppgob5TRFb5agakjJHqhB2kUPPduknBec/71IOGosMlsAsUj71KN0de0lMB+mm6GBA6grcYAnvoRx4ZrOMYwcPMbdlNwtLi1gjpKr0Ss/S8gJhKuuob29o6oWKxMoo0BiI0hVyXG/prqqipWJNQukckqTkwNZzz0eswVVzaznnSW2C9w6kxBUDlg4dhrxAbHBNGGvDCNwk7P1H/5hLfuCHWOr0GBip07tMbVUa0IzZok/6xAP8w//8ozDvdlVzr2XI/Gjm84cLbBQHTIl43R/5yEfYs2fPj0x/ZIvTiZZQzzB+4Rd+Qbrdbp2XmiTJCTNSjovgN7dNWwAQ30P8sVc5qKIoOaDBMtIC+guweBTjdkLWJTUpMnBsEWVw5GlQT7co2Okdt/4//5MX/8aLOOoGlGVC1ym7lg7zzb+5njlXImJJvdIrCwYPPsie8y9g2QppZll65gDdcoFEC/BKajpBsco4MFGl3wZL2gSLzQDWBF3UJlbL1x29DzbMm01iDE6EhbJkkIZhspeQ8CQSauudgmQmpIvlh0FtNXOBx4vUeVLLYjgyM8uhpBusW1aG6GocnqAm5USYNzaO80HBlw4L2MoR4jVapwwRaTSKm+XFUUlqyLJX5bWvfS27d+8mSZIbJn45WjyraAn1LGD//v1ceeWVQz+S9dbzr2aNjVsv8ZcJ1Ok46jFAog7KZW761MfZ9wtvpZ/N0i9hVmD70mH2/79/RqIlxpfMG8Py4hFu+cD7+N43/2vyvE9W9NE7b4FDj9LzOaIlRV4y151Bl4+x/NiD9I1hUUs6DMhQjPdkSYorFWMtTkIU3KitouGC0VCDr+HC0AbTjLPMV9M18LJS5IA6lpcWGPiKAI0QKpwEnMFrifPB/4t6LAYvJSoShFTEgCjFscM88/CDLHRnES8N/QGPs8GNk7oUWwxwTz8JSdTnk+BH1hIfJqNe8ZLG/1Md9zKNDWESyKIohqL68Tp/93d/l/POO68Vjz6LaAn1LOCyyy6Tyy67TB999FGAWrdy0pB2bfGPycQbtgW5PtQjpKAGSwdQ1BbMlDmpHuPQ336WrT/yBuylPQ4lM8yXObsO3A93fotOvoQkIZdyZvkY9p5v8K3/9O/p7d4HzlMceIA94kjKAdYEU8uVOWniUL9EV5PQP18irsTYjLz0qDfYym8YpOsqzdJKZi8jw0slXrKKM3G1BwxGcKYMxafqcQPH0refAq/oSAQ9jwIm1lNpUK2ISkmc6sSDX2Jp/80s3XN3JfPfUNgXD6YAhWUvHNN4jAsRKa949VUVlFRJ/o2TTbg+gKIohizUOLvuz/7szzI/P4+04tFnFW3S71nCDTfcoD/2Yz92gpXRfL/epP7JyypTUixWU2KZpAiIKWrCWpzdxpFknuyfvInv+oEfwh8+yF3v+21ml4/SWT7GXJKihccYQApKI/jOPGXh6fgBxhdhRgCv4MOQ2RnPwCYsao8yybCJ0jVCZ3mJTumxEoob6sx2gjhK7LutKpnUrEwzve77YaSeUiUDXO646ZZvVZZgLNKvGqjH2NVqH5L3gTCFSgxySUin0kaMPhiWK/5goNJzJQSykgRKh1TELqooripDjQc0+qErFqoQHgzjlPiNMTzwwAOcf/75P9IO988uWkI9i9i5c6ceP378hPLAaYhidN1a+1aRJ1IfLEBnQhQ5KPUHKuhjWc5mKTuzlD4DdWwpF+hR0KvU/DPpYdKE0i9T4PE+Q8TSTQzWeJbLJZIkQVyY+RURnkrnOL7nu7j49W9iZmaGOz5/PTMP3sHufJGOGrQI9fWhj2W4Hk0qYo2EN3x9k3ULxpNtLCToWkN/Oedbd9xRHbUi/KyRxGSF4AwGrfNEq3JUBBWHV49UFuaqOnsCIknF3b7i68q69EV4YIw7UId/oHGPUR/qr//6r/O2t73tcKt3evbREupZxtzcnOZ5Xif5r8f6iu/XstBCOk6wdVJvQTzOamWZhih/FHQ2iaXwCc6GdCIxDquOjhZQgiWj9B7pQj9JWM7m0GwG9R4GfWYYkBYD5pKEfp6TJxlPbTuHH3rP+znQ24aRhO2D4xz4iw/z1Bc/y55ykc6gjyFYoGpC5D/RtKYvrfo57pqntdaNCS4Vg3Dk0DM8+ODDdTJZc8hfU7hUxqoxqIPEpDjvKotR8ZUotBUTxFWaAaXhRFLQKHJi6KQd8iKvtQpEdCKZxsPjx3jdzbmjsizj3nvvbQVQNghaH+pZxjXXXMPnPve5idtP1X8KYdgpGASPN2V1TEiZ8j64AFKtRFq8oUxTjnV6OCx4pYNnbnCc+SyhLDx0LEtScqjT4fk/8dMsbdmFlZT06GEeuP4v2HLkaTolSDbDIWu57PU/xoG5rRzobUNcwrFkhnOv/XkePnSEp27+PBcYV5OKeIupp+ZTvBGmTZdeLUAXq7GcKEeOH6mG2hrSoXwgTpzHkmDxqAoljpj+GicVjK6DUMFURedjWElhVEdVNGhRJaI4dQyKZeKUf4qiahBjwwMp3IATovxNRA2IOM3Ju9/97vph3OLso/1PnGX8xV/8RZ1GtVZO6TRpU5Mi38N7e0QNogavEoa1qqgx9G3CYRJeeM3rSHbsRlR5+t67eeaWr6H9JWYSQ9+XDHpd9n3vSzm+cw9PprNYOsyblCt/9MfZ/2cfZXZpkaL0lFu2sueqF3OPTVjMuogz+DSjj/D8N/5zHr7rFsojC1jrECxWDUKCRhV9JVYfrHofTwhEcWImQKxOWuov1zoGWunxheF4QpgXIFihoZFKjaouN5UVkerYPyDKo9SEKAyRq68yKhwrSlrBFWBWyBROZNAxiIUgxhh++qd/mnPPPbe1TjcI2kqpDYDv//7vD37NyuqIKTFROCVK/62GcZbs+Iorh1GwarClkHiD+FCfNLDCMzZj58teweDcy3ikt42Htm2Fq76HrS9+Gcc7Xfo4fGJYSDJmzr8YZzLwQX5pOUk4tGUHXHwpywk4q2CUQZZWkfsCoyWFevpzsyTnXoDrzOLJUE3RKnlfvIZc1Ir0R+Z1PuG6V6vhr9dLGJZ771leXlx5wHhPPbGeBGm9Wns0DuOb87EEk5RwaeG+hSCUR06QBfAYSoyE5K+CSte0EfRqkmlYbRqpUit9MMac8CD94Ac/2MrzbTC0hLoB8PnPf168D0Ecay1lWZKmaZ1zOG5Itx61peF9wxQoEQYH4nDG08fBTI+9L7icIybjeDbDse4sz2Rdet/1fIr57ZQmC1NRkzC7bRdOLYrgXElhDMc7Xc5/8UtYFhBTgpaYxQUSE0jBVMn6i4VSZh2SmhAMprLovPhKM5TKV7n2dY4rxx3SQBBwWj2sXLRPT7hTgOCiBF8zd1cERDAqJAiG4JoQkdpPWkurjvg/vfqVSP6EZ0Nc3RRJWTk39YM2FoNcfPHFvPrVr26t0w2GllA3CKIIdUzaHgwG9ftJWJVARtYFI8vgSfBiKHE4m1PKAJUy/NiTFAbL2G6GIw8/4FzRZIb+/FbYuYfSdZGiAzm4wlOUjiRLEWswnZRFD8zMUlhPRxxblo5z219+CpPnFM5TOKrpjh0JJfhlEhzGhci+CpTGU9qC0hZDdfyTHiJrIZCphPxbb1ZIy4RoexXxCfsaXx8DFadp9cdHuWepovsr0XmbmjoRQaoRgNG0Ung1w2lRTQqUlaBYLA4+QQxFhy3Usix5z3vew44dO1p5vg2GllA3CN773vdKt9utPydJUpelNnUu1xIBmQSPgjZk8STI0MVSSadhrimsJXclSZYFq0gyShci+ntfeDklSqpKJsKRRx5mxgiuCBqjeZ43wkmOfOk4W4s+i3d8k/OWj7Gzv8Ccd6RFwTbXZ7Z/DBksVSqo4Rq8+NoqrXveyOtcL5k223E4ji8tBiFoifM0xdykmD4VcqRUBGyKUilPVXmkpSTkWHJSnKRBpcoYnK/a8zHLtwo6AbUvYJwt2fQmjK5ubmtIPO7du5dXvvKVrTzfBkRLqBsIP/MzP0O326WoCCpOAzzOTzhJcWo1f6LiAoE2Zv40ajC+CsNUunIWYblf4k1VBOCFvPT05mbQZEDKEluWjvHUrd8gWz5G6gYYY0gko1t6unmOeM+WXofUOeaOHeWrv/V/ccXBR9i1fJwdLufcY4c4fuvNSH+J3JWNAI7HqidzKbZMwmypMkyqk651tZeYkOr09NHD4VRB1iAk2xuo9QJVAwFmXUhnwM5BNh+Up7IUein0OtDtBOWotFtt64aXUFWKVSn7pnqFf8BwWtVQND+I1fjh1eG+6PBsDh//+MfZt29fW2K6AdFG+TcQ3ve+90mWZRo1UyPicA/WTpEah3BM/FSRk1bDXS8hHqPQNYZBP+eJO+9m/iWvwBvo5zlda5jzjodu/yY9LUlMSbdUlo8cIr//Ts574YtYEIMb5Oxxnru/8DfMliVaOnzu2DE7w+Dhe/ny71zH8974M+w8dx9H77mNBz75YbYuh0KAMK2ox3gNIi5VupFqVdmpOpzkPqVQTHN/L2HmgWT7LlxlBYdy2OCfNICWniLrMvfdV+K6c2iZBL+rdahxFbEb0LRyo5RYVax3+IPfZvGWm3A+imJPzi8di0YywQmbqmt9+ctfzmWXXdaWmG5QtIS6wXDjjTfyile8ohYMVtWhcsNREpkk59fc12AxPpRfOhsI1XqCCwCDqOB9QeqEXSQc/MbNPO/SF7A453BpRlrm7Bgs8e0HH6DjQIvgO8wGizz9hc8xe+AhnveKV5MYy6N/9wVmD9zDNi+oM9g0zDS6s1TKRx/gsT/8bR4xFgZLbMMzr4r1oFogBN+jRwLhGUGcYERCehGTxVDWysPFWUgStDeHNQmZCE6ryfJUEQlTbOMF5ubY9pofor9lB0ZDqpeq4o1DpQRRpMrf9VUkP/MF/btuZ/G22/H945WSVNA5raGm8VCo3Dh1JxkpizL16ibe9773rfENanE20RLqBsNLXvIS2bNnjx49erSeFbVpoUZMSmJfbZ+4bvRXGpWYjHP4wQIzXnjgM3/BRT/8TzDbt9FxJQ9/6QtkC4skgwJjE6xAD7CD4wzuvZ1bH3gQjGV7vsDWvI94Jct69PMB1ipdPGbpGHMq1bQj4bpEFee1nolEg0Q+GljwRJ6ZQKZrKU8ZG2Z8NcagrkAlnBsxGEt9FpsklEXBTJYycHmI5KutAlrgqxQqqyWKoTAEC1WDlioalaTy2jUbswCa1zGkMDUFVJWXvvSl7N27l71797aR/Q2K9h+zAfGhD31I3/KWt9RkYK0dIsdpyy2H3AbYOhdTRKuyTlOJTQ+35UzKcppRJAnOWBKEtCjpek/Xlwhl0Cq1UKoPgZukGyayK47TTUwQR8EiXirC1pV6fNMoHdWRPivVfiYc07jOUxGJQSyFwh333BnG1SaOr6v3IlWSqIXeDOzYFpZqK59DJXqiMXk/qkpBnFKGo0fh0CFkMMBSIgQL1Y8Zxjeyq+p+qjBSNKBDMn0PP/wwe/bs+cVut/s/TmyxxUZAa6FuQPzcz/2czM7OakyfguG0mWkqpUbfe4LKUSxDjZlCvqoNarZnfcGWvESKuD4ERkSkEkRWVEtcqXQ6PfokLNiM3Gb47gyZUTqLx5m3QurCjKFOy5W0SgUmuSqqqiSRaNqdeG3TVJONwntPv78MeQ7qhoqfECpzsQoADfpw7DDNgqnh+G0sE21Qopigxl/Hn8KU0nFAMMqpJ3xWrVc2RyRxptw3v/nNWGtpyXRjo7VQNygefvhhfcELXgBQD/2nEUIZt5xmn9F81xO2i4bEezWoESR15OqwZDyZzqJXvJTLf/rn6e7Yw9O338qBD/0+W9wC3X6fjiuxlfU5yYJe77WMkua4dlf2MVhJOHjwII89/mjIdqjISwVipZSRIG6tdapWJM6VfZp5o6GBuEzqSica4ilUxq9OMb6P/+faTVFZp9ZabrvtNq644or297rB0aZNbVBcdNFFcuGFFw7locIaaVETEv3H7TNu/eRqo5BcH4fgdX9MwlE16N4L+b63v4ujl7+Yx/Z+F7Ov/lF+8Lr/yvHOFo4hiDVD51mtL6sVK0xzHeOOEfVYlP7iQiDZmkCTauheWfEa0soMHqlq762G6VNEPWhJFEWJ+fe2SuLPoKbSOo9WYn8mdrVGlOQbGlVUQij/8l/+S3bt2nV47VZanG20hLqB8Wd/9mekabpmMvvJJLtPQ75NeML8U94KahVXeAYkLM1uZd9rXsuhzjyLcztYSjOeTDIeuuC72PEzv0DZm8OU5dDoeNz51kOQ64WKp6TP8cERvC/H7KBgHCIlnjAtSTArQ4ltkI+hLusPbpMEIcWT4jHkEPSrpKxUqRsZ/lMgPqSivzyOGJxz/Mf/+B/ZtWtXO4vpJkBLqBsYL3rRi+R5z3veushvWgtvmmNWEKw5p55CSzAGgw01/Z1Zzv/eF7OQpBx3JS419LsdDmRbuPDV/wSHwdl0aPqStQoR1urzNBb46DannsGgXLEaaUynLb4a6g+3E+Y5sAjJSETe1G3UefqigUiFlV9VvcPaPzNVpdPp1NNBR4J973vfy5YtWw63eaebAy2hbnDs379fmuk/EeOG6GsNj9drlTb382gIdktIbTImAQ3TnRSuDLX5qVJQUKjHJjMslIb00ss5ai35hGsY7ce0JDp63ZOuP6wXxCeor4JOVS6Wxgh/hNSj/5Xj8RSiVZCpwZFSghRh7ihTAg60ql4tCTO6eINoio0VZ6sgBiBj/jHA9u3b+fEf/3FaJf7Ng5ZQNwF+9Ed/tH6/ll90Wh/ltIhEFer6kyBTXZRhnvvSQ95n6eknEM3xWoAE1ay88IjJ2Lp9Jyor5ZMnQ+an0vf6vTS+6kPN+KG3MdgeVKSUqGBazxRb6acCQ8N5WXHFVkn9UqWmKb4Sp56mr9FCBbjuuuvo9XprHtti46Al1E2Aj3zkIz8CDPnWmlH/JnE0U5HGLSNGLbtxr2abBosWJcYriYQk97TsM+sH3PN3nyfzOdYKCYq6ApMa1Ofo8WPMlg7j3VD/JvVjFONSoNZyXzQj/XHfQdEH8XVgzWiVdeAFozYoRDVJl4pMo9ZpHMtLFAGocm01VKHFoL4CJVASJuAzlJX4y+phflUdkmns9Xr8s3/2z9ok/k2GllA3AZIkueFNb3oTxhjyPAeoh4ZRR/VUIubjjhndP0zlIWFSPy0wFrrGYhaP4u+5g/mnn2DXscPMLS0yVyyzY/kIe/yAQ3fsJ3GBVEZJc5rh/WrHTOprFOqutwk888xBIBY1rITpQ9woWKBOK5FoU0XmtRI6UUKqlSiow1TrrLXYqiQWoi+VYct14p0eRpTliw/Mj370o8zPz7fyfJsM7dNvE6HX62nMS3TOkSRJrZnaFFQZl98Z30/K/VxtvagBB8aApI6yLOiYDpJ2Oe5KDne7sH0v1/yn9/D0jnPxWcrWhaPc9vE/YXDD/2xnzPoAACAASURBVMeu5aPghy3H9eTMTuprc6mqQ3mcSZIgUk1oZ5R7772bfOBWhvuxgKoW2mNlhj4rGBfmeQo2d3CMKpAY6nmmavmTUcO2Wsb41ASZlBMQ806vuOIKPve5z7UT721CtP+wTYT//t//u/7Kr/wKWaVVqqqkaXqCeMro+2mT5CetD5PmWVQdkjqcujDcNQneWIq0wxFN0K07SH/gVaRzcyzdcwfcdxfzS8eZy/tYMWuWx6430b+5fyTUaKlGq905B4nlzjtvC9/2cqXqVGJZqCRgJWib2gRMCqUEDVRHIFpdhhRYGoBzVY5qSLIaItVG5CrevdCj6Sr3RYQ///M/53Wve11bYroJ0RLqJkOv19OyLMmyjLIscc7R7XanqqSK76e1WpvLxKSUZVm5EEOtZrRelQSxGUsoS90En1ls7shcyawRktJVyfKTLcwmast4HQTbTIgPU62Y+qHjOxkHjh2lKAoGjz+NdXltjJaSBT3T3iwv+cVf4tjMPIOki5oUkfCwcjjElPSKPucsLnHj7/3f0F/G6gBTeUvLIUJdUYqalkzjUH9mZoZ77rmH8847r/1tbkK0PtRNhuuuu64e6idJQrfbrYWoYbqI/3qS6iMKl+OND+lDfoW4rBisc2QuZ75Y5rx8gT1HD7G7yJktC0xZEqcwGT3fyWQkTPIHj5bONueuRw1OLaU3le5qw5JQrXLBBN+dYdDpstjpsdjpcSSxHEksy7MzHO/2WOr0KLo9MBkkKdqYAmU459TUegkhj2rN21tXxH3jG9+g2+1+fe0jWmxEtOIomwxve9vbZH5+Xp1z5HlOlmX1tmilNa21uH7SPuP2HbddrAlz1wN4j3UCzuMsqDV4PDa15HmYi0q8kNoMny+TppZRbmyedxJxTurnuG3RIo3E2syIGCwv0vFhNtXlJEELV89uGszmEooB80vHyQws5stIklJqCOqXix4xSi8v2ZIvgfbB91FxuJGur+T1+6DY3yTTVZ5bIsI//af/lJmZGXbs2NFWRW1StMOKTYgvfvGL+trXvrYOujTl/aYRERm3z2piIwCYkPgj6rBiSKWa78pY1BpEw5TXuJLEZngJVnQ3NXgtEZOc0PZ6z1/vr+P9rdGPKiJ10M6XjsPHjvPkkwdDVM0VQBkqS2MDJgGbBf9pWvlRNWb5K/XUKACDARQFuAIRjzqPMZUvVsHWg76qon/UtzoBIsLNN9/MFVdc8dszMzNvn7xni42MllA3KXbv3q1Hjx4lSRLKsqzTqE7WR7rWPiJBr7P2g1bLarQcZgIdOi4Gofyq51mL9OM5fONYu8o1BIIzIb1LBIvw6CNPcHhhuWrdETJFWXFyCoAJhGulCs2vFCOEfaMoSqV9qmNmJ4UTDVJpfjhxOpvY72uuuYYPfvCDnH/++e1vchOj/edtUnz605/Wn/qpn8I5NxTdXivVaHT9uOXoMf9/e+ceJEV1xf/vvd09M7vLLrDs8nDlJaAGjGv9sIRQSqLBR/nzTRQMiQEjgq8yZVmpVEpNqTHGR0yMqIgiEUXRJEarTJlU8tOkKgalFAR5RCxAhEQisgYEdh7d9/z+6Ll3emZ7Znr2wcLM+VhTPT19+3YP7pw+9zwr9b73xTV8we0Xxyv1wMgJdr+TqgWBbds+xqGUm3MQaeGY8xrl5F4XiZjTOHuCFqRB84bjOCbs7eOPP8aoUaP493iUw06po5QLL7xQtLS0mOVtGFHTNqPWAOgJxfPsoyUbSAVYnr8Veptdjesq90QEyJzWrMivkHUonczm3ru5DqRATqia5b+ERTYE2X7sLZDrWtpDUResc6ozojIZPyX1xhtv7OJUY45O+Il4lJNIJPIkUbmwpN7SMCuZu9z5Zc0N1HWZHzQBaPuqAgWKi2QD/KWFTZv/VfjPFljq5xDZTqt6fgp66MvYQMuhnWeF+47jYMuWLRg7diz/FqsAfiwe5eiq/sXSMCulu7n/YedWkuJabg4//TUQJhUyJl9jlRDCgqsbOlHuuAgK04CgJKGg/6OI4U5R0VEHhS3Cb7zxxrxIDebohp+KRzlbt26lk08+2Sz7u2tD7ammGXXeUvulzrWzf6pU7PpZLTXYewtS4NChQ9j1yU6Q0nn72V582aW+MY1mpxE5+WvMAT3VTkuxc+dOTjGtIlhDPcoZN26cmDJlSuixSmyo3dU0i12v2GfFNNNy9+xmOwYY+ygob5unnSoy7w9+eQhEftRBfgk+XYZP96+WAPl7fp1+v72JiJqIXwYhRBc76dKlS/MqTDFHP/xkrBLi8bivVPVh2FSx4+XOCRsXHFMubArQYaHh9lUhBKAoT2AJIaBA2Lnz3+js7IT2+gMA6ZqmBdqnQE6LRfZjVWEufhSEEGhtbcXbb7+N4447jn+DVQRrqFXC+eefX1TbC3qYg8fCNMRiRPXId+fcYp+Fac4KgJfd+o6jXOaUEb5EICEhLQedyU5A+qonWdnQUqGy5Qh0qIAfSiWkP6dfbF/CE/BjU3sR7Yy699570djYyI33qgx+OlYR8XicLMsygf62bSOVSuUtK4tplYXaXamxeltO8yw3R6l5isWi+ppn7nPj/Sc/BlWHTglpg2yJj/61GdmBgOfBtIRWErBtACL7K1B+sL6nIMjLxaOa/Pyex6Hq+gLxeBzbtm1DW1sb//6qDNZQq4jrrrvOBPoDQDKZ7OJV1nRZUpewoQaptOBKFM22VIRC0IMvFfylPQBB1MXTr0AQlg0IC64gJN0MIP2GJHBtgOoAxAA7AVhxQNYDjUOBxBCgYQgQbwSEnWcz9W2qqseah64GJqXEe++9h7q6Oi6AUoXwE7LKsG2bdC3QYCtiraX2JJ60r8/V+13GZONQtXaqg/fzogCkzhaTyJDy211LgX1fHoS0YrBkAq6r/CaCAvDqGjH65MloPuEkJO0YlPQw2O3EP++7BzL1JZRNvvKaqaxIdDF0ivBJJ52EP/7xjxg9ejT/9qoQ1lCrjCeffLKLJhhMTS3UHMNsqVFiQsO2lVCpTbXYOYIUBCl4Gb82rBDC73klHaTTfstrFwIHXIW07cCL1yFTVw8Vi2HApEn4vHEQdtc3Ym/DQHRYCUDEQbB1hxS/sasle+zo1yUWH3nkERamVQzHbFQZ8+bNE42NjZROp5FOp1FfX49MJhO67C8kWA/AxHKGjAkeLxxX7HjYfMWuUdHx7HvdFka5HhQI0rKRTqagiKCyTn3P9eBlXMB2AAgc6PgMqXgK0nGQVil4qZRfRSqbi0oEQAi/DkoPkVJi0qRJGD9+fM8nY45Y+ElZhTz99NO0cOFCv51zOg3Hccyxvli2FzvWnTmLfSYhTPB+fscAQAoBmc29l8KGBwIsG9t3fgI3k4ZxOAEALP98YRnB6tsUCPBcoDMDoVyIbPFoKWJQpJCLK+g+mzdvxtixY7m1SRXDGmoVcvXVV4thw4bRF198YRxUYRpjkKgabCntNTim2Psoc4TOJQBCdp8IwVO1ycIS0g8vVQQlXLiplK9mipxAFVKBXAAkITJpEHnICz5VgH8JAQEbIAUr2xe1J8v+Sy+9FE1NTWBhWt2wDbVKeeGFF+A4Tl5Kqg7b0cK00LZaLGMqjKhjy9lXI8elinwNUZCE8AQskpAkYQkbnkdwPS8XoqQ8aO3UpJRm8/gFFCzyYAE5jxPl5gZ8Ae7HpVJFwjRXoMXHcRzceeedGDZs2NkVTMMchbBArVLOOussESzG4WUFjZTSCNdMJpMnVIsRNQGgXEhVqW2xa/hB+v57JYrPoYig1VYlFDwvg5xnKauEBoqi6CTUHLm01JzYVgWv0uhICv3g0q2szznnHAwZMgS2bf+17CTMUQ3bUKuY1atX0/Tp0+G6LuLxuN/BM6uxxuNxv4up6JpjXswOWnisJ9tS1ymWdqoD+nWR6bBWKP6LcPDgQXz66X/NMd3llIQfBCUoEA6lpxAoSEXNEVVDDQbwa3bt2sWV+GsE1lCrmNNOO020t7cjFoshlUrB8zzjoHJd1/Su16mpYcv3Ykv7UoH8UT4vPFbqGrrwiUV+QL85XyCvWIofn6rgkUJnKpknEX0bqAxkPgV0TirYCv/VHZtpUDsFgLvuuquLCYCpXvipWeXs2bOno62tbbC2p2qNVC/388rdZempp75cimmlcwoCJElI4QtMXcIvGODvIdcKhoiwe/d/kO7MoEsh6awGWviHnxe8H/arKCNdLcsyDybtdKurq8OGDRswbtw4/p3VCKyhVjmtra3NEyZMQCqVghAC6XQaSinEYjE/bjPQelkTpqGGUYk2Wng8qkZrtNTse1GgpQaLTgfHuym3IhWzp6Gm+mEVjKC47bbb0NDQ0MOZmaMJfnLWAB0dHe+2tbVNdl3XNIbTAjXYzz6q5hg2LsqYcpprqTkkCs6VXeeS2X7OQghs274te14RzTO4vC8kaxLIH15a5Op/x6BA5eLRtQdrqDVAc3PzqRdddBEAGOHpeV6XmNSoKaSl7K2l3pfTSku9V9kCUZ6g/M6kWbSdlUhACAu+CLagYMMPt9ZtoXMvAXTVYo0w9cf4/5XXPAodUa+88kpeQgVTG/DTs4ZoaGigVCqVF0plWZax/5XTRsM+Oxx2VRIASR3UL/1CKZSzr/pjfcePtBwc7DyE3Z/u9g9YEvBMtH7W3U+Q5ItbAuUF7QvktNog5TTUIEOGDMHatWu5LXQNwhpqDTFz5kzjuBFCwLZtSCmRTqfzxhXTEkt9FuVY2NhKtGOi/JJ9un004Atdl4C0UshIAVFfDzGgAWioBxobgYYBQFMjhp54ApCIZyNLBSTsvB+Br436R0m/RHRhKoTAokWL0NLScl/kk5iqgZ+gNUYikSBdgFov/bU9Fej9+NIoYyLZW2UuhEpmNVX/mDS5+RlSEDEHh9w0Up6CCwFhSbgiW32/Lo5vnnc2/t+SpUCnC7h+pSpCtvA0FOysjDZaq5a2gfjUYliWhSFDhmDNmjUcd1qjsIZaY9x///3GMaWUgmVZeRpquaymUuMqiUWN8j5vXzfeQ4jZkyhbEEUCQvgdC2wb0rb8FiaWBGwHA5oGoq6u3m99AgCWFUgqDdFCKxCJ+uH02muvoamp6bfRz2SqCX6K1iADBgwg13VNoH/QfqqpxMtfys7aG1oqgC5efYlADykBeCRgOTZcBXy2dy9gSXiUPU8JQNgYMHAgBrU2Y9f77wOuypoP/Hx/vay3tPwG8p1fESwZU6dOxcqVKzFmzBj+XdUorKHWID/5yU9MFf90Om08/VFto4XaaNi55bKgys1ZeLzYORpL+BosZdLwDn4Jb99+4Mv9wP4vgS8PAPv248AnO7Fr7fsAKYA8EHnZIn057TRbTsWXnxR4ReBXv/oVhg8fviDaaKYa4SdpjdLQ0ECZTCYvDlVTieYYNY60J15+AJCwCj7PatVCgYBsHK2Fzs5O/Pe//0VOVyioUyABUrliJ1JKKFK5X0IgNRXQ4VOqbCvpM844AytWrGDPfo3DGmqN8vLLLxvNVAhhbJSCkOc9DxIljjTK58HjpWywYdeRBAiV7+3340kJrpuG52Ugsg4mEXwJD5ZFgHKz+/6cSgvJUE00XCiHsXz5chamDAvUWuXcc88Vo0YdC6Vc2JaABQtC+fVFHcuC52VAQvmRmhWIie4K1zCCGqqfw6+gsi9PC10loMh/CctGMp0xWVH+1l/SE5GfzICs7Az6ooLClPSH+aFTWjvV9xQseDJ79mzE4/GKvx9TffATtYbZtGkD/Z/JpyCdcuHYDQARbAEQPJAFeKT8ilSegpS55g49KXQSNrYSp5Y5ng3sN8I+67T67549yCSTuUD+yuV4KEHTiM6K0gkRH374IY4//nj+LTGsodYyEyeeJAY3t8CKJ5C2BNICIMeCJxRcVyERi4OU6wtY8oqmk5YLtSrlkKrEqaWLo2iThNkHjPnCzYaAiazWKdA7WoMWojoiwrZteJ6HBQsWcAEUxsBP1Rpn28dbacKJJ8AjB04sBu/QIcRtPx3VdV1AKMRiNlyvZymloaFQ6KqhltVyqcj8loQCYdfOnf4+svbh7HvVQ1U1WJ5Pd1gFgO3bt2Ps2LH8O2IAsIZa8xw3Zpw4/WvTAC8NJA+hMZaARRLptAth2bCtGNKpyovbRU0QiIpxmOl9pTud+i+ibLwpLIBkvjbcC+t+XUxGvweAhx9+2BSSZhiANVQGwM5/f0zHj/8KlOtBKgHL8tM443UJJA+l4DhWXj57xWmjZcZGSSoItjsRwhemJHOB/UIIZDIZfLZnjwmLEtqOit4xpTqOA9d1QURobGzEunXrcNxxx/FviDGwhspgZNsYMXTocCiykBYCaT9h3i9KHdAAi9lCK01XLRxTKvjfjBG5aFAiymvYpz871NnZbQ24HLrLARFBSol77rkHjY2NX/TJxZijFn66MjnqmgmUhC0By/MAJWDbfuEUke233F0bapSxpc4v1FZNURTktM+9e/cinUplx+nEf+oVG6pGSommpiasX7+e406ZLrCGygAA3tj7JZ1z401Aog7kKZCnYEsgrZIgSydk5muFJpc+oF0GPyscH0VzLRSumkAxPdOYT4/X5zQNHoT6pkY/BlW/gEjC1NQIyGaMhd2HEH777RdeeAGDBg3iAihMF1igMgCAgyTxf6+YBRDB8/yOqK7rQkqAZFaQlVimBz8P7ge3QSqpYtXl3ICsU/q4JWFZVs5JRBSI3i+P9t4XVt4PCloiwogRI3DSSSehqanpisiTMzUDC1QGABD3XNQJgfNmXQHEHbjKg7AFyAPIpTwPO1BceBYe604sarGtCpznh6Pmn59Op5F2M/mGrIiBqLr8HgBThFsTFLRPPfUUhgwZwsWjmVDYBsQAAPYQdaSBwXXAe0OaBkwWnUk4wjLxnYVedk25cn5Rs6fKniP9OvpS75PMO+66Lvb+7wuojBaoBRpqRGU1GGMafC+EwFe+8hW88cYbGD58OP9umFBYQ2UAAK1CNLcJIZqFOHXxw48h7iSQdjMQ0obyyp/fV9714NwSuXjUYOETgodUuhMqkwKgAArUdyU/sL/Sa2lhqrOiiAjLly9HU1MTa6dMUfhJy4QyaFAzJZNJpFIpJBIJKOUC6L53v5Lc/8JzABiPfmE7ab394osvkEwlIaTMxqFm54GIJOyDOfraMRXM3W9vb8frr7+OY445hn8zTFFYQ2VCeeThRYAiJGIOMulD5vOommg5Z1PYZyW9/zpTSlGXLYBsmqzI00x1WakoEjDojCIi0x5G5+4/++yzGDp06NkRpmJqGBaoTCjf/d63hVIK5GXKpleGFUop/DxsW2quYnOEISh7XBFU1uYZLJgdFX1OYYrpJZdcgpaWFti2/deKJ2VqChaoTFE2bt4ASBteIJJIa296KaztjKXQlaD0+cFtcN7g+8J944WX2SD97FZnUGnhpzVTrXFqRTUKxlZbIIzvv/9+XuozkWCByhRlwoQJYtyE8VBKmVc8HofrunBdF7FYzAS7R4lHLSRqHKt+n1dwOjC2MHa0OwTn1st8IQTmzp2L+vr6Hs/P1Ab81GVKsnr1apo2bZqp/6mUQl1dHVKpFKSURXtRBT8r54iKUhxFE7Rr6lc6nUZHR0evfWft4Y/FYti6dStGjhzJvxMmEqyhMiU57bTTxODBg00mkZQSnZ2dxq4aNbW00iV+KQrHp7L5+z1FPyC0wL711lu5PB9TEfzkZSJhWX7Hep3eqU0AgO44WnnAvn5fSSJAUOBp7Xjv3r2+l7+H6Lktyy+wvWXLFowZM4Z/I0xkWENlInH55ZfnLbH1khgorYGWSjUt/LzwfRhhttTeEKYaIQQ8z8MDDzyARCLRa/MytQE/fZnIOI5DWjPUXvXCpX/UVNTC490J+Nfbzz77rMffTUci6O+3c+dO9uwzFcMaKhOZGTNmGMcUkCsoUomXP4rHv5S9FcgJPy0Ay4VtRUGHZukU096Yk6k9+K+GqQjbtknbTIPxqIV21ChFo4PvS2mjhUt8bcMVwm97sm/fvopqCejShPoaWpgqpTBmzBi89dZbaGtr498GUzGsoTIVcdtttwHIb1pXyuMfJEp91DBKRQ3oHk9R0ZWpgkVPABhn1K9//WtYlhV5PoYJwk9hpmIaGhoolUoZTREoH19aiXYa1QYrpcS+ffuQTqcj3bc+V5sKgpWllFJoa2vDqlWrOO6U6TasoTIVM3/+fOPtB5BnQ41aaLrwfeGYYuOCghBARR7+whRYLWB1+uwrr7yC1tbWBZEnZJgC+EnMdItEIkHajlko8LqjjUYq4YdcFpNeln/++edd7iGMYHm+4PzaJjt16lSsXLkSxx57LP8mmG7DGirTLf7+979DKWXskUEqqSpVbkyYFhv08kclOLawqpTruli0aBHa2trGRZ6QYUJggcp0iylTpojW1lY4jmP61QOVld+LkrZaeCz4XsfCRhGsOnUWyBVT0fvTpk3D0KFDIYTYVnYihikBC1Sm2yxatAiZTAaO43Q51t1MKD2mUMCGOZQqqTIVTEYI2k4B4LnnnsOIESNYO2V6DAtUptvMnDlTxGIx45QK5tkD6BIBUEzTLHyFERSe2oaayWQi36sOiypk/vz5SCQSrJ0yvQIb4JkesWfPno5jjz12sA7u10txLbwcx8nTDEsF/Ov9cp/r5fv+/fsrEqqF17VtG5s2bcL48ePHsUBlegPWUJke0dra2jxy5EgQEdLpNIQQiMfj8Dwv1L4apZRfufd6vxJhqqtkBZk/fz4aGxtZO2V6DdZQmR7zr3/9i9rb2/OW5cE2zFFCqaKGWAXfd3R0RAqZCmJZlhm/bds2Ls/H9CqsoTI95sQTTxTjx48H4Ns3bdvOy16KIvSipp4Wc1aVQxfH1kL+kUceQUNDwxeRTmaYiPDTmek1bNsmy7KQSqUQi8W6FCGptMB0qZRT13Vx4MABANFbW2un2aBBg7Bu3TqMHj2a//6ZXoU1VKbX+N73vgelFGzbhmVZ6OzsNJWogOgdT6O81/baSgujAMB9992HwYMH/7aCr8YwkeAnNNOrxGIx0mFUjuOYeFEtVHuSjqq1ViLCgQMHKopF1ec1NDRgy5YtXJ6P6RNYQ2V6lcsuu8xUbwqmpVZaHCVsq4tZa1toMe00GG9amHTw8ssvc3k+ps/gpzTT61iWRcFlfqlW05W0O9HCVEqJ//3vf6FL/mARlMLi0RMnTsTrr7/OtlOmz2ANlel1HnzwwbzlORA9x7/UfmEGViFa6AIwxaO1tgwAv/jFL9DW1nZ2d78Xw5SDn9RMn+A4DnmeZ7KnwlpN6/dRyv3peYTwu5IePHiwi4Yapp3q90OGDMHatWu5eDTTp7CGyvQJDz74oEk7LfTyF1Isxz9sDBCuoWrtVAhhhC+Q01TffvttjBgxgrVTpk/hpzXTZxTaUsNiS8O008JjhfupVKpo2FSYlnrBBRdg8eLFXDya6XNYQ2X6jI0bN+bVLQXKt0gJEqalBkOlCo8H7aXBz+6++260tLRwaxOmz2GByvQZJ554omhubjZhSt0pQl04Bii+5NeC27Iso52ed955GDZsGBKJxJKefRuGKQ8LVKZP+c1vfmOEYTB8SufUA9FSR4PL/8I6q8E5tGDV+0888QQXj2YOGyxQmT7l/PPPF21tbQD83k3a46+1yELKBfeHjQXyi1hrjfhHP/qRPsbl+ZjDAhvpmcOClJJisZipYaqdR5ZlwXGcLs3+igX8ExEOHTqUN3dhiBQRIR6P46OPPsKoUaP4b5w5bLCGyhwWTj31VKRSKbPsl1KakKZkMgkgWlpq0MEVNlYL3ltuuaVLQWmG6Wv46c0cFvbs2dPR2to6OJFIwHVdOI6DVCoFx3HyiqcApdNRU6lUqFDV47RJYefOnVwAhTnssIbKHBZaW1ubL7zwQmQyGSilkEqlEI/Hkclk8oQpEK6damEZFKaFNlh93rJlyyIXnmaY3oT/6pjDihCCtN20s7MT8XgcQNcK/GFbIkJnZ2fovNome+yxx2LVqlWcYsr0C6yhMoeVyy+/HJ7nIZ1Ow7ZtKKVCA//DvPulsqp0KNU999zDtlOm3+CnOHPYcRyH9PLdtm2jfZYqnqIFq3Zg6Xz9oDmgoaEBmzdvZs8+02+whsocdm666SYQEWKxWJ5dtFTxFF1UWlet0l0BdKSAlBLvvvsujjnmGC6AwjBMbeE4DgkhKBaLkWVZZNs2OY5DsVjMvOLxOMXjcUokElRXV0dCCBJCEAACQJZlmc9OOeUU+uSTT6I3mGIYhqkWXn31VRJCGEGqt2FCtVCgSikJQJ5w/dvf/sbClGGY2mXAgAFGOJYSqPplWRYBICllnlA95ZRTaNeuXSxQGYapXVauXEmWZRkNNShUg4I1Ho9TXV1dnlaqBSoA2rJlCx06dOjn/fttGIZh+pmBAweSZVnGjhomVOPxOMViMSNQbds2wnT27Nn06aefsnbKMAzzzjvvGIEaJlS1lppIJIwjClnBGovFaP369eS67oz+/h4MwzBHBEEtNaidOo5DUkpKJBJGkOotAPr2t79N//73v1k7ZRiG0axZs8YIz2wfKiNg6+rqKBaLmeMI2E937NhBRHRcf98/wzDMEcXUqVPNcl9KSY7jUDweJwBmi+xSXwhBP//5z1k7ZRiGKYbWTIUQ5DgOWZZF8XjcOKGklCSEoIaGBtq+fTsLU+aIg1NPmSOGyZMnm/RSz/NgWRYymYxpaQL4aah33HEHBg4c+F4/3irDMMyRTTKZvFY7pnTwvtZUtd3UcRzasWMHa6cMwzDlmDNnjgmf0kv+YBD/a6+9xnGnDMMwUdHaqZSSbNs22VHDhw+nnTt3sjBljljYhsoccVx33XUgIlOiT9dHffTRR+E4Tj/fHcMwzFGGECIvoP+YY45h2ynDMEx3WLp0qcmMklLS2rVrqaOj493+vi+GYZijksbGRrIsK5xI0QAACiJJREFUi6ZOncpB/AzDMD1hyZIlJISg1atX0/79+1/q7/thGIY5qrn44otZO2UYhmEYhmEYhmEYhmEYhmEYhmEYhmEYhmEYhmEYhmEYhmEYhmEYhmEYhmEYhmEYhqlRRH/fANN33HrrrbRjxw4opXDFFVdg1qxZ3fr/vWPHDvrxj3+MVCoFIQRuv/12nHzyyaFzPfTQQ7Rq1SoIIZDJZPCHP/wh8jXfeusteuCBByClhG3beOmllyq63zvuuIM2btwIIQROP/10/OAHPwg9f/bs2ZRMJiGEwC233IIzzjij6HVeeukleumll2DbNjo7OxGPx5HJZGDbNpRSsCwLnueZrgJKKUiZ3whDKQUhBH7/+9/z741hjlbuuece08/esqxuN7fTjfMAUGtra8k5GhsbTUM9KSUtXrw48jV/+9vfEgDTQyqZTF5byX1Onz6dpJQkhKArr7yy1HXNPb7wwgsl7+/2228396ObBeqt/jfRx/U27CWEINd1Z1TyfZijD+4pVcVcffXViMViUEpBKYVly5ZVPAcRHffyyy+b/RtuuKHo2GXLltGBAwcghIBlWVBK4Yknnoh8rWQyCSkliKiLlhcFrTUSESzLKjpOzy2EQDKZLDmnEMLcD5Eve/XW8zxYlmX6XunPASAWixmttfAYwzBHKbNmzSIhBEkpacyYMRX/qn/5y1/maWD/+c9/is4xZcoUo7kNGDCAhBBk2zatXr060nVXrlyZ1zK60ns988wzSQhBQgiaM2dOSQ1V/5s8++yzJa+ze/du2rhxI23YsIHWrFlDGzdupI0bN9L7779P69evp4EDB5p/n5tvvpk2bNhAH3zwAa1Zs4bWr19PGzduNNtKvw/DMEcYf/3rX/OWqW+++WZFP+yvfvWrRmBceumlRc9dv369uc7QoUPphz/8odmfP39+pGuuWLHCCG4pJRHRcZXc6xlnnGHOLydQ9b/HsmXLeiToBg8ebB4Ad955JwvNGoeX/FXOjBkzxAknnGAcKIsWLYp87j/+8Q/64IMPzP7ChQuLjl28eDGEEFBK4fzzz8ecOXPgOA6UUnj++ecjXc9xHLM87s4SWZsagq2ni6GdRz1tS61NC0KIstdkqh8WqDXAggULAPhC5LXXXkNU59TTTz8NwLcZjh49Gueee25RibFixQpja5w7dy7a29tFe3s7AODgwYNYsmRJ2Wt6ntcjW6MQAp7nmXsuN1Yp1e1raYJ2VRaoDAvUGmDhwoX31dXVgYiQSqWwYsWKSOc999xzAHzhU84ZtW/fPti2jVGjRuEb3/iGAIDvfOc7RoN7/PHHe/o1GOaIhwVqDVBfX/+jWbNmmf0onveHH36YXNcFAMTjcVx11VVFx+r5XNfFtdfmIp0WLly4QHu7161bh6jOKYY5WmGBWiNce+21JmD+o48+wl/+8peSwm3p0qUmIP2iiy7C8OHDQ9ez69ato9WrV0MIAcdx8N3vftccSyQSSy644AJjE12yZEkvfyuGObJggVojTJs2TZx88slwXRdSSixdurTo2FWrVtGGDRsA+LbBm266qejYJ5980tgizznnHIwcOTJP8C5cuNA4ml588cXe+CoMc8TCArWGuOGGG4zn/Xe/+x06OjreDRu3dOlS42SZOHFiydTMlStXmqD3+fPndzn+zW9+U4wcORIAcODAATz11FO87GeqFhaoNcT8+fOFZVlwHAeu62Lp0qWTw8Y9//zzRqCWCpV67rnn6PPPP4dSCkOHDsUll1wSKnjnzZtntFR2TjHVDAvUGmPevHnIZDKQUmLx4sVdjj/66KOk0zHr6upwzTXX3Fdsrscee8ykcV599dVFrzl37lwTUvTee+9h7dq1rKUyVQkL1BpDa5xKKWzduhVvvPFGnnB76qmnjDNq5syZqK+v/1HYPBs2bKB//vOfZn/u3LlFrzl27Fhx1llnmf1izqlgcHxWQ94W8WsBADKZjAnTsm275Fh9rZ7m2HOOPhOk9F8dU3W0t7eLKVOm0DvvvAMAeVrqqlWraNq0aZBSQimF66+/HsuXLw+d5/HHH4fjOMhkMhBC4LLLLsOpp55KusSfZVlwXdcUSdFOLgBF5xw0aJApbOJ5HrZu3Urjxo2LHC2fSqVMYH9jY2PRcTqoP5gI0F3CCqMwDFNDLFu2zOSy19XVkXZOLViwwOSlT548uaSECBYFEUKYUnZ6X7+3LMvs6zGO49Bjjz3WZf5169aZ+xJCULnQrkKCpQPvvffeSOX7XnzxxR5JwpaWFjPX3XffzVK1xmENtQaZN2+eaG5upo6ODiSTSSxbtmwygLyc++uvvx7f//73Q89fsWIFzZkzB1JK1NfX41vf+paJNbVtG0II6KSAYG7+5s2b8e677yKTyeCZZ57pMm97e7toamqi/fv3AwD+/Oc/R/5Ob775Jmmzgm3b+NrXvlZ0rLb7KqXMfXYX1kwZhsEtt9xiNMHTTjuNXn31VbM/cODAklLi9NNPN5rkVVddFVmirF69mmzbNueGOaeuvPJKUyS6qamJioV2FXLuuecaTbFcEWytKdu2Tc8880yPJOKQIUNYQ2WYWmfTpk15legvvvhiI+huuOGGooJh06ZNeZXoV61aVZEQmTRpkjn3+uuv73LumjVr8uY/88wzy85/7733kpTS3P9dd91V7hzz3Z9//vkeCcHW1lYzFwtUhqlhzj77bCO4HMcx7z/44IOiguHmm28240844YSKBchDDz1kbKkNDQ2h5y9cuNAIR9u2adKkSfSnP/2py9gPP/yQZs+enSeAjz/++Cj3ZO6hpxpqVptngcowtU7WIZPnRJo+fXpJodDc3GyEXbZnVUV0dHS8G4vFzPWefPLJ0Dm+/vWvd3FytbS00JQpU2j69Ok0YcKELvfe0tJC77//fiSBGpxz9OjRZV+PP/546LxDhw5lDZVhGJ9hw4blCably5cXFQorVqzI0xx37drVLQEyc+ZMIwSnTp1adI5rrrnGRAkUNsoLvpdS0imnnEJbt26Nej+hEQmlXj/72c9C5w56+X/605+yQGWYWkZ39ZRSUradR1FOP/10I8CyS/9usXbtWho+fLgRRKW0ytWrV9OVV15Jzc3NXcwTtm3TjBkz6Omnn670XvJsrgV9rEJfxcKwBg0a1CONnakuuMQ4c9Swfft22rVrF9LpNEaMGIGJEyfy3y/DMAzDMAzDMAzDMAzDMAzDMAzDMAzDMAzDMAzDMAzDMAzDMAzDMAzDMAzDMAzDMEw1c9FFF3GFHIZhmF5A7t69u7/vgWEYpiqQyWSyv++BYRimKpD19fX9fQ8MwzBVgezs7Ozve2AYhqkKZCKR6O97YBiGqQpkOp3u73tgGIapCqQQ3JaHYRimN2CByjAM00uwQGUYhuklpFKqv++BYRimKpD9fQMMwzDVgiTiVH6GYZjeQFqW1d/3wDAMUxVIz/P6+x4YhmEYhmEYJsf/BxesVEej1BOOAAAAAElFTkSuQmCC;" parent="tquT07f-gbf-o2BWBBhi-28" vertex="1">
          <mxGeometry width="108.97459031073704" height="91.67000000000004" as="geometry" />
        </mxCell>
        <mxCell id="tquT07f-gbf-o2BWBBhi-30" value="&lt;b&gt;CONSUL&lt;br&gt;client&lt;br&gt;&lt;/b&gt;" style="rounded=1;whiteSpace=wrap;html=1;fillColor=#FF3399;" parent="tquT07f-gbf-o2BWBBhi-28" vertex="1">
          <mxGeometry x="65.78938906752411" y="37.080092236052636" width="69.71061093247587" height="35.709187785439255" as="geometry" />
        </mxCell>
        <mxCell id="tquT07f-gbf-o2BWBBhi-34" value="" style="group" parent="1" vertex="1" connectable="0">
          <mxGeometry x="760" y="500" width="135.5" height="91.67" as="geometry" />
        </mxCell>
        <mxCell id="tquT07f-gbf-o2BWBBhi-35" value="" style="shape=image;verticalLabelPosition=bottom;labelBackgroundColor=#ffffff;verticalAlign=top;aspect=fixed;imageAspect=0;image=data:image/png,iVBORw0KGgoAAAANSUhEUgAAAVQAAAEeCAYAAADVUe2/AAABfWlDQ1BpY2MAACiRfZE9SMNAHMVfU6VaKg4WFXHIUJ0s+IU4ShWLYKG0FVp1MLn0C5o0JCkujoJrwcGPxaqDi7OuDq6CIPgB4uTopOgiJf4vKbSI9eC4H+/uPe7eAUKtxFSzYxxQNctIRCNiOrMq+l7RjQH0w48JiZl6LLmYQtvxdQ8PX+/CPKv9uT9Hj5I1GeARieeYbljEG8Qzm5bOeZ84yAqSQnxOPGbQBYkfuS67/MY577DAM4NGKjFPHCQW8y0stzArGCrxNHFIUTXKF9IuK5y3OKulCmvck78wkNVWklynOYwolhBDHCJkVFBECRbCtGqkmEjQfqSNf8jxx8klk6sIRo4FlKFCcvzgf/C7WzM3NekmBSJA54ttf4wAvl2gXrXt72Pbrp8A3mfgSmv6yzVg9pP0alMLHQG928DFdVOT94DLHWDwSZcMyZG8NIVcDng/o2/KAH23gH/N7a2xj9MHIEVdLd8AB4fAaJ6y19u8u6u1t3/PNPr7AaSbcruTptu3AAAABHNCSVQICAgIfAhkiAAAAAZiS0dEAP8A/wD/oL2nkwAAIABJREFUeJzsvXu0JFld5/v57R0RmXnOqVPvruquftI2dKNNy2MYwRZQ2+ExwuhtR6+jcme8Di5ncDkOaynDrHUBp51RFuN1OTLKLFk4wxV5CHrhSiM2CojS0A3dUP1+v6ofdFXX6zwyI2Lv3/1jx44TmZV5Tp6q6qpz6PiulScy47FjR5zMb/z27/Hd0KJFi7G4++679b/8l/+ir3rVq/TXfu3X9Gz3p8XGh5ztDrRocTahqs+76aab7j948CBf+tKXuOWWWzh06BAigvcegCRJeNe73sXrX//69vfSYlUkZ7sDLVqcSXz2s5/Vz3zmMxw4cIDDhw/zspe9jDRN8d5TFAXWWqy1qCrWWkSEsix5wQtecLa73mIToH3itviOQ1mW19x9991/vX//fr74xS9y8803A2CMwXuPcw4RwRgDUJMngHMOay3e+3q9c44vf/nLv9jtdv/HWbuoFpsCLaG22NS4//779e/+7u+4++67uffee3n00Ufx3pMkCUVRUJYlaZoiIjVZxvdATZ5lWZJlGUVRICI1wXrvMcbwta99rf2ttFgT7ZekxabB448/rp/4xCf41Kc+xZEjR2oyBMaSpTEGkfAVL4qCLMtqCzUSpqrW+6lqbb0mSYJzjqIoOO+88/jLv/zL9rfSYk20PtQWGw433XST3nrrrdx1113cd999HDhwAFXl2muvrS1ICCQZic8Yg6riva+3x88AaZpSlmVNls19IwFDsFjLsqQsy/q4iy666AzfgRabFS2htjiruPnmm/UjH/kI//AP/1CT3L/9t/8W1ZClFH2dqloTYkT0iTbXNd83Pzf3iyQbP8dzlGVZ7xfP6ZxrCbXF1GgJtcWzjn6//5avfe1r73/kkUf46le/yje/+U0WFxdJkoR/82/+Te2nhGBVRjI9kyjLcii6n+c5xhg6nQ6XXnrpGe9Pi82JllBbnFb0+/23fPKTn3z/DTfcwOOPP06/3+fqq68GqNOTnHOkaYpzDuccSZIMWY2jVuaZQLRIjTFDPtayLHnpS196xvvTYnOidbS3OCk8+eST+vjjj3PjjTfy5S9/mQceeKAekscAT0S0QJuWaLQIkyQZGso3yfRMWqqRSOPQP8synHN47/n617/e/k5aTIX2i9JiTezfv19vuOEG7rvvPh544AGOHDlCnudYa2sCGo2WNz9H61NVh1KSmsGg1RCPezYR+9sk/ehPvemmm9rfSYup0H5RWtR48skn9dvf/jaf/OQn+au/+iuKohhKQRpNgG8mx0cyGh26N8mwablGoo1tng2/aRPe+zoNK14L0OagtlgX2i/KcxRf+tKX9Fvf+ha33nor999/P4cOHaqtzTRN66h6lmU1OUYSjfmeTXKMw+VxQ/YmQcXjIoE12z2biATfzBwQEV784hfz/ve/v/2dtJgK7RflOYDPfvaz+r/+1//izjvvZDAY1H7LmI8JDA13ozUaSSWSYSTAJuGMpizF4X4zFzSuj+1GNM+9moV6Job8TUKNhJ8kCe985zt5wxve0P5OWkyF9ovyHYJHH31U9+/fzz333MPXvvY19u/fT1EUAPWwHIZzL8ctm/uNI8zRfc9WVP50wxhTi6MYY8jznDRN2+F+i3Wh/bJsQjzxxBP6sY99jL/+67/mqaeeYnl5maIoyPOcXq9XpybFSDVMR6qTtq1GoJMIeTNi1MK21nLjjTdu/gtrccbQflk2MO677z594okn+MIXvsANN9zAgQMHKIqCTqdDURQYY8iyrI64R1KL/sw4jG8O7aexUMeR6bT7bVY0o/xNn3GbMtViPWi/LBsEf//3f6/XX3899957Lw899BBPPvlkTVLNZPPRyDmsWFYxmAQMSdCtZVVOs33ccq1tmwmjvl6Aubk5/uZv/mZzXlCLs4L2y3KG8fjjj+sdd9zBn/7pn/L5z3+epaUl5ubmajGO+MP23pNl2VBOZzOIM45QR2vb47B1HAGPLtfjK51m382I0YKEV7ziFfze7/3e5ryYFmcFbenps4Rnnnnm5i9+8Ysvvfnmm7njjjvYv38/S0tLvPzlLx8KgPR6PRYXF7HW0u126yh8s3IHGCLWcdH0Jqk2iTW208QowTZJpGkBj0brm9vj+0ltbkaMDvdf+MIXnu0utdhkaAn1NOGP//iP9QMf+AD33HMP1lqe//zn18LGsbSyWcverBXvdDoAtSBHVIkfTZKPRBn9p5Fcm6lNowQaLd/YThPjSHA1YvxOJdKIUfdIK4rSYr34zvglnCHcddddetttt/H1r3+dqBLfzOeMRNi0EpuiG02rr+njHN0nBp6AWjykaaGOHgvDaU5Nf+u0QamISYGoUbKZNgtgs2BcnuyHPvQhLr/88s13MS3OGtovywTcdttt+tGPfpTrr7+ep59+muPHjw9tP5WAzcmmK53Kclybp/s8m9mPGh8+UWDaGNPW8LdYN57zQ/6vfOUrevToUT71qU/x6U9/mqNHj6KqvPzlL6fX6zEYDOh2uxP9jBHTDJ+fjeHxOH/nNOsn9XOtPo62u5qfdTORauxvlBZMkoRvfOMbOhgM6qlTpmkDIMsyZmdnh4KKmx1xBBb9zPGa5ubmDu/evXvHWe7ehsHm+cY/S7j22mv1s5/9bK3JGYfrEKbYiLqdzaF1XE6y+E5l2Wx7te3THLPaPtMcc6oW9ug+GxmRJKKrZnl5mdtuu612A6xFiuMeKk3f9nca4v268cYb+b7v+77N8U8+AzBr7/KdjU984hMSo+6qSp7n5Hk+JNjRrDIarUWPn0d/cJM+j1s/7gc7uv+4c612zLT9Ws+1rHb+9Z5vo6FJfqo6JHw9zTU0U9ri52ag8DsBo+l6l1xyCZdeeunhs9ilDYfvjP/0KeId73hHHcSJw73oT4tEO4px5DUOqxHYam2OW067z3r6Mg0pPxcQA3nRf3ro0KE64DiNlR33GZ2vqrluM6MZCI34nd/5nbPYo42J1lSvsGXLFm3OnhlFMoChNCdY/5D7ZIbmo8tTGfKv5/Nq7Y3rz2pBrs0WpGr6fm+++eahIou1+j/68GmKVH8nwRhTzzT7yCOPsG/fvo3/jz2DaC3UCv/hP/wHVLVOqi/Lss4FnSSAPK31OY2bYC0rdz0W6Oj+k9wMzffTuh1Wu4ZprmUjIz4443A9LiPRrvYaRVNs+zsBTVdGnud885vfJMuydrg/gpZQK7zjHe+QJElq/2mWZUPamLD28Hqaofm47SczfF/t3JPOM+0x6z3PetwaGxWqSpZlFEVRP0ThxHLU1bDZLPL1oPlgueaaa9i+fTttdP9EtITawIc//OGhYV6cSA5ODB6t9nktP+fJ+l9Xs5CaUea1yHstC3rSscAJ55n2Gje6Tzb+z2OlWbP/05LjtCOOjYpxQdhxKXe/+Zu/yZ49e37kjHdwE6Al1Abe+MY3yvbt24fUnZaXl5/1KO00w+1TaWO1dev94a+HfDcbqcR7uLS0dML65wJUhxXLRlMFAa6++mrOO+88kiS54ax0coOjJdQR/Lf/9t+GfGezs7O18j0ME9do7uHo++bnaclmUlvTugZO5TyTzrfafmv1bTORbLTAjh07tqH7+WygWfasqkPlzk0r/U/+5E84//zzW5GDCWgJdQTXXnut7N27t67LX15eJknGF5StNpRdi7AmtTX6flJb6znfWsPzcftO6ttq17Qa4a7W942CSBwLCwtnuytnHM0AWkwfU11RL1NV3vrWt0bBnwfOYlc3NFpCHYP77rtPmoGJUaxFOtNah9P4M9dDUqeTsNY67zTnm4b8NxKiFTYYDM5yT848RoNv0WKN2QqdTodf/dVfZe/eva11ugpaQp2Ayy67jKIo6hlCpw2snMyQfy0iPplh9DRkHpdrWbKTjh13rvWcd6MhEsiofuxzAarBfwrU1x+H/gA///M/T7fbba3TNfCdldtxGrF//369+uqrh6pDTrYWftK+J1M/P2ndemc2nVQssNZ1TerHqWoBbASICIPBgG9961tD//ONSP7PBsZZqTGW8NBDD3HRRRdtrH/YBkRroU7AlVdeKS996Utrcei1MM2PbjXL7nS0t9Z51nP+tdpa7f2kNjY6ManqkCD3cwnNKrGmsIuI8P73v7/W522xOtonzhqYmZnRZvpIHAY1VfjjdCbTlJROKtU8Gctv3LppLcrVzrPWPmv1Yz1W++i6swkR4eDBgzz44IMbnvyfTUTLNE1Ttm7dyk033cQll1yyMf5JGxythboGrr76akRkqDY71vzHNJNmWV5crtcqm3TMWm2t5ZtdzYoct+96LM1p/aVr9X0jQCRooS4uLp6w/rmA5sMtRvyLouA3fuM36PV6Z7NrmwrPjW/LKaLX6ylAmqZDCkSj8mzTWokn429dz7Gjy9Hh3DTnmXb7NMv17ns2IBLm/rrzzjtZXl6u10dr7bmEeM3dbpd7772XCy64oOWJKdFaqFPgLW95Sz3Mj6QahVMm5ag2sZbVuFae51p+y7Wsv1Px1Z4uy3Ut/+3ZtlZVta6MG13/XEFME4y+07/927+l2+22AijrQPvkmRKzs7Mah4WRRGPyP4wv0ztVC2691uR6z99sdxof6lr9m/Zck44ZfX+mYa3lxhtvPGF9tPC/0xHvvapy+eWX84UvfIG9e/e2HLEOtBbqlHjXu95Viw/H4WGzmmQ9EfNJ1uek/Sd9nrRuPcc3t603z3Yaa3kaC3vaPj7baGZ0nG0XxNlA/F+JCL//+79PlmVfP9t92mx47n1rTgE7d+7UOCSMc001p45ey+KaZAmuxxqd1jqdtP80/ZnUh2mt4dPl/z3TOHr0KPfcc8+QpfZcsU6bOadXXHEFn/nMZ7j44otbflgnWgt1HbjuuuswxgwN9ZtzT51KlH8U66lKmtY6XK09g8VgCV+JSgcWxePwuKF9VRUV8Iy3MMN+Ho9DxaPiAV8fp9Loh1eE8UEf0ZXX6cZou6rC0WMLgEExqApgEJMABiS+qMyQ6rNJwcZXAsaMMVMMmGRlv6TxslO8Yh+eRTSF1D/ykY+0ZHqSeM5PI70e/NIv/ZKcc845urS0VBNHzEONftVo1UxCc/soEa9mGTUj9aP7N883Gs2v28SAKMaDSKTCSqvACxJZwEjYZgQvJSKKoqCBdEVBxeDUV+epiMkLgYMUJFCxCqip9nMWAVzVp0DbYYn3qAEfrxODVcHoCon4qr2TRTw2Emls28dtYjh45CgYG0jRxfNWxGkV1BMuWMJ2YyGdAVUwHtRBmYcDSx/ui4T7RdINhNsk5NCjcLwY8L66fxLa8hrOUeRQDsL204Rm9kL8TjnneOMb38jOnTtP23mea2gJdZ342Mc+xhve8IZ6yJ/nOZ1OZ8hSHUWTCJvLcfsBJ+yzGkmPku64cwJgPOFttU4Ej8NgK2tz5DhW6tmNQkV3qI5YYF5XyBgQNaAeEYOo4iuyFTWAglo8PpxXQ5vhQI+viMbiw3nC2fFyamTahOiwracCTkCtYWbbVgZupR9hh2peMS0Ro4h4jLGoM5RJF7bv4byrrqQQpeMHHL/rdo7e/q3qoRIuGZuy8wd+mHTPuXgDJQpmZdpyajV8V2WT5FgF8Y4OhifvuoNi/9fBn3wV1+h3I5JpzF6J79/1rnexc+fOXzzpEz3H0RLqOvGa17xGdu7cqQsLC3S73Tp9ClYnzknr4EQCHYdx1umk8407l2jsY7ALlWBtOVMNx33l54SwjWAhGledSzxeFCME68loZe1ZhDCUF4UkmLd4E6y4xCe1NQqgCN6EIXWwdAFjguXKyn1RAacOTOCkU+XTE1wH4nECTgylgT4lbjat+qhgE7wq6sGalI5JyF2BWE9ROIzMQDJL9tJXwHd/N0Zg1vUZPLMAt98NprIw1UIyAxc+n+TyKyhEUTwm6+BdCZWlGLNEcq+oK0jEkiFYD8XhY3DHt4KVepKI35vmnFnAUKntD//wD7Nv3z663e7/OOkTPcfR+lBPAtdff/3QUL+pTrRaJH/aCPnJ+E9XbcsrxitWo380+AejrzRaYUPWrhIIoelPVFOTkviV9uOwWQV8fd5wjHE2HOfjOVeG24pBxeARUFMfW1+LUBH56bNQIdjao4Nnoysvqa4veDA8oo58eZmuMbh+TpakWAW859ILzyfzBR0tMXmOeBeG6ZJAvB7nmE0MHVfQ9Z6uc3SKAV1X0ClKZtSR5QWdMmfGl8xbYRZPUizD0nESqaz7U0Czmm90qussyxAR/vAP/7BNkzpFtDfvJPGyl71M77zzztoSXE3tady69eZxrhXJX7UthUxtIC0reAGRaOnaxr7hh2almlcLUBtI1WrYzyK1ddc8T2nC0nqDievD3oGoCD5Wb8LSIGEIrYE0MeF8tjrWVFavmkC2hlMLTo36UJvwBg4dPsqDjzwUboERcBp8qRAeLCLgfDjYJlAqpBnMzYTnhBD2P3oM8gE4h6lI0JsEerPQ7YVAVDVaQCS0kxgofWgn+lFLB1bCOY4fh6WFUxryN6P440ZJb3/72/l3/+7ftYR6imhv3kniwQcf1O/5nu8BGCLU9RLjtOQbl6ulOU08RsGS1seoGW3P1wSr4jEiGK32kzA0F59gRDHVvr7yFokoahVXdSvRcJ4mqcbPKh7FIKIhwEVjvnujK6QnUhOqSHgAWH/yg6nYrifElmDYl+qBbx88xEMPPRSCQ1AbhCFsFmxaayzOu2hnrwTKkhhUCs4J8YL6suZY50GsoekyRk0gVL/C7qZyb6gRcAXY6uBGf04FpuFeaJbTzs/Pc8stt3DppZe2fHCKaIf8J4lLLrlELrjgAuBEh/96l9Mk04++Vtt3dOkNDJKS3JY441F1hFiRx0mBNzlecrwd4GxBYfLKtwrGWYw3qHicOLwUqDqseqwGWhHvsIR1aBgqi3pEfZU2BYU4XDV89+LroJep3BHGyZBLQTVYr6jDPkul9M2h/9LSAoiPvo7alNX43kKpBYji8QiKRTG2smadC5an96EdWLGwpXlGrV6+slRXXt571PtAprDiPD5dAbnqe9oc8ltreetb30q32z09J3mOo30inQKefvrpZy666KLtJ2t1TpP4vtYx0+zrBHxlmnV88GnGFCcRRYyvh97ehmMSnyBqSDToYJbGo9aR4LFeEA1+N4wLJGkcIhbxaVhqGMbHofxQ/8STaEjBSqj8sxLStbxdsUwNjRxVSTkVNIf8zWXE/ttvY7m/DFioRhze+/ADiVkPIqCKNRZxHo2PhTjkr/hSAEks3jmElUCiMQYfh/sxi6Fqs16aRsea60+DhToua0RVefTRR1sBlNOE1kI9BezevXvH61//+iGLMSr8T5PmNPq+OTvAJCt0PaWbK0n7PvhF1dXDdnUlVsCIok4xmkGRYl2K0YyiyoHMvQcTfKGZpJSFUmIxNsX54PrzAi4xDChRKTHGU6gLPlOfYyiRsiATEHWoOsRSJ/7HpP9g2TaCJyjiNXCMX9uSXw2j/xMRGSoZ7i8vV0apQ/DVkN1j8BWhJSFib0L2gWsynAKuynKgcoU6F3y/aklIsIQhf7DCGz87lcrNUDGxl5VXDAyeBjJt3ofm/fjwhz9cT33S4tTRPpVOA2ZmZhSoI/6qQYS6KIo4S+TYhP6TDVqtx0oNy1DxJCIkkmCxYZDpQzVTkmSIhgqwWB1lK1Ut65NAPBSo82RZFzCUhcOmFrFQ6AA1QRfWlAZvOmh3lqVBn209i19cYi4JubqlqYJQNpCK9YZUTMhVFYs3UvOJFcWor7ytprZcTwZDQanKd1kXQVjD17761bHHBQ9qqJ4KDZR1O4Yq/1+o+dBS8asAGurPwmaPH8kt0PoM1G6CuEE4rTw6FJSKmJub46677mLfvn0tD5wmtBbqacCb3vQmRIQ8z0mSBGstRVGQZdlQmsp6y1FXs2bX05aqYDUllQ7eQV6WIcfUJNhkpiqvBOcKtMgxPsz86XxBmile+0AoTZTCQm5QYymNUGgIPGUuoasZogkD0+HbdoaF+d080xeMncXlih84EgRrQqVVKZ6CsiLZyrvYuB6nWvl6OeW0KUMIztU5ulKVzhrBaUjCr8tiGy8n1QOAEqHEqiFRgyGpqqiqE1T9LzE4kmDRYnB4SilxlS+5+d8K7tHKh1q5VkUbVk7whqy4FE4BzVzX+P35gz/4A7Isa+X5TiPaJ9NpwszMTC3vF4eT1lqMMbVKFZze6H98v5b/NcRUbG2lqKnmDNLKx+k91kAnTfBliUkSXBWcUR8UmNQajGT4PEVtgmaC9yWJQKYe0YICod+Z53B3C9977U9DknL/33+R8tEH2JvnZMUARx6CU1YhteA8BiHRtLIeU5CVggMrEgJcYsde33owLrndJJZjx45x1513rnFw+LFUOQy4iiyHLEuofKON/AHxw7+yMWlbsSiC4SOrktiV406XyWqMYc+ePXzlK1/h4rZm/7SitVBPE975zncCQYUqTVOMMTjnKIqiHvLDiRblNIn502YBjGszVh15YUhusNQw3LcG0sSQmDDjZ6GewpW4ogypTSbBG0uB54jrs7g1Y7BjlsVOSp6k9ZQwTi1LnR5Pbd/J9/6rf82BXedz384LmPuxf87yi/8RjyAsW4MzKSIpiSQYF1O1grUYrVDVynfa6P+p+E8hDtFXAjEhKBceJocOHVohrHiaejn8E/FQycWUoX4/kl60MAnWbHhV9fzj2h09DXXsf3jjaSLSqIYmEq75T//0T5mdnW2t09OMtvT0NOHXf/3XZdu2bRoJNKr7j8v7gxMjrRFNf+toIGW18tNmO2PX20C6VlLK0uOlJMkyHIYFFZa6c/SNwfZSZGmBXWVJ4h2qFm/Ap11Mr0t27j5yY5G+R5b75E8/SSe1qDoWxFDsOZcnels42tvBAsJx0+Xc7381j913N8cOPcmct2S+0hLxDknMcMkpjWv2lY9zzPWfrJUaj6+JTJXDh0d4ZRypiq+D7R5OtDqJ/taKXxuWZcigYDyZNlwGqxLnKZJq83v4ohe9iBe84AXs3r17x6m12mIUrYV6GvFrv/Zr9Zc2ik5Efyqs7kNdb/7quPeT2/c43w85odbiFawN4ijHypxn5ney62d/iavf/zG+973vh9f9b3y7s4WlQlEHSIdF18Vuv5CF3jYOJTMszu2kP7uNfrfLsndBE9amXHjVSzje6dJXcGoZqGWBhMte8X0sz86wqJAXHlsYuqSkKkjphx8qXgOZRjJap894EsblC4sIZfX/gRWDU2gO3QESENOQjKGyHk2I5lfaWaM/qGBgNqroRlpdcREMv2J7sf1TRbRMsyzjD/7gD0iSpLVOnwW0FuppxDve8Q7p9Xo66tNslqVOsiib2yZZYGtZrpP2BzCJpcgdSOXjFWXROfItu9n1j7+f7T/0Ovb35rHJDq74qX/FgUNH6N96Ixw7glHwtofMbGXBeUqTokkHEWHH3nMZPPoAGYIvHYOiCMlG3mNSi7GW0qak55zDEe+Y7WRkCM4NUFeJsFgTUi458QmvccMq17YexBJYvOBFqoBcsiIuVe8pQ4ughZqCmJCsbypZv6okNxQ0aeUz9axUXA1H8VVp6niFE/gCiuUqof/Zs3FEhKuuuoqLLrqotU6fJbSEeprx53/+51x77bV1cGq0fnqt4fk4rIc8Rkk3LA2u9Fib4oqCJDVYScixLCU9Xvy6N/JQt8NSp4PxhmeSgn/0f/yf/NVd+9m+vMCsCJoZ+m6ATXsUBhw5fQrKrEtuUkqfY7xj+cDjbLvocvJul0UtAcGJgd48PpmBYoHSLSOJqfyFgnolAUQVFQ2VVGbl/ohKld9+onU6zX0Jlq5iRELeLIrJOgxKxWHZcuFFeDGhAGJCRoFiKZMMki4v+9//BU9jydMMSTv4ogwFtuJBTZUVEBwAI54BhgkzVIeds7zALb/9dsQVofIsqoGdsP/qiHm10U8+zrL/6Ec/yr59+y6dutEW60JLqKcZr3vd6+Tiiy/Wp556KuR1jkw1fTLkuNq2cfuMs2CpCCnNwr88HxSU3Q70tmF37KFvE4rEkmhCv5jlsWQWXvA9LH71IDOakxfLzGUpS94HxjEOrKEsBJIOWgyYMwmP3fJ1LnnZK1lKS/KsS+5yjAjWKeIcWgywiVD6MMxOTFUDX4mmxMqo4Kf0WCyrYdr7GR9mxiiqQlk4StVgUavgjFQpUlR6qPUZgCjALWATFm2HviQMsh6FKtJNEe+DJS/QNKlNfAiIryL3po7qiwrWJywlg1AR1TjjyaD5XRs39fVP/uRPRmWpB07yFC3WQEuozwI++clP8qpXvQoIkfUsy4DpfvyrBaLGBZuaQSo40U8YPvsgoORyPEF1SmyCNRnkGgSOJJShlnlBkXZZnDuHc17ySo588yu4xQUychgsY9M5ur05ci0w5QDnFMTiS0cmfeax6P33sOXKHRwrchAlcyXFY4+x3ZUk4giS1CnqPeLBGKnq+6tKqXgNakArAetTSO5RgcIVWLGVu8OgoszalMHxY2RSUnohkeDv9LJSASrVRC+qZbBis4Ttx44w0+0xKAfkXoPIf1VSKpoA0rBGffUp6Bq4amYCU12rdSlbiwXQAo1CKrHfcELC/yQ0vxtxOpM4Q28cLb3zne9k165drXj0s4iWUJ8FvOQlL5FzzjlHFxcX6XQ6J+hPjhvur+YXXY1URzF+3zD3VZp08KUGxSQR1OXgc7r9PmlRYrue0oT8yn5ZMDe/jUOqJAJdV+KOHaG7a46FwQDUkRpDxxgWBn16SRcpC7b4Je7667/kedt2cv6efWgnY+vyAgdu+gdm+guYMsepkkgHayyUHpsacl9ULOYRbJWRUCXjo4FXzPrvR4AnSVO8lngfHjBewz156sCjLBxbaCSHRjIfuquVvxSwj/IP99yzsp+p2NeXjQDSaCZ+lRsQc1LrNCsDPgU3CH7U6vQT3MarIg7zYy70qIAQGOFxAAAgAElEQVT0m9/8Zs4555zDrXj0s4uWUJ8lfOUrX+HKK68EqGdHhfFEGXE60oLGtysoGZAgvsQaxVtIyUn7B3nyq19k/o0/xbdzj6SWsr/AFlnmyfvuIClz0lJJyoKlg08js1uxM1sQm5B6jy4do+MLykGo1Z9NhbJ/lCc//sf09pyH3TrPA48foPv0E8yaSpGKYHlG/6B3oMZXeqiguBA80jDcnnRdk9ZNuiexPWsrR4KxuEEfXKUzKpwYUVcIZFhUUTOBxQH1hH1GCWGmioFr8e7RDsTgVNUegK/0AXAr6xgOzrl1jP9jsUL8DjVLod/97ne3gagzgJZQnyVceuml8spXvlJvvvnm2kodl0cKk0l2vZZos83R42NurGiJNSmlOlLxdJaOcNv1n+SVP/CDXGANy5LRLZc4b/kw997wabZrpfYvSn95gaWDj9LZtQcxc9BfZPnbj7HNOMQoKkJZ9NmSWLpHnyYZHCdPUubLgjkrJF4xCNYmDIowBYtJDANf1PMFqlaqVSNE4itHwSTXx+i1DyNolyJB5CWQq+DLgsFyH6oJB6vwTWirOjLklGrgfwWTD9BqEG8SQUtXZQ3Emz5y6mZ+aZXPuqK1OgCS8NGs7NtM8B8a/q+B0fsRrdPrrruuFUA5QzgFz1SLtXD//ffrVVddVeejwollodMs4/v1lKOOLqOYszEGh5A7QRKLsXAwTfFXvoRr/vVbGXS3MYdy+yf+hMe+8Dn29JeYKQtQQ5kajsgATbpYZumIYPKj9KzDJClL/WU6aRfvPZ0kPEScKiZJg+BJUdJzQidJGTiPpAmkFucGiAn6okAlPg1C8HmqVL7INe7P6LomPJUIeCXoLGooigG3fvNWaPqhawYbtjKrufSGrMdArK7udTi+IQgdh/fx84TUsCEJwJGiglofduxVjUcMgHrv6XQ63HXXXVxyySXtb/0MoLVQn0Vceumlsm/fPj169OjEZP5p8klHt6/XJSCECDRG8ao47+lm85RljvicrQaeufOb/PU7/j3M7IKFBdJigR3FItIvkCRBUYx3zFtwPmiglkXJbJaxXCwghSfpZKhzGGMpnENtRiEGZyylhU7awfdLnAeThtlMS+dQA5kCaE3+Rk3lBkhOqJRaDZP2CdOxGLyGLFBrGon7UxQLxKC5sUHn1FZ2pEiCV7+SvK8rCv/jWLBJpieUmY7BUG3/mr2smmqkS/3Wb/0WvV5vyiNbnCrap9YZQBROiT/2oijo9Xr15H6j81GNEsKQpbkOC3flGK2GrmHYG2Zs6gaNVAqc8RRJl74aSpORJQlpvkTmHL20g8vzoE6fhizJZZOx0JtnEU/H5PRcQa8o6SiIaBXJTjmeZMxedAVLeBIp8UcOMXPkOD1XIH4QNFGr6bg7mEqqL5RHCQZfJdMHY8+Pvf5x92o86RqMJLgyryLgBf1+nzvvvLMiRIJ/dBy5SmN9FJjyK8Ej05CEqtL3qwNX5gSQatpogUqOkGpKmKoR36TO6rTUnpCml3Ys4nU3A6Bbtmzh9ttvb8WjzyDa0tMzgLe+9a11cMAYQ6fTqQNV0bc6qYx0FONKT9cqywxBKaqochxLOlSDeEfiDL2iYFbA2pRFLxzvbKE/N89CXiDGgDX0C8/AdHgm7bHnNdfwI297B6/6lbfzzI7zWe7sYOATShdUrJYTw9y+CziadFjsbWehs4Viy3aKLVtZthaSUP8ffKYhwT2mSQG4QDWNa1rJ453mPo2D15IkSVAN9/7gwYNBQX+cRWsqKRWlEnk2YG3wcVZ+TjFVoajE0b02lVMb/W5okYpQEsSzFaXK1arJUxovqtZGWxyHGJCy1tajmA996EOt7/QMo31ynSFs3bpV8zyvrSfvfa1KNSrvdzJW6KRjVz6blfcm1OGIhMRygFIcR2a3MLjghZx39Ws4dvQQC1/5ElsOP8XucoAoLNmEb2c9znnVNWx//Y9xdGYeq55dx45xy+/9LrueeYJZPU7uByzOzNLddzHPMIfL5hDj6PmSmYXD+KceY7suYwfLkATdUOsyBE9Sqfh7KyGIpEnjGif7UVe7P1BpnwJWTJAdtJZbb72V/qAgSQzOrZSG1mmv2hxyV8EjSsRS5fWGSf+iX9RXFU4rw/MVIrQ26K7G7AZrE5zLa/aUqh51+PEwIgU4IlA9iqaI9O7du/nGN77B+eef3/7GzyBaC/UM4Sd+4ifqL7uI1Ir+zrmhIT+sboWO22e1Y0c/S7S4GhPl5cayNDuPXvx8XvOOd7Hj9W/ieT/5c7zq3b9Jf+/5PO0NfYUlD25mjou+/1UcnN/OgZktPJZt5en5vfzgz/8ST5sufRWcK8hdiWRJZREqTg2FsRSdHkWng/NVf+IUJ0A15V89+8dw34dkSdZ9X0Q0kJorQrDMe/qDkPtZOr+ikhcj7bpiuBoJw/RoORoEF7tjQuasrw4UwnHhpfUH51xo1FrAV2QaL7RuqoFGmtUUlNisjlJVPvjBDzI/P//xtY9scTrREuoZwgc+8AHJsoyyLOuhWZIE66s5l1TENEPZSUP+cW1JNbyHEOG23mA9CCX9xHA8m+OqN7+FR7ft5KG5LTy2bStP7drLP/7FX+X4jr0sZSmSJWA6aG8Ly2Xw6ontsCQpR3fthb3n0TdCr5OSOEVyh6BIxZiFU0pjsJ0epSdULkElkhJQFU+iGlOAhnM0xz1s4vtJ21a2hxQnk1jEJhVTxp9AJLB6/I7XcOZSwVEAZYj2NzICnLF4EUoRSlFKAm8aDWWnUr2SJAnE6VxwESgkHoxKqBajbnJ42K/N2VEnI5JpkiR893d/N1dddRXz8/M/uepBLU47WkI9g/jP//k/1z6uaJ02h/uwto90Gst07LFSTekcCcpXgSoczhjIevQu/C6eybosJB2esV0OZlvIn/dC2LKTBUxFJAaJDwMT/HN9Izwllot+8BpyMWihJN5jixKrHu/LqtDIEYNDYZy7km+qqiENSUxVghpThmKfp7NKxwmCAFUFkWJtioqljKKm3oAkYJOwrF/Bbxzm0AuarSIh2h9ug4Cp9s06kPWg04Osg6YpLk1xSQdNeqjtUHqBqgTZ+5CGpYRqsNFwVPPqZIqhPlCn5ZVlyR/90R8xMzPz9TUPanHa0RLqGcQv//IvS7fbrX/oSZLQ6/VW1UudtG5acgkI6vyeYmUupQpGq/1KwAsWA6RkdpZFZng47bHrJ/8Fhe2EVKNyiXJpgcQDpcP5Pj5V8m6XftZBTYdEEpK8oFw8jvclWZYAJQlKqoIWHjTBI6F2vZGQXiUjVUGqyjUhK6Q66b6s9UAxJkHE4lTw3nB8YTmQYZIFYiQBScHYkAlhU0g7IEllqWrtXw1EmkE6B1t2wdwu2Lo7vLZXr22N91t3wsxs6FinM2T9eoLGahRmCdOemPoBCNMFOmLGyOWXX86FF17Ijh07XjbFYS1OM9o81DOM97znPfzyL/8yQD1FSvQzTpOTerI1/nWZJ1ppgob5TRFb5agakjJHqhB2kUPPduknBec/71IOGosMlsAsUj71KN0de0lMB+mm6GBA6grcYAnvoRx4ZrOMYwcPMbdlNwtLi1gjpKr0Ss/S8gJhKuuob29o6oWKxMoo0BiI0hVyXG/prqqipWJNQukckqTkwNZzz0eswVVzaznnSW2C9w6kxBUDlg4dhrxAbHBNGGvDCNwk7P1H/5hLfuCHWOr0GBip07tMbVUa0IzZok/6xAP8w//8ozDvdlVzr2XI/Gjm84cLbBQHTIl43R/5yEfYs2fPj0x/ZIvTiZZQzzB+4Rd+Qbrdbp2XmiTJCTNSjovgN7dNWwAQ30P8sVc5qKIoOaDBMtIC+guweBTjdkLWJTUpMnBsEWVw5GlQT7co2Okdt/4//5MX/8aLOOoGlGVC1ym7lg7zzb+5njlXImJJvdIrCwYPPsie8y9g2QppZll65gDdcoFEC/BKajpBsco4MFGl3wZL2gSLzQDWBF3UJlbL1x29DzbMm01iDE6EhbJkkIZhspeQ8CQSauudgmQmpIvlh0FtNXOBx4vUeVLLYjgyM8uhpBusW1aG6GocnqAm5USYNzaO80HBlw4L2MoR4jVapwwRaTSKm+XFUUlqyLJX5bWvfS27d+8mSZIbJn45WjyraAn1LGD//v1ceeWVQz+S9dbzr2aNjVsv8ZcJ1Ok46jFAog7KZW761MfZ9wtvpZ/N0i9hVmD70mH2/79/RqIlxpfMG8Py4hFu+cD7+N43/2vyvE9W9NE7b4FDj9LzOaIlRV4y151Bl4+x/NiD9I1hUUs6DMhQjPdkSYorFWMtTkIU3KitouGC0VCDr+HC0AbTjLPMV9M18LJS5IA6lpcWGPiKAI0QKpwEnMFrifPB/4t6LAYvJSoShFTEgCjFscM88/CDLHRnES8N/QGPs8GNk7oUWwxwTz8JSdTnk+BH1hIfJqNe8ZLG/1Md9zKNDWESyKIohqL68Tp/93d/l/POO68Vjz6LaAn1LOCyyy6Tyy67TB999FGAWrdy0pB2bfGPycQbtgW5PtQjpKAGSwdQ1BbMlDmpHuPQ336WrT/yBuylPQ4lM8yXObsO3A93fotOvoQkIZdyZvkY9p5v8K3/9O/p7d4HzlMceIA94kjKAdYEU8uVOWniUL9EV5PQP18irsTYjLz0qDfYym8YpOsqzdJKZi8jw0slXrKKM3G1BwxGcKYMxafqcQPH0refAq/oSAQ9jwIm1lNpUK2ISkmc6sSDX2Jp/80s3XN3JfPfUNgXD6YAhWUvHNN4jAsRKa949VUVlFRJ/o2TTbg+gKIohizUOLvuz/7szzI/P4+04tFnFW3S71nCDTfcoD/2Yz92gpXRfL/epP7JyypTUixWU2KZpAiIKWrCWpzdxpFknuyfvInv+oEfwh8+yF3v+21ml4/SWT7GXJKihccYQApKI/jOPGXh6fgBxhdhRgCv4MOQ2RnPwCYsao8yybCJ0jVCZ3mJTumxEoob6sx2gjhK7LutKpnUrEwzve77YaSeUiUDXO646ZZvVZZgLNKvGqjH2NVqH5L3gTCFSgxySUin0kaMPhiWK/5goNJzJQSykgRKh1TELqooripDjQc0+qErFqoQHgzjlPiNMTzwwAOcf/75P9IO988uWkI9i9i5c6ceP378hPLAaYhidN1a+1aRJ1IfLEBnQhQ5KPUHKuhjWc5mKTuzlD4DdWwpF+hR0KvU/DPpYdKE0i9T4PE+Q8TSTQzWeJbLJZIkQVyY+RURnkrnOL7nu7j49W9iZmaGOz5/PTMP3sHufJGOGrQI9fWhj2W4Hk0qYo2EN3x9k3ULxpNtLCToWkN/Oedbd9xRHbUi/KyRxGSF4AwGrfNEq3JUBBWHV49UFuaqOnsCIknF3b7i68q69EV4YIw7UId/oHGPUR/qr//6r/O2t73tcKt3evbREupZxtzcnOZ5Xif5r8f6iu/XstBCOk6wdVJvQTzOamWZhih/FHQ2iaXwCc6GdCIxDquOjhZQgiWj9B7pQj9JWM7m0GwG9R4GfWYYkBYD5pKEfp6TJxlPbTuHH3rP+znQ24aRhO2D4xz4iw/z1Bc/y55ykc6gjyFYoGpC5D/RtKYvrfo57pqntdaNCS4Vg3Dk0DM8+ODDdTJZc8hfU7hUxqoxqIPEpDjvKotR8ZUotBUTxFWaAaXhRFLQKHJi6KQd8iKvtQpEdCKZxsPjx3jdzbmjsizj3nvvbQVQNghaH+pZxjXXXMPnPve5idtP1X8KYdgpGASPN2V1TEiZ8j64AFKtRFq8oUxTjnV6OCx4pYNnbnCc+SyhLDx0LEtScqjT4fk/8dMsbdmFlZT06GEeuP4v2HLkaTolSDbDIWu57PU/xoG5rRzobUNcwrFkhnOv/XkePnSEp27+PBcYV5OKeIupp+ZTvBGmTZdeLUAXq7GcKEeOH6mG2hrSoXwgTpzHkmDxqAoljpj+GicVjK6DUMFURedjWElhVEdVNGhRJaI4dQyKZeKUf4qiahBjwwMp3IATovxNRA2IOM3Ju9/97vph3OLso/1PnGX8xV/8RZ1GtVZO6TRpU5Mi38N7e0QNogavEoa1qqgx9G3CYRJeeM3rSHbsRlR5+t67eeaWr6H9JWYSQ9+XDHpd9n3vSzm+cw9PprNYOsyblCt/9MfZ/2cfZXZpkaL0lFu2sueqF3OPTVjMuogz+DSjj/D8N/5zHr7rFsojC1jrECxWDUKCRhV9JVYfrHofTwhEcWImQKxOWuov1zoGWunxheF4QpgXIFihoZFKjaouN5UVkerYPyDKo9SEKAyRq68yKhwrSlrBFWBWyBROZNAxiIUgxhh++qd/mnPPPbe1TjcI2kqpDYDv//7vD37NyuqIKTFROCVK/62GcZbs+Iorh1GwarClkHiD+FCfNLDCMzZj58teweDcy3ikt42Htm2Fq76HrS9+Gcc7Xfo4fGJYSDJmzr8YZzLwQX5pOUk4tGUHXHwpywk4q2CUQZZWkfsCoyWFevpzsyTnXoDrzOLJUE3RKnlfvIZc1Ir0R+Z1PuG6V6vhr9dLGJZ771leXlx5wHhPPbGeBGm9Wns0DuOb87EEk5RwaeG+hSCUR06QBfAYSoyE5K+CSte0EfRqkmlYbRqpUit9MMac8CD94Ac/2MrzbTC0hLoB8PnPf168D0Ecay1lWZKmaZ1zOG5Itx61peF9wxQoEQYH4nDG08fBTI+9L7icIybjeDbDse4sz2Rdet/1fIr57ZQmC1NRkzC7bRdOLYrgXElhDMc7Xc5/8UtYFhBTgpaYxQUSE0jBVMn6i4VSZh2SmhAMprLovPhKM5TKV7n2dY4rxx3SQBBwWj2sXLRPT7hTgOCiBF8zd1cERDAqJAiG4JoQkdpPWkurjvg/vfqVSP6EZ0Nc3RRJWTk39YM2FoNcfPHFvPrVr26t0w2GllA3CKIIdUzaHgwG9ftJWJVARtYFI8vgSfBiKHE4m1PKAJUy/NiTFAbL2G6GIw8/4FzRZIb+/FbYuYfSdZGiAzm4wlOUjiRLEWswnZRFD8zMUlhPRxxblo5z219+CpPnFM5TOKrpjh0JJfhlEhzGhci+CpTGU9qC0hZDdfyTHiJrIZCphPxbb1ZIy4RoexXxCfsaXx8DFadp9cdHuWepovsr0XmbmjoRQaoRgNG0Ung1w2lRTQqUlaBYLA4+QQxFhy3Usix5z3vew44dO1p5vg2GllA3CN773vdKt9utPydJUpelNnUu1xIBmQSPgjZk8STI0MVSSadhrimsJXclSZYFq0gyShci+ntfeDklSqpKJsKRRx5mxgiuCBqjeZ43wkmOfOk4W4s+i3d8k/OWj7Gzv8Ccd6RFwTbXZ7Z/DBksVSqo4Rq8+NoqrXveyOtcL5k223E4ji8tBiFoifM0xdykmD4VcqRUBGyKUilPVXmkpSTkWHJSnKRBpcoYnK/a8zHLtwo6AbUvYJwt2fQmjK5ubmtIPO7du5dXvvKVrTzfBkRLqBsIP/MzP0O326WoCCpOAzzOTzhJcWo1f6LiAoE2Zv40ajC+CsNUunIWYblf4k1VBOCFvPT05mbQZEDKEluWjvHUrd8gWz5G6gYYY0gko1t6unmOeM+WXofUOeaOHeWrv/V/ccXBR9i1fJwdLufcY4c4fuvNSH+J3JWNAI7HqidzKbZMwmypMkyqk651tZeYkOr09NHD4VRB1iAk2xuo9QJVAwFmXUhnwM5BNh+Up7IUein0OtDtBOWotFtt64aXUFWKVSn7pnqFf8BwWtVQND+I1fjh1eG+6PBsDh//+MfZt29fW2K6AdFG+TcQ3ve+90mWZRo1UyPicA/WTpEah3BM/FSRk1bDXS8hHqPQNYZBP+eJO+9m/iWvwBvo5zlda5jzjodu/yY9LUlMSbdUlo8cIr//Ts574YtYEIMb5Oxxnru/8DfMliVaOnzu2DE7w+Dhe/ny71zH8974M+w8dx9H77mNBz75YbYuh0KAMK2ox3gNIi5VupFqVdmpOpzkPqVQTHN/L2HmgWT7LlxlBYdy2OCfNICWniLrMvfdV+K6c2iZBL+rdahxFbEb0LRyo5RYVax3+IPfZvGWm3A+imJPzi8di0YywQmbqmt9+ctfzmWXXdaWmG5QtIS6wXDjjTfyile8ohYMVtWhcsNREpkk59fc12AxPpRfOhsI1XqCCwCDqOB9QeqEXSQc/MbNPO/SF7A453BpRlrm7Bgs8e0HH6DjQIvgO8wGizz9hc8xe+AhnveKV5MYy6N/9wVmD9zDNi+oM9g0zDS6s1TKRx/gsT/8bR4xFgZLbMMzr4r1oFogBN+jRwLhGUGcYERCehGTxVDWysPFWUgStDeHNQmZCE6ryfJUEQlTbOMF5ubY9pofor9lB0ZDqpeq4o1DpQRRpMrf9VUkP/MF/btuZ/G22/H945WSVNA5raGm8VCo3Dh1JxkpizL16ibe9773rfENanE20RLqBsNLXvIS2bNnjx49erSeFbVpoUZMSmJfbZ+4bvRXGpWYjHP4wQIzXnjgM3/BRT/8TzDbt9FxJQ9/6QtkC4skgwJjE6xAD7CD4wzuvZ1bH3gQjGV7vsDWvI94Jct69PMB1ipdPGbpGHMq1bQj4bpEFee1nolEg0Q+GljwRJ6ZQKZrKU8ZG2Z8NcagrkAlnBsxGEt9FpsklEXBTJYycHmI5KutAlrgqxQqqyWKoTAEC1WDlioalaTy2jUbswCa1zGkMDUFVJWXvvSl7N27l71797aR/Q2K9h+zAfGhD31I3/KWt9RkYK0dIsdpyy2H3AbYOhdTRKuyTlOJTQ+35UzKcppRJAnOWBKEtCjpek/Xlwhl0Cq1UKoPgZukGyayK47TTUwQR8EiXirC1pV6fNMoHdWRPivVfiYc07jOUxGJQSyFwh333BnG1SaOr6v3IlWSqIXeDOzYFpZqK59DJXqiMXk/qkpBnFKGo0fh0CFkMMBSIgQL1Y8Zxjeyq+p+qjBSNKBDMn0PP/wwe/bs+cVut/s/TmyxxUZAa6FuQPzcz/2czM7OakyfguG0mWkqpUbfe4LKUSxDjZlCvqoNarZnfcGWvESKuD4ERkSkEkRWVEtcqXQ6PfokLNiM3Gb47gyZUTqLx5m3QurCjKFOy5W0SgUmuSqqqiSRaNqdeG3TVJONwntPv78MeQ7qhoqfECpzsQoADfpw7DDNgqnh+G0sE21Qopigxl/Hn8KU0nFAMMqpJ3xWrVc2RyRxptw3v/nNWGtpyXRjo7VQNygefvhhfcELXgBQD/2nEUIZt5xmn9F81xO2i4bEezWoESR15OqwZDyZzqJXvJTLf/rn6e7Yw9O338qBD/0+W9wC3X6fjiuxlfU5yYJe77WMkua4dlf2MVhJOHjwII89/mjIdqjISwVipZSRIG6tdapWJM6VfZp5o6GBuEzqSica4ilUxq9OMb6P/+faTVFZp9ZabrvtNq644or297rB0aZNbVBcdNFFcuGFFw7locIaaVETEv3H7TNu/eRqo5BcH4fgdX9MwlE16N4L+b63v4ujl7+Yx/Z+F7Ov/lF+8Lr/yvHOFo4hiDVD51mtL6sVK0xzHeOOEfVYlP7iQiDZmkCTauheWfEa0soMHqlq762G6VNEPWhJFEWJ+fe2SuLPoKbSOo9WYn8mdrVGlOQbGlVUQij/8l/+S3bt2nV47VZanG20hLqB8Wd/9mekabpmMvvJJLtPQ75NeML8U94KahVXeAYkLM1uZd9rXsuhzjyLcztYSjOeTDIeuuC72PEzv0DZm8OU5dDoeNz51kOQ64WKp6TP8cERvC/H7KBgHCIlnjAtSTArQ4ltkI+hLusPbpMEIcWT4jHkEPSrpKxUqRsZ/lMgPqSivzyOGJxz/Mf/+B/ZtWtXO4vpJkBLqBsYL3rRi+R5z3veushvWgtvmmNWEKw5p55CSzAGgw01/Z1Zzv/eF7OQpBx3JS419LsdDmRbuPDV/wSHwdl0aPqStQoR1urzNBb46DannsGgXLEaaUynLb4a6g+3E+Y5sAjJSETe1G3UefqigUiFlV9VvcPaPzNVpdPp1NNBR4J973vfy5YtWw63eaebAy2hbnDs379fmuk/EeOG6GsNj9drlTb382gIdktIbTImAQ3TnRSuDLX5qVJQUKjHJjMslIb00ss5ai35hGsY7ce0JDp63ZOuP6wXxCeor4JOVS6Wxgh/hNSj/5Xj8RSiVZCpwZFSghRh7ihTAg60ql4tCTO6eINoio0VZ6sgBiBj/jHA9u3b+fEf/3FaJf7Ng5ZQNwF+9Ed/tH6/ll90Wh/ltIhEFer6kyBTXZRhnvvSQ95n6eknEM3xWoAE1ay88IjJ2Lp9Jyor5ZMnQ+an0vf6vTS+6kPN+KG3MdgeVKSUqGBazxRb6acCQ8N5WXHFVkn9UqWmKb4Sp56mr9FCBbjuuuvo9XprHtti46Al1E2Aj3zkIz8CDPnWmlH/JnE0U5HGLSNGLbtxr2abBosWJcYriYQk97TsM+sH3PN3nyfzOdYKCYq6ApMa1Ofo8WPMlg7j3VD/JvVjFONSoNZyXzQj/XHfQdEH8XVgzWiVdeAFozYoRDVJl4pMo9ZpHMtLFAGocm01VKHFoL4CJVASJuAzlJX4y+phflUdkmns9Xr8s3/2z9ok/k2GllA3AZIkueFNb3oTxhjyPAeoh4ZRR/VUIubjjhndP0zlIWFSPy0wFrrGYhaP4u+5g/mnn2DXscPMLS0yVyyzY/kIe/yAQ3fsJ3GBVEZJc5rh/WrHTOprFOqutwk888xBIBY1rITpQ9woWKBOK5FoU0XmtRI6UUKqlSiow1TrrLXYqiQWoi+VYct14p0eRpTliw/Mj370o8zPz7fyfJsM7dNvE6HX62nMS3TOkSRJrZnaFFQZl98Z30/K/VxtvagBB8aApI6yLOiYDpJ2Oe5KDne7sH0v1/yn9/D0jnPxWcrWhaPc9vE/YXDD/2xnzPoAACAASURBVMeu5aPghy3H9eTMTuprc6mqQ3mcSZIgUk1oZ5R7772bfOBWhvuxgKoW2mNlhj4rGBfmeQo2d3CMKpAY6nmmavmTUcO2Wsb41ASZlBMQ806vuOIKPve5z7UT721CtP+wTYT//t//u/7Kr/wKWaVVqqqkaXqCeMro+2mT5CetD5PmWVQdkjqcujDcNQneWIq0wxFN0K07SH/gVaRzcyzdcwfcdxfzS8eZy/tYMWuWx6430b+5fyTUaKlGq905B4nlzjtvC9/2cqXqVGJZqCRgJWib2gRMCqUEDVRHIFpdhhRYGoBzVY5qSLIaItVG5CrevdCj6Sr3RYQ///M/53Wve11bYroJ0RLqJkOv19OyLMmyjLIscc7R7XanqqSK76e1WpvLxKSUZVm5EEOtZrRelQSxGUsoS90En1ls7shcyawRktJVyfKTLcwmast4HQTbTIgPU62Y+qHjOxkHjh2lKAoGjz+NdXltjJaSBT3T3iwv+cVf4tjMPIOki5oUkfCwcjjElPSKPucsLnHj7/3f0F/G6gBTeUvLIUJdUYqalkzjUH9mZoZ77rmH8847r/1tbkK0PtRNhuuuu64e6idJQrfbrYWoYbqI/3qS6iMKl+OND+lDfoW4rBisc2QuZ75Y5rx8gT1HD7G7yJktC0xZEqcwGT3fyWQkTPIHj5bONueuRw1OLaU3le5qw5JQrXLBBN+dYdDpstjpsdjpcSSxHEksy7MzHO/2WOr0KLo9MBkkKdqYAmU459TUegkhj2rN21tXxH3jG9+g2+1+fe0jWmxEtOIomwxve9vbZH5+Xp1z5HlOlmX1tmilNa21uH7SPuP2HbddrAlz1wN4j3UCzuMsqDV4PDa15HmYi0q8kNoMny+TppZRbmyedxJxTurnuG3RIo3E2syIGCwv0vFhNtXlJEELV89uGszmEooB80vHyQws5stIklJqCOqXix4xSi8v2ZIvgfbB91FxuJGur+T1+6DY3yTTVZ5bIsI//af/lJmZGXbs2NFWRW1StMOKTYgvfvGL+trXvrYOujTl/aYRERm3z2piIwCYkPgj6rBiSKWa78pY1BpEw5TXuJLEZngJVnQ3NXgtEZOc0PZ6z1/vr+P9rdGPKiJ10M6XjsPHjvPkkwdDVM0VQBkqS2MDJgGbBf9pWvlRNWb5K/XUKACDARQFuAIRjzqPMZUvVsHWg76qon/UtzoBIsLNN9/MFVdc8dszMzNvn7xni42MllA3KXbv3q1Hjx4lSRLKsqzTqE7WR7rWPiJBr7P2g1bLarQcZgIdOi4Gofyq51mL9OM5fONYu8o1BIIzIb1LBIvw6CNPcHhhuWrdETJFWXFyCoAJhGulCs2vFCOEfaMoSqV9qmNmJ4UTDVJpfjhxOpvY72uuuYYPfvCDnH/++e1vchOj/edtUnz605/Wn/qpn8I5NxTdXivVaHT9uOXoMf9/e+ceJEV1xf/vvd09M7vLLrDs8nDlJaAGjGv9sIRQSqLBR/nzTRQMiQEjgq8yZVmpVEpNqTHGR0yMqIgiEUXRJEarTJlU8tOkKgalFAR5RCxAhEQisgYEdh7d9/z+6Ll3emZ7Znr2wcLM+VhTPT19+3YP7pw+9zwr9b73xTV8we0Xxyv1wMgJdr+TqgWBbds+xqGUm3MQaeGY8xrl5F4XiZjTOHuCFqRB84bjOCbs7eOPP8aoUaP493iUw06po5QLL7xQtLS0mOVtGFHTNqPWAOgJxfPsoyUbSAVYnr8Veptdjesq90QEyJzWrMivkHUonczm3ru5DqRATqia5b+ERTYE2X7sLZDrWtpDUResc6ozojIZPyX1xhtv7OJUY45O+Il4lJNIJPIkUbmwpN7SMCuZu9z5Zc0N1HWZHzQBaPuqAgWKi2QD/KWFTZv/VfjPFljq5xDZTqt6fgp66MvYQMuhnWeF+47jYMuWLRg7diz/FqsAfiwe5eiq/sXSMCulu7n/YedWkuJabg4//TUQJhUyJl9jlRDCgqsbOlHuuAgK04CgJKGg/6OI4U5R0VEHhS3Cb7zxxrxIDebohp+KRzlbt26lk08+2Sz7u2tD7ammGXXeUvulzrWzf6pU7PpZLTXYewtS4NChQ9j1yU6Q0nn72V582aW+MY1mpxE5+WvMAT3VTkuxc+dOTjGtIlhDPcoZN26cmDJlSuixSmyo3dU0i12v2GfFNNNy9+xmOwYY+ygob5unnSoy7w9+eQhEftRBfgk+XYZP96+WAPl7fp1+v72JiJqIXwYhRBc76dKlS/MqTDFHP/xkrBLi8bivVPVh2FSx4+XOCRsXHFMubArQYaHh9lUhBKAoT2AJIaBA2Lnz3+js7IT2+gMA6ZqmBdqnQE6LRfZjVWEufhSEEGhtbcXbb7+N4447jn+DVQRrqFXC+eefX1TbC3qYg8fCNMRiRPXId+fcYp+Fac4KgJfd+o6jXOaUEb5EICEhLQedyU5A+qonWdnQUqGy5Qh0qIAfSiWkP6dfbF/CE/BjU3sR7Yy699570djYyI33qgx+OlYR8XicLMsygf62bSOVSuUtK4tplYXaXamxeltO8yw3R6l5isWi+ppn7nPj/Sc/BlWHTglpg2yJj/61GdmBgOfBtIRWErBtACL7K1B+sL6nIMjLxaOa/Pyex6Hq+gLxeBzbtm1DW1sb//6qDNZQq4jrrrvOBPoDQDKZ7OJV1nRZUpewoQaptOBKFM22VIRC0IMvFfylPQBB1MXTr0AQlg0IC64gJN0MIP2GJHBtgOoAxAA7AVhxQNYDjUOBxBCgYQgQbwSEnWcz9W2qqseah64GJqXEe++9h7q6Oi6AUoXwE7LKsG2bdC3QYCtiraX2JJ60r8/V+13GZONQtXaqg/fzogCkzhaTyJDy211LgX1fHoS0YrBkAq6r/CaCAvDqGjH65MloPuEkJO0YlPQw2O3EP++7BzL1JZRNvvKaqaxIdDF0ivBJJ52EP/7xjxg9ejT/9qoQ1lCrjCeffLKLJhhMTS3UHMNsqVFiQsO2lVCpTbXYOYIUBCl4Gb82rBDC73klHaTTfstrFwIHXIW07cCL1yFTVw8Vi2HApEn4vHEQdtc3Ym/DQHRYCUDEQbB1hxS/sasle+zo1yUWH3nkERamVQzHbFQZ8+bNE42NjZROp5FOp1FfX49MJhO67C8kWA/AxHKGjAkeLxxX7HjYfMWuUdHx7HvdFka5HhQI0rKRTqagiKCyTn3P9eBlXMB2AAgc6PgMqXgK0nGQVil4qZRfRSqbi0oEQAi/DkoPkVJi0qRJGD9+fM8nY45Y+ElZhTz99NO0cOFCv51zOg3Hccyxvli2FzvWnTmLfSYhTPB+fscAQAoBmc29l8KGBwIsG9t3fgI3k4ZxOAEALP98YRnB6tsUCPBcoDMDoVyIbPFoKWJQpJCLK+g+mzdvxtixY7m1SRXDGmoVcvXVV4thw4bRF198YRxUYRpjkKgabCntNTim2Psoc4TOJQBCdp8IwVO1ycIS0g8vVQQlXLiplK9mipxAFVKBXAAkITJpEHnICz5VgH8JAQEbIAUr2xe1J8v+Sy+9FE1NTWBhWt2wDbVKeeGFF+A4Tl5Kqg7b0cK00LZaLGMqjKhjy9lXI8elinwNUZCE8AQskpAkYQkbnkdwPS8XoqQ8aO3UpJRm8/gFFCzyYAE5jxPl5gZ8Ae7HpVJFwjRXoMXHcRzceeedGDZs2NkVTMMchbBArVLOOussESzG4WUFjZTSCNdMJpMnVIsRNQGgXEhVqW2xa/hB+v57JYrPoYig1VYlFDwvg5xnKauEBoqi6CTUHLm01JzYVgWv0uhICv3g0q2szznnHAwZMgS2bf+17CTMUQ3bUKuY1atX0/Tp0+G6LuLxuN/BM6uxxuNxv4up6JpjXswOWnisJ9tS1ymWdqoD+nWR6bBWKP6LcPDgQXz66X/NMd3llIQfBCUoEA6lpxAoSEXNEVVDDQbwa3bt2sWV+GsE1lCrmNNOO020t7cjFoshlUrB8zzjoHJd1/Su16mpYcv3Ykv7UoH8UT4vPFbqGrrwiUV+QL85XyCvWIofn6rgkUJnKpknEX0bqAxkPgV0TirYCv/VHZtpUDsFgLvuuquLCYCpXvipWeXs2bOno62tbbC2p2qNVC/388rdZempp75cimmlcwoCJElI4QtMXcIvGODvIdcKhoiwe/d/kO7MoEsh6awGWviHnxe8H/arKCNdLcsyDybtdKurq8OGDRswbtw4/p3VCKyhVjmtra3NEyZMQCqVghAC6XQaSinEYjE/bjPQelkTpqGGUYk2Wng8qkZrtNTse1GgpQaLTgfHuym3IhWzp6Gm+mEVjKC47bbb0NDQ0MOZmaMJfnLWAB0dHe+2tbVNdl3XNIbTAjXYzz6q5hg2LsqYcpprqTkkCs6VXeeS2X7OQghs274te14RzTO4vC8kaxLIH15a5Op/x6BA5eLRtQdrqDVAc3PzqRdddBEAGOHpeV6XmNSoKaSl7K2l3pfTSku9V9kCUZ6g/M6kWbSdlUhACAu+CLagYMMPt9ZtoXMvAXTVYo0w9cf4/5XXPAodUa+88kpeQgVTG/DTs4ZoaGigVCqVF0plWZax/5XTRsM+Oxx2VRIASR3UL/1CKZSzr/pjfcePtBwc7DyE3Z/u9g9YEvBMtH7W3U+Q5ItbAuUF7QvktNog5TTUIEOGDMHatWu5LXQNwhpqDTFz5kzjuBFCwLZtSCmRTqfzxhXTEkt9FuVY2NhKtGOi/JJ9un004Atdl4C0UshIAVFfDzGgAWioBxobgYYBQFMjhp54ApCIZyNLBSTsvB+Br436R0m/RHRhKoTAokWL0NLScl/kk5iqgZ+gNUYikSBdgFov/bU9Fej9+NIoYyLZW2UuhEpmNVX/mDS5+RlSEDEHh9w0Up6CCwFhSbgiW32/Lo5vnnc2/t+SpUCnC7h+pSpCtvA0FOysjDZaq5a2gfjUYliWhSFDhmDNmjUcd1qjsIZaY9x///3GMaWUgmVZeRpquaymUuMqiUWN8j5vXzfeQ4jZkyhbEEUCQvgdC2wb0rb8FiaWBGwHA5oGoq6u3m99AgCWFUgqDdFCKxCJ+uH02muvoamp6bfRz2SqCX6K1iADBgwg13VNoH/QfqqpxMtfys7aG1oqgC5efYlADykBeCRgOTZcBXy2dy9gSXiUPU8JQNgYMHAgBrU2Y9f77wOuypoP/Hx/vay3tPwG8p1fESwZU6dOxcqVKzFmzBj+XdUorKHWID/5yU9MFf90Om08/VFto4XaaNi55bKgys1ZeLzYORpL+BosZdLwDn4Jb99+4Mv9wP4vgS8PAPv248AnO7Fr7fsAKYA8EHnZIn057TRbTsWXnxR4ReBXv/oVhg8fviDaaKYa4SdpjdLQ0ECZTCYvDlVTieYYNY60J15+AJCwCj7PatVCgYBsHK2Fzs5O/Pe//0VOVyioUyABUrliJ1JKKFK5X0IgNRXQ4VOqbCvpM844AytWrGDPfo3DGmqN8vLLLxvNVAhhbJSCkOc9DxIljjTK58HjpWywYdeRBAiV7+3340kJrpuG52Ugsg4mEXwJD5ZFgHKz+/6cSgvJUE00XCiHsXz5chamDAvUWuXcc88Vo0YdC6Vc2JaABQtC+fVFHcuC52VAQvmRmhWIie4K1zCCGqqfw6+gsi9PC10loMh/CctGMp0xWVH+1l/SE5GfzICs7Az6ooLClPSH+aFTWjvV9xQseDJ79mzE4/GKvx9TffATtYbZtGkD/Z/JpyCdcuHYDQARbAEQPJAFeKT8ilSegpS55g49KXQSNrYSp5Y5ng3sN8I+67T67549yCSTuUD+yuV4KEHTiM6K0gkRH374IY4//nj+LTGsodYyEyeeJAY3t8CKJ5C2BNICIMeCJxRcVyERi4OU6wtY8oqmk5YLtSrlkKrEqaWLo2iThNkHjPnCzYaAiazWKdA7WoMWojoiwrZteJ6HBQsWcAEUxsBP1Rpn28dbacKJJ8AjB04sBu/QIcRtPx3VdV1AKMRiNlyvZymloaFQ6KqhltVyqcj8loQCYdfOnf4+svbh7HvVQ1U1WJ5Pd1gFgO3bt2Ps2LH8O2IAsIZa8xw3Zpw4/WvTAC8NJA+hMZaARRLptAth2bCtGNKpyovbRU0QiIpxmOl9pTud+i+ibLwpLIBkvjbcC+t+XUxGvweAhx9+2BSSZhiANVQGwM5/f0zHj/8KlOtBKgHL8tM443UJJA+l4DhWXj57xWmjZcZGSSoItjsRwhemJHOB/UIIZDIZfLZnjwmLEtqOit4xpTqOA9d1QURobGzEunXrcNxxx/FviDGwhspgZNsYMXTocCiykBYCaT9h3i9KHdAAi9lCK01XLRxTKvjfjBG5aFAiymvYpz871NnZbQ24HLrLARFBSol77rkHjY2NX/TJxZijFn66MjnqmgmUhC0By/MAJWDbfuEUke233F0bapSxpc4v1FZNURTktM+9e/cinUplx+nEf+oVG6pGSommpiasX7+e406ZLrCGygAA3tj7JZ1z401Aog7kKZCnYEsgrZIgSydk5muFJpc+oF0GPyscH0VzLRSumkAxPdOYT4/X5zQNHoT6pkY/BlW/gEjC1NQIyGaMhd2HEH777RdeeAGDBg3iAihMF1igMgCAgyTxf6+YBRDB8/yOqK7rQkqAZFaQlVimBz8P7ge3QSqpYtXl3ICsU/q4JWFZVs5JRBSI3i+P9t4XVt4PCloiwogRI3DSSSehqanpisiTMzUDC1QGABD3XNQJgfNmXQHEHbjKg7AFyAPIpTwPO1BceBYe604sarGtCpznh6Pmn59Op5F2M/mGrIiBqLr8HgBThFsTFLRPPfUUhgwZwsWjmVDYBsQAAPYQdaSBwXXAe0OaBkwWnUk4wjLxnYVedk25cn5Rs6fKniP9OvpS75PMO+66Lvb+7wuojBaoBRpqRGU1GGMafC+EwFe+8hW88cYbGD58OP9umFBYQ2UAAK1CNLcJIZqFOHXxw48h7iSQdjMQ0obyyp/fV9714NwSuXjUYOETgodUuhMqkwKgAArUdyU/sL/Sa2lhqrOiiAjLly9HU1MTa6dMUfhJy4QyaFAzJZNJpFIpJBIJKOUC6L53v5Lc/8JzABiPfmE7ab394osvkEwlIaTMxqFm54GIJOyDOfraMRXM3W9vb8frr7+OY445hn8zTFFYQ2VCeeThRYAiJGIOMulD5vOommg5Z1PYZyW9/zpTSlGXLYBsmqzI00x1WakoEjDojCIi0x5G5+4/++yzGDp06NkRpmJqGBaoTCjf/d63hVIK5GXKpleGFUop/DxsW2quYnOEISh7XBFU1uYZLJgdFX1OYYrpJZdcgpaWFti2/deKJ2VqChaoTFE2bt4ASBteIJJIa296KaztjKXQlaD0+cFtcN7g+8J944WX2SD97FZnUGnhpzVTrXFqRTUKxlZbIIzvv/9+XuozkWCByhRlwoQJYtyE8VBKmVc8HofrunBdF7FYzAS7R4lHLSRqHKt+n1dwOjC2MHa0OwTn1st8IQTmzp2L+vr6Hs/P1Ab81GVKsnr1apo2bZqp/6mUQl1dHVKpFKSURXtRBT8r54iKUhxFE7Rr6lc6nUZHR0evfWft4Y/FYti6dStGjhzJvxMmEqyhMiU57bTTxODBg00mkZQSnZ2dxq4aNbW00iV+KQrHp7L5+z1FPyC0wL711lu5PB9TEfzkZSJhWX7Hep3eqU0AgO44WnnAvn5fSSJAUOBp7Xjv3r2+l7+H6Lktyy+wvWXLFowZM4Z/I0xkWENlInH55ZfnLbH1khgorYGWSjUt/LzwfRhhttTeEKYaIQQ8z8MDDzyARCLRa/MytQE/fZnIOI5DWjPUXvXCpX/UVNTC490J+Nfbzz77rMffTUci6O+3c+dO9uwzFcMaKhOZGTNmGMcUkCsoUomXP4rHv5S9FcgJPy0Ay4VtRUGHZukU096Yk6k9+K+GqQjbtknbTIPxqIV21ChFo4PvS2mjhUt8bcMVwm97sm/fvopqCejShPoaWpgqpTBmzBi89dZbaGtr498GUzGsoTIVcdtttwHIb1pXyuMfJEp91DBKRQ3oHk9R0ZWpgkVPABhn1K9//WtYlhV5PoYJwk9hpmIaGhoolUoZTREoH19aiXYa1QYrpcS+ffuQTqcj3bc+V5sKgpWllFJoa2vDqlWrOO6U6TasoTIVM3/+fOPtB5BnQ41aaLrwfeGYYuOCghBARR7+whRYLWB1+uwrr7yC1tbWBZEnZJgC+EnMdItEIkHajlko8LqjjUYq4YdcFpNeln/++edd7iGMYHm+4PzaJjt16lSsXLkSxx57LP8mmG7DGirTLf7+979DKWXskUEqqSpVbkyYFhv08kclOLawqpTruli0aBHa2trGRZ6QYUJggcp0iylTpojW1lY4jmP61QOVld+LkrZaeCz4XsfCRhGsOnUWyBVT0fvTpk3D0KFDIYTYVnYihikBC1Sm2yxatAiZTAaO43Q51t1MKD2mUMCGOZQqqTIVTEYI2k4B4LnnnsOIESNYO2V6DAtUptvMnDlTxGIx45QK5tkD6BIBUEzTLHyFERSe2oaayWQi36sOiypk/vz5SCQSrJ0yvQIb4JkesWfPno5jjz12sA7u10txLbwcx8nTDEsF/Ov9cp/r5fv+/fsrEqqF17VtG5s2bcL48ePHsUBlegPWUJke0dra2jxy5EgQEdLpNIQQiMfj8Dwv1L4apZRfufd6vxJhqqtkBZk/fz4aGxtZO2V6DdZQmR7zr3/9i9rb2/OW5cE2zFFCqaKGWAXfd3R0RAqZCmJZlhm/bds2Ls/H9CqsoTI95sQTTxTjx48H4Ns3bdvOy16KIvSipp4Wc1aVQxfH1kL+kUceQUNDwxeRTmaYiPDTmek1bNsmy7KQSqUQi8W6FCGptMB0qZRT13Vx4MABANFbW2un2aBBg7Bu3TqMHj2a//6ZXoU1VKbX+N73vgelFGzbhmVZ6OzsNJWogOgdT6O81/baSgujAMB9992HwYMH/7aCr8YwkeAnNNOrxGIx0mFUjuOYeFEtVHuSjqq1ViLCgQMHKopF1ec1NDRgy5YtXJ6P6RNYQ2V6lcsuu8xUbwqmpVZaHCVsq4tZa1toMe00GG9amHTw8ssvc3k+ps/gpzTT61iWRcFlfqlW05W0O9HCVEqJ//3vf6FL/mARlMLi0RMnTsTrr7/OtlOmz2ANlel1HnzwwbzlORA9x7/UfmEGViFa6AIwxaO1tgwAv/jFL9DW1nZ2d78Xw5SDn9RMn+A4DnmeZ7KnwlpN6/dRyv3peYTwu5IePHiwi4Yapp3q90OGDMHatWu5eDTTp7CGyvQJDz74oEk7LfTyF1Isxz9sDBCuoWrtVAhhhC+Q01TffvttjBgxgrVTpk/hpzXTZxTaUsNiS8O008JjhfupVKpo2FSYlnrBBRdg8eLFXDya6XNYQ2X6jI0bN+bVLQXKt0gJEqalBkOlCo8H7aXBz+6++260tLRwaxOmz2GByvQZJ554omhubjZhSt0pQl04Bii+5NeC27Iso52ed955GDZsGBKJxJKefRuGKQ8LVKZP+c1vfmOEYTB8SufUA9FSR4PL/8I6q8E5tGDV+0888QQXj2YOGyxQmT7l/PPPF21tbQD83k3a46+1yELKBfeHjQXyi1hrjfhHP/qRPsbl+ZjDAhvpmcOClJJisZipYaqdR5ZlwXGcLs3+igX8ExEOHTqUN3dhiBQRIR6P46OPPsKoUaP4b5w5bLCGyhwWTj31VKRSKbPsl1KakKZkMgkgWlpq0MEVNlYL3ltuuaVLQWmG6Wv46c0cFvbs2dPR2to6OJFIwHVdOI6DVCoFx3HyiqcApdNRU6lUqFDV47RJYefOnVwAhTnssIbKHBZaW1ubL7zwQmQyGSilkEqlEI/Hkclk8oQpEK6damEZFKaFNlh93rJlyyIXnmaY3oT/6pjDihCCtN20s7MT8XgcQNcK/GFbIkJnZ2fovNome+yxx2LVqlWcYsr0C6yhMoeVyy+/HJ7nIZ1Ow7ZtKKVCA//DvPulsqp0KNU999zDtlOm3+CnOHPYcRyH9PLdtm2jfZYqnqIFq3Zg6Xz9oDmgoaEBmzdvZs8+02+whsocdm666SYQEWKxWJ5dtFTxFF1UWlet0l0BdKSAlBLvvvsujjnmGC6AwjBMbeE4DgkhKBaLkWVZZNs2OY5DsVjMvOLxOMXjcUokElRXV0dCCBJCEAACQJZlmc9OOeUU+uSTT6I3mGIYhqkWXn31VRJCGEGqt2FCtVCgSikJQJ5w/dvf/sbClGGY2mXAgAFGOJYSqPplWRYBICllnlA95ZRTaNeuXSxQGYapXVauXEmWZRkNNShUg4I1Ho9TXV1dnlaqBSoA2rJlCx06dOjn/fttGIZh+pmBAweSZVnGjhomVOPxOMViMSNQbds2wnT27Nn06aefsnbKMAzzzjvvGIEaJlS1lppIJIwjClnBGovFaP369eS67oz+/h4MwzBHBEEtNaidOo5DUkpKJBJGkOotAPr2t79N//73v1k7ZRiG0axZs8YIz2wfKiNg6+rqKBaLmeMI2E937NhBRHRcf98/wzDMEcXUqVPNcl9KSY7jUDweJwBmi+xSXwhBP//5z1k7ZRiGKYbWTIUQ5DgOWZZF8XjcOKGklCSEoIaGBtq+fTsLU+aIg1NPmSOGyZMnm/RSz/NgWRYymYxpaQL4aah33HEHBg4c+F4/3irDMMyRTTKZvFY7pnTwvtZUtd3UcRzasWMHa6cMwzDlmDNnjgmf0kv+YBD/a6+9xnGnDMMwUdHaqZSSbNs22VHDhw+nnTt3sjBljljYhsoccVx33XUgIlOiT9dHffTRR+E4Tj/fHcMwzFGGECIvoP+YY45h2ynDMEx3WLp0qcmMklLS2rVrqaOj493+vi+GYZijksbGRrIsK5xI0QAACiJJREFUi6ZOncpB/AzDMD1hyZIlJISg1atX0/79+1/q7/thGIY5qrn44otZO2UYhmEYhmEYhmEYhmEYhmEYhmEYhmEYhmEYhmEYhmEYhmEYhmEYhmEYhmEYhmEYhqlRRH/fANN33HrrrbRjxw4opXDFFVdg1qxZ3fr/vWPHDvrxj3+MVCoFIQRuv/12nHzyyaFzPfTQQ7Rq1SoIIZDJZPCHP/wh8jXfeusteuCBByClhG3beOmllyq63zvuuIM2btwIIQROP/10/OAHPwg9f/bs2ZRMJiGEwC233IIzzjij6HVeeukleumll2DbNjo7OxGPx5HJZGDbNpRSsCwLnueZrgJKKUiZ3whDKQUhBH7/+9/z741hjlbuuece08/esqxuN7fTjfMAUGtra8k5GhsbTUM9KSUtXrw48jV/+9vfEgDTQyqZTF5byX1Onz6dpJQkhKArr7yy1HXNPb7wwgsl7+/2228396ObBeqt/jfRx/U27CWEINd1Z1TyfZijD+4pVcVcffXViMViUEpBKYVly5ZVPAcRHffyyy+b/RtuuKHo2GXLltGBAwcghIBlWVBK4Yknnoh8rWQyCSkliKiLlhcFrTUSESzLKjpOzy2EQDKZLDmnEMLcD5Eve/XW8zxYlmX6XunPASAWixmttfAYwzBHKbNmzSIhBEkpacyYMRX/qn/5y1/maWD/+c9/is4xZcoUo7kNGDCAhBBk2zatXr060nVXrlyZ1zK60ns988wzSQhBQgiaM2dOSQ1V/5s8++yzJa+ze/du2rhxI23YsIHWrFlDGzdupI0bN9L7779P69evp4EDB5p/n5tvvpk2bNhAH3zwAa1Zs4bWr19PGzduNNtKvw/DMEcYf/3rX/OWqW+++WZFP+yvfvWrRmBceumlRc9dv369uc7QoUPphz/8odmfP39+pGuuWLHCCG4pJRHRcZXc6xlnnGHOLydQ9b/HsmXLeiToBg8ebB4Ad955JwvNGoeX/FXOjBkzxAknnGAcKIsWLYp87j/+8Q/64IMPzP7ChQuLjl28eDGEEFBK4fzzz8ecOXPgOA6UUnj++ecjXc9xHLM87s4SWZsagq2ni6GdRz1tS61NC0KIstdkqh8WqDXAggULAPhC5LXXXkNU59TTTz8NwLcZjh49Gueee25RibFixQpja5w7dy7a29tFe3s7AODgwYNYsmRJ2Wt6ntcjW6MQAp7nmXsuN1Yp1e1raYJ2VRaoDAvUGmDhwoX31dXVgYiQSqWwYsWKSOc999xzAHzhU84ZtW/fPti2jVGjRuEb3/iGAIDvfOc7RoN7/PHHe/o1GOaIhwVqDVBfX/+jWbNmmf0onveHH36YXNcFAMTjcVx11VVFx+r5XNfFtdfmIp0WLly4QHu7161bh6jOKYY5WmGBWiNce+21JmD+o48+wl/+8peSwm3p0qUmIP2iiy7C8OHDQ9ez69ato9WrV0MIAcdx8N3vftccSyQSSy644AJjE12yZEkvfyuGObJggVojTJs2TZx88slwXRdSSixdurTo2FWrVtGGDRsA+LbBm266qejYJ5980tgizznnHIwcOTJP8C5cuNA4ml588cXe+CoMc8TCArWGuOGGG4zn/Xe/+x06OjreDRu3dOlS42SZOHFiydTMlStXmqD3+fPndzn+zW9+U4wcORIAcODAATz11FO87GeqFhaoNcT8+fOFZVlwHAeu62Lp0qWTw8Y9//zzRqCWCpV67rnn6PPPP4dSCkOHDsUll1wSKnjnzZtntFR2TjHVDAvUGmPevHnIZDKQUmLx4sVdjj/66KOk0zHr6upwzTXX3Fdsrscee8ykcV599dVFrzl37lwTUvTee+9h7dq1rKUyVQkL1BpDa5xKKWzduhVvvPFGnnB76qmnjDNq5syZqK+v/1HYPBs2bKB//vOfZn/u3LlFrzl27Fhx1llnmf1izqlgcHxWQ94W8WsBADKZjAnTsm275Fh9rZ7m2HOOPhOk9F8dU3W0t7eLKVOm0DvvvAMAeVrqqlWraNq0aZBSQimF66+/HsuXLw+d5/HHH4fjOMhkMhBC4LLLLsOpp55KusSfZVlwXdcUSdFOLgBF5xw0aJApbOJ5HrZu3Urjxo2LHC2fSqVMYH9jY2PRcTqoP5gI0F3CCqMwDFNDLFu2zOSy19XVkXZOLViwwOSlT548uaSECBYFEUKYUnZ6X7+3LMvs6zGO49Bjjz3WZf5169aZ+xJCULnQrkKCpQPvvffeSOX7XnzxxR5JwpaWFjPX3XffzVK1xmENtQaZN2+eaG5upo6ODiSTSSxbtmwygLyc++uvvx7f//73Q89fsWIFzZkzB1JK1NfX41vf+paJNbVtG0II6KSAYG7+5s2b8e677yKTyeCZZ57pMm97e7toamqi/fv3AwD+/Oc/R/5Ob775Jmmzgm3b+NrXvlZ0rLb7KqXMfXYX1kwZhsEtt9xiNMHTTjuNXn31VbM/cODAklLi9NNPN5rkVVddFVmirF69mmzbNueGOaeuvPJKUyS6qamJioV2FXLuuecaTbFcEWytKdu2Tc8880yPJOKQIUNYQ2WYWmfTpk15legvvvhiI+huuOGGooJh06ZNeZXoV61aVZEQmTRpkjn3+uuv73LumjVr8uY/88wzy85/7733kpTS3P9dd91V7hzz3Z9//vkeCcHW1lYzFwtUhqlhzj77bCO4HMcx7z/44IOiguHmm28240844YSKBchDDz1kbKkNDQ2h5y9cuNAIR9u2adKkSfSnP/2py9gPP/yQZs+enSeAjz/++Cj3ZO6hpxpqVptngcowtU7WIZPnRJo+fXpJodDc3GyEXbZnVUV0dHS8G4vFzPWefPLJ0Dm+/vWvd3FytbS00JQpU2j69Ok0YcKELvfe0tJC77//fiSBGpxz9OjRZV+PP/546LxDhw5lDZVhGJ9hw4blCably5cXFQorVqzI0xx37drVLQEyc+ZMIwSnTp1adI5rrrnGRAkUNsoLvpdS0imnnEJbt26Nej+hEQmlXj/72c9C5w56+X/605+yQGWYWkZ39ZRSUradR1FOP/10I8CyS/9usXbtWho+fLgRRKW0ytWrV9OVV15Jzc3NXcwTtm3TjBkz6Omnn670XvJsrgV9rEJfxcKwBg0a1CONnakuuMQ4c9Swfft22rVrF9LpNEaMGIGJEyfy3y/DMAzDMAzDMAzDMAzDMAzDMAzDMAzDMAzDMAzDMAzDMAzDMAzDMAzDMAzDMAzDMEw1c9FFF3GFHIZhmF5A7t69u7/vgWEYpiqQyWSyv++BYRimKpD19fX9fQ8MwzBVgezs7Ozve2AYhqkKZCKR6O97YBiGqQpkOp3u73tgGIapCqQQ3JaHYRimN2CByjAM00uwQGUYhuklpFKqv++BYRimKpD9fQMMwzDVgiTiVH6GYZjeQFqW1d/3wDAMUxVIz/P6+x4YhmEYhmEYJsf/BxesVEej1BOOAAAAAElFTkSuQmCC;" parent="tquT07f-gbf-o2BWBBhi-34" vertex="1">
          <mxGeometry width="108.97459031073704" height="91.67000000000004" as="geometry" />
        </mxCell>
        <mxCell id="tquT07f-gbf-o2BWBBhi-36" value="&lt;b&gt;CONSUL&lt;br&gt;client&lt;br&gt;&lt;/b&gt;" style="rounded=1;whiteSpace=wrap;html=1;fillColor=#FF3399;" parent="tquT07f-gbf-o2BWBBhi-34" vertex="1">
          <mxGeometry x="65.78938906752411" y="37.080092236052636" width="69.71061093247587" height="35.709187785439255" as="geometry" />
        </mxCell>
        <mxCell id="tquT07f-gbf-o2BWBBhi-37" value="" style="group" parent="1" vertex="1" connectable="0">
          <mxGeometry x="120" y="484" width="140" height="91.67" as="geometry" />
        </mxCell>
        <mxCell id="tquT07f-gbf-o2BWBBhi-38" value="" style="shape=image;verticalLabelPosition=bottom;labelBackgroundColor=#ffffff;verticalAlign=top;aspect=fixed;imageAspect=0;image=data:image/png,iVBORw0KGgoAAAANSUhEUgAAAVQAAAEeCAYAAADVUe2/AAABfWlDQ1BpY2MAACiRfZE9SMNAHMVfU6VaKg4WFXHIUJ0s+IU4ShWLYKG0FVp1MLn0C5o0JCkujoJrwcGPxaqDi7OuDq6CIPgB4uTopOgiJf4vKbSI9eC4H+/uPe7eAUKtxFSzYxxQNctIRCNiOrMq+l7RjQH0w48JiZl6LLmYQtvxdQ8PX+/CPKv9uT9Hj5I1GeARieeYbljEG8Qzm5bOeZ84yAqSQnxOPGbQBYkfuS67/MY577DAM4NGKjFPHCQW8y0stzArGCrxNHFIUTXKF9IuK5y3OKulCmvck78wkNVWklynOYwolhBDHCJkVFBECRbCtGqkmEjQfqSNf8jxx8klk6sIRo4FlKFCcvzgf/C7WzM3NekmBSJA54ttf4wAvl2gXrXt72Pbrp8A3mfgSmv6yzVg9pP0alMLHQG928DFdVOT94DLHWDwSZcMyZG8NIVcDng/o2/KAH23gH/N7a2xj9MHIEVdLd8AB4fAaJ6y19u8u6u1t3/PNPr7AaSbcruTptu3AAAABHNCSVQICAgIfAhkiAAAAAZiS0dEAP8A/wD/oL2nkwAAIABJREFUeJzsvXu0JFld5/v57R0RmXnOqVPvruquftI2dKNNy2MYwRZQ2+ExwuhtR6+jcme8Di5ncDkOaynDrHUBp51RFuN1OTLKLFk4wxV5CHrhSiM2CojS0A3dUP1+v6ofdFXX6zwyI2Lv3/1jx44TmZV5Tp6q6qpz6PiulScy47FjR5zMb/z27/Hd0KJFi7G4++679b/8l/+ir3rVq/TXfu3X9Gz3p8XGh5ztDrRocTahqs+76aab7j948CBf+tKXuOWWWzh06BAigvcegCRJeNe73sXrX//69vfSYlUkZ7sDLVqcSXz2s5/Vz3zmMxw4cIDDhw/zspe9jDRN8d5TFAXWWqy1qCrWWkSEsix5wQtecLa73mIToH3itviOQ1mW19x9991/vX//fr74xS9y8803A2CMwXuPcw4RwRgDUJMngHMOay3e+3q9c44vf/nLv9jtdv/HWbuoFpsCLaG22NS4//779e/+7u+4++67uffee3n00Ufx3pMkCUVRUJYlaZoiIjVZxvdATZ5lWZJlGUVRICI1wXrvMcbwta99rf2ttFgT7ZekxabB448/rp/4xCf41Kc+xZEjR2oyBMaSpTEGkfAVL4qCLMtqCzUSpqrW+6lqbb0mSYJzjqIoOO+88/jLv/zL9rfSYk20PtQWGw433XST3nrrrdx1113cd999HDhwAFXl2muvrS1ICCQZic8Yg6riva+3x88AaZpSlmVNls19IwFDsFjLsqQsy/q4iy666AzfgRabFS2htjiruPnmm/UjH/kI//AP/1CT3L/9t/8W1ZClFH2dqloTYkT0iTbXNd83Pzf3iyQbP8dzlGVZ7xfP6ZxrCbXF1GgJtcWzjn6//5avfe1r73/kkUf46le/yje/+U0WFxdJkoR/82/+Te2nhGBVRjI9kyjLcii6n+c5xhg6nQ6XXnrpGe9Pi82JllBbnFb0+/23fPKTn3z/DTfcwOOPP06/3+fqq68GqNOTnHOkaYpzDuccSZIMWY2jVuaZQLRIjTFDPtayLHnpS196xvvTYnOidbS3OCk8+eST+vjjj3PjjTfy5S9/mQceeKAekscAT0S0QJuWaLQIkyQZGso3yfRMWqqRSOPQP8synHN47/n617/e/k5aTIX2i9JiTezfv19vuOEG7rvvPh544AGOHDlCnudYa2sCGo2WNz9H61NVh1KSmsGg1RCPezYR+9sk/ehPvemmm9rfSYup0H5RWtR48skn9dvf/jaf/OQn+au/+iuKohhKQRpNgG8mx0cyGh26N8mwablGoo1tng2/aRPe+zoNK14L0OagtlgX2i/KcxRf+tKX9Fvf+ha33nor999/P4cOHaqtzTRN66h6lmU1OUYSjfmeTXKMw+VxQ/YmQcXjIoE12z2biATfzBwQEV784hfz/ve/v/2dtJgK7RflOYDPfvaz+r/+1//izjvvZDAY1H7LmI8JDA13ozUaSSWSYSTAJuGMpizF4X4zFzSuj+1GNM+9moV6Job8TUKNhJ8kCe985zt5wxve0P5OWkyF9ovyHYJHH31U9+/fzz333MPXvvY19u/fT1EUAPWwHIZzL8ctm/uNI8zRfc9WVP50wxhTi6MYY8jznDRN2+F+i3Wh/bJsQjzxxBP6sY99jL/+67/mqaeeYnl5maIoyPOcXq9XpybFSDVMR6qTtq1GoJMIeTNi1MK21nLjjTdu/gtrccbQflk2MO677z594okn+MIXvsANN9zAgQMHKIqCTqdDURQYY8iyrI64R1KL/sw4jG8O7aexUMeR6bT7bVY0o/xNn3GbMtViPWi/LBsEf//3f6/XX3899957Lw899BBPPvlkTVLNZPPRyDmsWFYxmAQMSdCtZVVOs33ccq1tmwmjvl6Aubk5/uZv/mZzXlCLs4L2y3KG8fjjj+sdd9zBn/7pn/L5z3+epaUl5ubmajGO+MP23pNl2VBOZzOIM45QR2vb47B1HAGPLtfjK51m382I0YKEV7ziFfze7/3e5ryYFmcFbenps4Rnnnnm5i9+8Ysvvfnmm7njjjvYv38/S0tLvPzlLx8KgPR6PRYXF7HW0u126yh8s3IHGCLWcdH0Jqk2iTW208QowTZJpGkBj0brm9vj+0ltbkaMDvdf+MIXnu0utdhkaAn1NOGP//iP9QMf+AD33HMP1lqe//zn18LGsbSyWcverBXvdDoAtSBHVIkfTZKPRBn9p5Fcm6lNowQaLd/YThPjSHA1YvxOJdKIUfdIK4rSYr34zvglnCHcddddetttt/H1r3+dqBLfzOeMRNi0EpuiG02rr+njHN0nBp6AWjykaaGOHgvDaU5Nf+u0QamISYGoUbKZNgtgs2BcnuyHPvQhLr/88s13MS3OGtovywTcdttt+tGPfpTrr7+ep59+muPHjw9tP5WAzcmmK53Kclybp/s8m9mPGh8+UWDaGNPW8LdYN57zQ/6vfOUrevToUT71qU/x6U9/mqNHj6KqvPzlL6fX6zEYDOh2uxP9jBHTDJ+fjeHxOH/nNOsn9XOtPo62u5qfdTORauxvlBZMkoRvfOMbOhgM6qlTpmkDIMsyZmdnh4KKmx1xBBb9zPGa5ubmDu/evXvHWe7ehsHm+cY/S7j22mv1s5/9bK3JGYfrEKbYiLqdzaF1XE6y+E5l2Wx7te3THLPaPtMcc6oW9ug+GxmRJKKrZnl5mdtuu612A6xFiuMeKk3f9nca4v268cYb+b7v+77N8U8+AzBr7/KdjU984hMSo+6qSp7n5Hk+JNjRrDIarUWPn0d/cJM+j1s/7gc7uv+4c612zLT9Ws+1rHb+9Z5vo6FJfqo6JHw9zTU0U9ri52ag8DsBo+l6l1xyCZdeeunhs9ilDYfvjP/0KeId73hHHcSJw73oT4tEO4px5DUOqxHYam2OW067z3r6Mg0pPxcQA3nRf3ro0KE64DiNlR33GZ2vqrluM6MZCI34nd/5nbPYo42J1lSvsGXLFm3OnhlFMoChNCdY/5D7ZIbmo8tTGfKv5/Nq7Y3rz2pBrs0WpGr6fm+++eahIou1+j/68GmKVH8nwRhTzzT7yCOPsG/fvo3/jz2DaC3UCv/hP/wHVLVOqi/Lss4FnSSAPK31OY2bYC0rdz0W6Oj+k9wMzffTuh1Wu4ZprmUjIz4443A9LiPRrvYaRVNs+zsBTVdGnud885vfJMuydrg/gpZQK7zjHe+QJElq/2mWZUPamLD28Hqaofm47SczfF/t3JPOM+0x6z3PetwaGxWqSpZlFEVRP0ThxHLU1bDZLPL1oPlgueaaa9i+fTttdP9EtITawIc//OGhYV6cSA5ODB6t9nktP+fJ+l9Xs5CaUea1yHstC3rSscAJ55n2Gje6Tzb+z2OlWbP/05LjtCOOjYpxQdhxKXe/+Zu/yZ49e37kjHdwE6Al1Abe+MY3yvbt24fUnZaXl5/1KO00w+1TaWO1dev94a+HfDcbqcR7uLS0dML65wJUhxXLRlMFAa6++mrOO+88kiS54ax0coOjJdQR/Lf/9t+GfGezs7O18j0ME9do7uHo++bnaclmUlvTugZO5TyTzrfafmv1bTORbLTAjh07tqH7+WygWfasqkPlzk0r/U/+5E84//zzW5GDCWgJdQTXXnut7N27t67LX15eJknGF5StNpRdi7AmtTX6flJb6znfWsPzcftO6ttq17Qa4a7W942CSBwLCwtnuytnHM0AWkwfU11RL1NV3vrWt0bBnwfOYlc3NFpCHYP77rtPmoGJUaxFOtNah9P4M9dDUqeTsNY67zTnm4b8NxKiFTYYDM5yT848RoNv0WKN2QqdTodf/dVfZe/eva11ugpaQp2Ayy67jKIo6hlCpw2snMyQfy0iPplh9DRkHpdrWbKTjh13rvWcd6MhEsiofuxzAarBfwrU1x+H/gA///M/T7fbba3TNfCdldtxGrF//369+uqrh6pDTrYWftK+J1M/P2ndemc2nVQssNZ1TerHqWoBbASICIPBgG9961tD//ONSP7PBsZZqTGW8NBDD3HRRRdtrH/YBkRroU7AlVdeKS996Utrcei1MM2PbjXL7nS0t9Z51nP+tdpa7f2kNjY6ManqkCD3cwnNKrGmsIuI8P73v7/W522xOtonzhqYmZnRZvpIHAY1VfjjdCbTlJROKtU8Gctv3LppLcrVzrPWPmv1Yz1W++i6swkR4eDBgzz44IMbnvyfTUTLNE1Ttm7dyk033cQll1yyMf5JGxythboGrr76akRkqDY71vzHNJNmWV5crtcqm3TMWm2t5ZtdzYoct+96LM1p/aVr9X0jQCRooS4uLp6w/rmA5sMtRvyLouA3fuM36PV6Z7NrmwrPjW/LKaLX6ylAmqZDCkSj8mzTWokn429dz7Gjy9Hh3DTnmXb7NMv17ns2IBLm/rrzzjtZXl6u10dr7bmEeM3dbpd7772XCy64oOWJKdFaqFPgLW95Sz3Mj6QahVMm5ag2sZbVuFae51p+y7Wsv1Px1Z4uy3Ut/+3ZtlZVta6MG13/XEFME4y+07/927+l2+22AijrQPvkmRKzs7Mah4WRRGPyP4wv0ztVC2691uR6z99sdxof6lr9m/Zck44ZfX+mYa3lxhtvPGF9tPC/0xHvvapy+eWX84UvfIG9e/e2HLEOtBbqlHjXu95Viw/H4WGzmmQ9EfNJ1uek/Sd9nrRuPcc3t603z3Yaa3kaC3vaPj7baGZ0nG0XxNlA/F+JCL//+79PlmVfP9t92mx47n1rTgE7d+7UOCSMc001p45ey+KaZAmuxxqd1jqdtP80/ZnUh2mt4dPl/z3TOHr0KPfcc8+QpfZcsU6bOadXXHEFn/nMZ7j44otbflgnWgt1HbjuuuswxgwN9ZtzT51KlH8U66lKmtY6XK09g8VgCV+JSgcWxePwuKF9VRUV8Iy3MMN+Ho9DxaPiAV8fp9Loh1eE8UEf0ZXX6cZou6rC0WMLgEExqApgEJMABiS+qMyQ6rNJwcZXAsaMMVMMmGRlv6TxslO8Yh+eRTSF1D/ykY+0ZHqSeM5PI70e/NIv/ZKcc845urS0VBNHzEONftVo1UxCc/soEa9mGTUj9aP7N883Gs2v28SAKMaDSKTCSqvACxJZwEjYZgQvJSKKoqCBdEVBxeDUV+epiMkLgYMUJFCxCqip9nMWAVzVp0DbYYn3qAEfrxODVcHoCon4qr2TRTw2Emls28dtYjh45CgYG0jRxfNWxGkV1BMuWMJ2YyGdAVUwHtRBmYcDSx/ui4T7RdINhNsk5NCjcLwY8L66fxLa8hrOUeRQDsL204Rm9kL8TjnneOMb38jOnTtP23mea2gJdZ342Mc+xhve8IZ6yJ/nOZ1OZ8hSHUWTCJvLcfsBJ+yzGkmPku64cwJgPOFttU4Ej8NgK2tz5DhW6tmNQkV3qI5YYF5XyBgQNaAeEYOo4iuyFTWAglo8PpxXQ5vhQI+viMbiw3nC2fFyamTahOiwracCTkCtYWbbVgZupR9hh2peMS0Ro4h4jLGoM5RJF7bv4byrrqQQpeMHHL/rdo7e/q3qoRIuGZuy8wd+mHTPuXgDJQpmZdpyajV8V2WT5FgF8Y4OhifvuoNi/9fBn3wV1+h3I5JpzF6J79/1rnexc+fOXzzpEz3H0RLqOvGa17xGdu7cqQsLC3S73Tp9ClYnzknr4EQCHYdx1umk8407l2jsY7ALlWBtOVMNx33l54SwjWAhGledSzxeFCME68loZe1ZhDCUF4UkmLd4E6y4xCe1NQqgCN6EIXWwdAFjguXKyn1RAacOTOCkU+XTE1wH4nECTgylgT4lbjat+qhgE7wq6sGalI5JyF2BWE9ROIzMQDJL9tJXwHd/N0Zg1vUZPLMAt98NprIw1UIyAxc+n+TyKyhEUTwm6+BdCZWlGLNEcq+oK0jEkiFYD8XhY3DHt4KVepKI35vmnFnAUKntD//wD7Nv3z663e7/OOkTPcfR+lBPAtdff/3QUL+pTrRaJH/aCPnJ+E9XbcsrxitWo380+AejrzRaYUPWrhIIoelPVFOTkviV9uOwWQV8fd5wjHE2HOfjOVeG24pBxeARUFMfW1+LUBH56bNQIdjao4Nnoysvqa4veDA8oo58eZmuMbh+TpakWAW859ILzyfzBR0tMXmOeBeG6ZJAvB7nmE0MHVfQ9Z6uc3SKAV1X0ClKZtSR5QWdMmfGl8xbYRZPUizD0nESqaz7U0Czmm90qussyxAR/vAP/7BNkzpFtDfvJPGyl71M77zzztoSXE3tady69eZxrhXJX7UthUxtIC0reAGRaOnaxr7hh2almlcLUBtI1WrYzyK1ddc8T2nC0nqDievD3oGoCD5Wb8LSIGEIrYE0MeF8tjrWVFavmkC2hlMLTo36UJvwBg4dPsqDjzwUboERcBp8qRAeLCLgfDjYJlAqpBnMzYTnhBD2P3oM8gE4h6lI0JsEerPQ7YVAVDVaQCS0kxgofWgn+lFLB1bCOY4fh6WFUxryN6P440ZJb3/72/l3/+7ftYR6imhv3kniwQcf1O/5nu8BGCLU9RLjtOQbl6ulOU08RsGS1seoGW3P1wSr4jEiGK32kzA0F59gRDHVvr7yFokoahVXdSvRcJ4mqcbPKh7FIKIhwEVjvnujK6QnUhOqSHgAWH/yg6nYrifElmDYl+qBbx88xEMPPRSCQ1AbhCFsFmxaayzOu2hnrwTKkhhUCs4J8YL6suZY50GsoekyRk0gVL/C7qZyb6gRcAXY6uBGf04FpuFeaJbTzs/Pc8stt3DppZe2fHCKaIf8J4lLLrlELrjgAuBEh/96l9Mk04++Vtt3dOkNDJKS3JY441F1hFiRx0mBNzlecrwd4GxBYfLKtwrGWYw3qHicOLwUqDqseqwGWhHvsIR1aBgqi3pEfZU2BYU4XDV89+LroJep3BHGyZBLQTVYr6jDPkul9M2h/9LSAoiPvo7alNX43kKpBYji8QiKRTG2smadC5an96EdWLGwpXlGrV6+slRXXt571PtAprDiPD5dAbnqe9oc8ltreetb30q32z09J3mOo30inQKefvrpZy666KLtJ2t1TpP4vtYx0+zrBHxlmnV88GnGFCcRRYyvh97ehmMSnyBqSDToYJbGo9aR4LFeEA1+N4wLJGkcIhbxaVhqGMbHofxQ/8STaEjBSqj8sxLStbxdsUwNjRxVSTkVNIf8zWXE/ttvY7m/DFioRhze+/ADiVkPIqCKNRZxHo2PhTjkr/hSAEks3jmElUCiMQYfh/sxi6Fqs16aRsea60+DhToua0RVefTRR1sBlNOE1kI9BezevXvH61//+iGLMSr8T5PmNPq+OTvAJCt0PaWbK0n7PvhF1dXDdnUlVsCIok4xmkGRYl2K0YyiyoHMvQcTfKGZpJSFUmIxNsX54PrzAi4xDChRKTHGU6gLPlOfYyiRsiATEHWoOsRSJ/7HpP9g2TaCJyjiNXCMX9uSXw2j/xMRGSoZ7i8vV0apQ/DVkN1j8BWhJSFib0L2gWsynAKuynKgcoU6F3y/aklIsIQhf7DCGz87lcrNUDGxl5VXDAyeBjJt3ofm/fjwhz9cT33S4tTRPpVOA2ZmZhSoI/6qQYS6KIo4S+TYhP6TDVqtx0oNy1DxJCIkkmCxYZDpQzVTkmSIhgqwWB1lK1Ut65NAPBSo82RZFzCUhcOmFrFQ6AA1QRfWlAZvOmh3lqVBn209i19cYi4JubqlqYJQNpCK9YZUTMhVFYs3UvOJFcWor7ytprZcTwZDQanKd1kXQVjD17761bHHBQ9qqJ4KDZR1O4Yq/1+o+dBS8asAGurPwmaPH8kt0PoM1G6CuEE4rTw6FJSKmJub46677mLfvn0tD5wmtBbqacCb3vQmRIQ8z0mSBGstRVGQZdlQmsp6y1FXs2bX05aqYDUllQ7eQV6WIcfUJNhkpiqvBOcKtMgxPsz86XxBmile+0AoTZTCQm5QYymNUGgIPGUuoasZogkD0+HbdoaF+d080xeMncXlih84EgRrQqVVKZ6CsiLZyrvYuB6nWvl6OeW0KUMIztU5ulKVzhrBaUjCr8tiGy8n1QOAEqHEqiFRgyGpqqiqE1T9LzE4kmDRYnB4SilxlS+5+d8K7tHKh1q5VkUbVk7whqy4FE4BzVzX+P35gz/4A7Isa+X5TiPaJ9NpwszMTC3vF4eT1lqMMbVKFZze6H98v5b/NcRUbG2lqKnmDNLKx+k91kAnTfBliUkSXBWcUR8UmNQajGT4PEVtgmaC9yWJQKYe0YICod+Z53B3C9977U9DknL/33+R8tEH2JvnZMUARx6CU1YhteA8BiHRtLIeU5CVggMrEgJcYsde33owLrndJJZjx45x1513rnFw+LFUOQy4iiyHLEuofKON/AHxw7+yMWlbsSiC4SOrktiV406XyWqMYc+ePXzlK1/h4rZm/7SitVBPE975zncCQYUqTVOMMTjnKIqiHvLDiRblNIn502YBjGszVh15YUhusNQw3LcG0sSQmDDjZ6GewpW4ogypTSbBG0uB54jrs7g1Y7BjlsVOSp6k9ZQwTi1LnR5Pbd/J9/6rf82BXedz384LmPuxf87yi/8RjyAsW4MzKSIpiSQYF1O1grUYrVDVynfa6P+p+E8hDtFXAjEhKBceJocOHVohrHiaejn8E/FQycWUoX4/kl60MAnWbHhV9fzj2h09DXXsf3jjaSLSqIYmEq75T//0T5mdnW2t09OMtvT0NOHXf/3XZdu2bRoJNKr7j8v7gxMjrRFNf+toIGW18tNmO2PX20C6VlLK0uOlJMkyHIYFFZa6c/SNwfZSZGmBXWVJ4h2qFm/Ap11Mr0t27j5yY5G+R5b75E8/SSe1qDoWxFDsOZcnels42tvBAsJx0+Xc7381j913N8cOPcmct2S+0hLxDknMcMkpjWv2lY9zzPWfrJUaj6+JTJXDh0d4ZRypiq+D7R5OtDqJ/taKXxuWZcigYDyZNlwGqxLnKZJq83v4ohe9iBe84AXs3r17x6m12mIUrYV6GvFrv/Zr9Zc2ik5Efyqs7kNdb/7quPeT2/c43w85odbiFawN4ijHypxn5ney62d/iavf/zG+973vh9f9b3y7s4WlQlEHSIdF18Vuv5CF3jYOJTMszu2kP7uNfrfLsndBE9amXHjVSzje6dJXcGoZqGWBhMte8X0sz86wqJAXHlsYuqSkKkjphx8qXgOZRjJap894EsblC4sIZfX/gRWDU2gO3QESENOQjKGyHk2I5lfaWaM/qGBgNqroRlpdcREMv2J7sf1TRbRMsyzjD/7gD0iSpLVOnwW0FuppxDve8Q7p9Xo66tNslqVOsiib2yZZYGtZrpP2BzCJpcgdSOXjFWXROfItu9n1j7+f7T/0Ovb35rHJDq74qX/FgUNH6N96Ixw7glHwtofMbGXBeUqTokkHEWHH3nMZPPoAGYIvHYOiCMlG3mNSi7GW0qak55zDEe+Y7WRkCM4NUFeJsFgTUi458QmvccMq17YexBJYvOBFqoBcsiIuVe8pQ4ughZqCmJCsbypZv6okNxQ0aeUz9axUXA1H8VVp6niFE/gCiuUqof/Zs3FEhKuuuoqLLrqotU6fJbSEeprx53/+51x77bV1cGq0fnqt4fk4rIc8Rkk3LA2u9Fib4oqCJDVYScixLCU9Xvy6N/JQt8NSp4PxhmeSgn/0f/yf/NVd+9m+vMCsCJoZ+m6ATXsUBhw5fQrKrEtuUkqfY7xj+cDjbLvocvJul0UtAcGJgd48PpmBYoHSLSOJqfyFgnolAUQVFQ2VVGbl/ohKld9+onU6zX0Jlq5iRELeLIrJOgxKxWHZcuFFeDGhAGJCRoFiKZMMki4v+9//BU9jydMMSTv4ogwFtuJBTZUVEBwAI54BhgkzVIeds7zALb/9dsQVofIsqoGdsP/qiHm10U8+zrL/6Ec/yr59+y6dutEW60JLqKcZr3vd6+Tiiy/Wp556KuR1jkw1fTLkuNq2cfuMs2CpCCnNwr88HxSU3Q70tmF37KFvE4rEkmhCv5jlsWQWXvA9LH71IDOakxfLzGUpS94HxjEOrKEsBJIOWgyYMwmP3fJ1LnnZK1lKS/KsS+5yjAjWKeIcWgywiVD6MMxOTFUDX4mmxMqo4Kf0WCyrYdr7GR9mxiiqQlk4StVgUavgjFQpUlR6qPUZgCjALWATFm2HviQMsh6FKtJNEe+DJS/QNKlNfAiIryL3po7qiwrWJywlg1AR1TjjyaD5XRs39fVP/uRPRmWpB07yFC3WQEuozwI++clP8qpXvQoIkfUsy4DpfvyrBaLGBZuaQSo40U8YPvsgoORyPEF1SmyCNRnkGgSOJJShlnlBkXZZnDuHc17ySo588yu4xQUychgsY9M5ur05ci0w5QDnFMTiS0cmfeax6P33sOXKHRwrchAlcyXFY4+x3ZUk4giS1CnqPeLBGKnq+6tKqXgNakArAetTSO5RgcIVWLGVu8OgoszalMHxY2RSUnohkeDv9LJSASrVRC+qZbBis4Ttx44w0+0xKAfkXoPIf1VSKpoA0rBGffUp6Bq4amYCU12rdSlbiwXQAo1CKrHfcELC/yQ0vxtxOpM4Q28cLb3zne9k165drXj0s4iWUJ8FvOQlL5FzzjlHFxcX6XQ6J+hPjhvur+YXXY1URzF+3zD3VZp08KUGxSQR1OXgc7r9PmlRYrue0oT8yn5ZMDe/jUOqJAJdV+KOHaG7a46FwQDUkRpDxxgWBn16SRcpC7b4Je7667/kedt2cv6efWgnY+vyAgdu+gdm+guYMsepkkgHayyUHpsacl9ULOYRbJWRUCXjo4FXzPrvR4AnSVO8lngfHjBewz156sCjLBxbaCSHRjIfuquVvxSwj/IP99yzsp+p2NeXjQDSaCZ+lRsQc1LrNCsDPgU3CH7U6vQT3MarIg7zYy70qIAQGOFxAAAgAElEQVT0m9/8Zs4555zDrXj0s4uWUJ8lfOUrX+HKK68EqGdHhfFEGXE60oLGtysoGZAgvsQaxVtIyUn7B3nyq19k/o0/xbdzj6SWsr/AFlnmyfvuIClz0lJJyoKlg08js1uxM1sQm5B6jy4do+MLykGo1Z9NhbJ/lCc//sf09pyH3TrPA48foPv0E8yaSpGKYHlG/6B3oMZXeqiguBA80jDcnnRdk9ZNuiexPWsrR4KxuEEfXKUzKpwYUVcIZFhUUTOBxQH1hH1GCWGmioFr8e7RDsTgVNUegK/0AXAr6xgOzrl1jP9jsUL8DjVLod/97ne3gagzgJZQnyVceuml8spXvlJvvvnm2kodl0cKk0l2vZZos83R42NurGiJNSmlOlLxdJaOcNv1n+SVP/CDXGANy5LRLZc4b/kw997wabZrpfYvSn95gaWDj9LZtQcxc9BfZPnbj7HNOMQoKkJZ9NmSWLpHnyYZHCdPUubLgjkrJF4xCNYmDIowBYtJDANf1PMFqlaqVSNE4itHwSTXx+i1DyNolyJB5CWQq+DLgsFyH6oJB6vwTWirOjLklGrgfwWTD9BqEG8SQUtXZQ3Emz5y6mZ+aZXPuqK1OgCS8NGs7NtM8B8a/q+B0fsRrdPrrruuFUA5QzgFz1SLtXD//ffrVVddVeejwollodMs4/v1lKOOLqOYszEGh5A7QRKLsXAwTfFXvoRr/vVbGXS3MYdy+yf+hMe+8Dn29JeYKQtQQ5kajsgATbpYZumIYPKj9KzDJClL/WU6aRfvPZ0kPEScKiZJg+BJUdJzQidJGTiPpAmkFucGiAn6okAlPg1C8HmqVL7INe7P6LomPJUIeCXoLGooigG3fvNWaPqhawYbtjKrufSGrMdArK7udTi+IQgdh/fx84TUsCEJwJGiglofduxVjUcMgHrv6XQ63HXXXVxyySXtb/0MoLVQn0Vceumlsm/fPj169OjEZP5p8klHt6/XJSCECDRG8ao47+lm85RljvicrQaeufOb/PU7/j3M7IKFBdJigR3FItIvkCRBUYx3zFtwPmiglkXJbJaxXCwghSfpZKhzGGMpnENtRiEGZyylhU7awfdLnAeThtlMS+dQA5kCaE3+Rk3lBkhOqJRaDZP2CdOxGLyGLFBrGon7UxQLxKC5sUHn1FZ2pEiCV7+SvK8rCv/jWLBJpieUmY7BUG3/mr2smmqkS/3Wb/0WvV5vyiNbnCrap9YZQBROiT/2oijo9Xr15H6j81GNEsKQpbkOC3flGK2GrmHYG2Zs6gaNVAqc8RRJl74aSpORJQlpvkTmHL20g8vzoE6fhizJZZOx0JtnEU/H5PRcQa8o6SiIaBXJTjmeZMxedAVLeBIp8UcOMXPkOD1XIH4QNFGr6bg7mEqqL5RHCQZfJdMHY8+Pvf5x92o86RqMJLgyryLgBf1+nzvvvLMiRIJ/dBy5SmN9FJjyK8Ej05CEqtL3qwNX5gSQatpogUqOkGpKmKoR36TO6rTUnpCml3Ys4nU3A6Bbtmzh9ttvb8WjzyDa0tMzgLe+9a11cMAYQ6fTqQNV0bc6qYx0FONKT9cqywxBKaqochxLOlSDeEfiDL2iYFbA2pRFLxzvbKE/N89CXiDGgDX0C8/AdHgm7bHnNdfwI297B6/6lbfzzI7zWe7sYOATShdUrJYTw9y+CziadFjsbWehs4Viy3aKLVtZthaSUP8ffKYhwT2mSQG4QDWNa1rJ453mPo2D15IkSVAN9/7gwYNBQX+cRWsqKRWlEnk2YG3wcVZ+TjFVoajE0b02lVMb/W5okYpQEsSzFaXK1arJUxovqtZGWxyHGJCy1tajmA996EOt7/QMo31ynSFs3bpV8zyvrSfvfa1KNSrvdzJW6KRjVz6blfcm1OGIhMRygFIcR2a3MLjghZx39Ws4dvQQC1/5ElsOP8XucoAoLNmEb2c9znnVNWx//Y9xdGYeq55dx45xy+/9LrueeYJZPU7uByzOzNLddzHPMIfL5hDj6PmSmYXD+KceY7suYwfLkATdUOsyBE9Sqfh7KyGIpEnjGif7UVe7P1BpnwJWTJAdtJZbb72V/qAgSQzOrZSG1mmv2hxyV8EjSsRS5fWGSf+iX9RXFU4rw/MVIrQ26K7G7AZrE5zLa/aUqh51+PEwIgU4IlA9iqaI9O7du/nGN77B+eef3/7GzyBaC/UM4Sd+4ifqL7uI1Ir+zrmhIT+sboWO22e1Y0c/S7S4GhPl5cayNDuPXvx8XvOOd7Hj9W/ieT/5c7zq3b9Jf+/5PO0NfYUlD25mjou+/1UcnN/OgZktPJZt5en5vfzgz/8ST5sufRWcK8hdiWRJZREqTg2FsRSdHkWng/NVf+IUJ0A15V89+8dw34dkSdZ9X0Q0kJorQrDMe/qDkPtZOr+ikhcj7bpiuBoJw/RoORoEF7tjQuasrw4UwnHhpfUH51xo1FrAV2QaL7RuqoFGmtUUlNisjlJVPvjBDzI/P//xtY9scTrREuoZwgc+8AHJsoyyLOuhWZIE66s5l1TENEPZSUP+cW1JNbyHEOG23mA9CCX9xHA8m+OqN7+FR7ft5KG5LTy2bStP7drLP/7FX+X4jr0sZSmSJWA6aG8Ly2Xw6ontsCQpR3fthb3n0TdCr5OSOEVyh6BIxZiFU0pjsJ0epSdULkElkhJQFU+iGlOAhnM0xz1s4vtJ21a2hxQnk1jEJhVTxp9AJLB6/I7XcOZSwVEAZYj2NzICnLF4EUoRSlFKAm8aDWWnUr2SJAnE6VxwESgkHoxKqBajbnJ42K/N2VEnI5JpkiR893d/N1dddRXz8/M/uepBLU47WkI9g/jP//k/1z6uaJ02h/uwto90Gst07LFSTekcCcpXgSoczhjIevQu/C6eybosJB2esV0OZlvIn/dC2LKTBUxFJAaJDwMT/HN9Izwllot+8BpyMWihJN5jixKrHu/LqtDIEYNDYZy7km+qqiENSUxVghpThmKfp7NKxwmCAFUFkWJtioqljKKm3oAkYJOwrF/Bbxzm0AuarSIh2h9ug4Cp9s06kPWg04Osg6YpLk1xSQdNeqjtUHqBqgTZ+5CGpYRqsNFwVPPqZIqhPlCn5ZVlyR/90R8xMzPz9TUPanHa0RLqGcQv//IvS7fbrX/oSZLQ6/VW1UudtG5acgkI6vyeYmUupQpGq/1KwAsWA6RkdpZFZng47bHrJ/8Fhe2EVKNyiXJpgcQDpcP5Pj5V8m6XftZBTYdEEpK8oFw8jvclWZYAJQlKqoIWHjTBI6F2vZGQXiUjVUGqyjUhK6Q66b6s9UAxJkHE4lTw3nB8YTmQYZIFYiQBScHYkAlhU0g7IEllqWrtXw1EmkE6B1t2wdwu2Lo7vLZXr22N91t3wsxs6FinM2T9eoLGahRmCdOemPoBCNMFOmLGyOWXX86FF17Ijh07XjbFYS1OM9o81DOM97znPfzyL/8yQD1FSvQzTpOTerI1/nWZJ1ppgob5TRFb5agakjJHqhB2kUPPduknBec/71IOGosMlsAsUj71KN0de0lMB+mm6GBA6grcYAnvoRx4ZrOMYwcPMbdlNwtLi1gjpKr0Ss/S8gJhKuuob29o6oWKxMoo0BiI0hVyXG/prqqipWJNQukckqTkwNZzz0eswVVzaznnSW2C9w6kxBUDlg4dhrxAbHBNGGvDCNwk7P1H/5hLfuCHWOr0GBip07tMbVUa0IzZok/6xAP8w//8ozDvdlVzr2XI/Gjm84cLbBQHTIl43R/5yEfYs2fPj0x/ZIvTiZZQzzB+4Rd+Qbrdbp2XmiTJCTNSjovgN7dNWwAQ30P8sVc5qKIoOaDBMtIC+guweBTjdkLWJTUpMnBsEWVw5GlQT7co2Okdt/4//5MX/8aLOOoGlGVC1ym7lg7zzb+5njlXImJJvdIrCwYPPsie8y9g2QppZll65gDdcoFEC/BKajpBsco4MFGl3wZL2gSLzQDWBF3UJlbL1x29DzbMm01iDE6EhbJkkIZhspeQ8CQSauudgmQmpIvlh0FtNXOBx4vUeVLLYjgyM8uhpBusW1aG6GocnqAm5USYNzaO80HBlw4L2MoR4jVapwwRaTSKm+XFUUlqyLJX5bWvfS27d+8mSZIbJn45WjyraAn1LGD//v1ceeWVQz+S9dbzr2aNjVsv8ZcJ1Ok46jFAog7KZW761MfZ9wtvpZ/N0i9hVmD70mH2/79/RqIlxpfMG8Py4hFu+cD7+N43/2vyvE9W9NE7b4FDj9LzOaIlRV4y151Bl4+x/NiD9I1hUUs6DMhQjPdkSYorFWMtTkIU3KitouGC0VCDr+HC0AbTjLPMV9M18LJS5IA6lpcWGPiKAI0QKpwEnMFrifPB/4t6LAYvJSoShFTEgCjFscM88/CDLHRnES8N/QGPs8GNk7oUWwxwTz8JSdTnk+BH1hIfJqNe8ZLG/1Md9zKNDWESyKIohqL68Tp/93d/l/POO68Vjz6LaAn1LOCyyy6Tyy67TB999FGAWrdy0pB2bfGPycQbtgW5PtQjpKAGSwdQ1BbMlDmpHuPQ336WrT/yBuylPQ4lM8yXObsO3A93fotOvoQkIZdyZvkY9p5v8K3/9O/p7d4HzlMceIA94kjKAdYEU8uVOWniUL9EV5PQP18irsTYjLz0qDfYym8YpOsqzdJKZi8jw0slXrKKM3G1BwxGcKYMxafqcQPH0refAq/oSAQ9jwIm1lNpUK2ISkmc6sSDX2Jp/80s3XN3JfPfUNgXD6YAhWUvHNN4jAsRKa949VUVlFRJ/o2TTbg+gKIohizUOLvuz/7szzI/P4+04tFnFW3S71nCDTfcoD/2Yz92gpXRfL/epP7JyypTUixWU2KZpAiIKWrCWpzdxpFknuyfvInv+oEfwh8+yF3v+21ml4/SWT7GXJKihccYQApKI/jOPGXh6fgBxhdhRgCv4MOQ2RnPwCYsao8yybCJ0jVCZ3mJTumxEoob6sx2gjhK7LutKpnUrEwzve77YaSeUiUDXO646ZZvVZZgLNKvGqjH2NVqH5L3gTCFSgxySUin0kaMPhiWK/5goNJzJQSykgRKh1TELqooripDjQc0+qErFqoQHgzjlPiNMTzwwAOcf/75P9IO988uWkI9i9i5c6ceP378hPLAaYhidN1a+1aRJ1IfLEBnQhQ5KPUHKuhjWc5mKTuzlD4DdWwpF+hR0KvU/DPpYdKE0i9T4PE+Q8TSTQzWeJbLJZIkQVyY+RURnkrnOL7nu7j49W9iZmaGOz5/PTMP3sHufJGOGrQI9fWhj2W4Hk0qYo2EN3x9k3ULxpNtLCToWkN/Oedbd9xRHbUi/KyRxGSF4AwGrfNEq3JUBBWHV49UFuaqOnsCIknF3b7i68q69EV4YIw7UId/oHGPUR/qr//6r/O2t73tcKt3evbREupZxtzcnOZ5Xif5r8f6iu/XstBCOk6wdVJvQTzOamWZhih/FHQ2iaXwCc6GdCIxDquOjhZQgiWj9B7pQj9JWM7m0GwG9R4GfWYYkBYD5pKEfp6TJxlPbTuHH3rP+znQ24aRhO2D4xz4iw/z1Bc/y55ykc6gjyFYoGpC5D/RtKYvrfo57pqntdaNCS4Vg3Dk0DM8+ODDdTJZc8hfU7hUxqoxqIPEpDjvKotR8ZUotBUTxFWaAaXhRFLQKHJi6KQd8iKvtQpEdCKZxsPjx3jdzbmjsizj3nvvbQVQNghaH+pZxjXXXMPnPve5idtP1X8KYdgpGASPN2V1TEiZ8j64AFKtRFq8oUxTjnV6OCx4pYNnbnCc+SyhLDx0LEtScqjT4fk/8dMsbdmFlZT06GEeuP4v2HLkaTolSDbDIWu57PU/xoG5rRzobUNcwrFkhnOv/XkePnSEp27+PBcYV5OKeIupp+ZTvBGmTZdeLUAXq7GcKEeOH6mG2hrSoXwgTpzHkmDxqAoljpj+GicVjK6DUMFURedjWElhVEdVNGhRJaI4dQyKZeKUf4qiahBjwwMp3IATovxNRA2IOM3Ju9/97vph3OLso/1PnGX8xV/8RZ1GtVZO6TRpU5Mi38N7e0QNogavEoa1qqgx9G3CYRJeeM3rSHbsRlR5+t67eeaWr6H9JWYSQ9+XDHpd9n3vSzm+cw9PprNYOsyblCt/9MfZ/2cfZXZpkaL0lFu2sueqF3OPTVjMuogz+DSjj/D8N/5zHr7rFsojC1jrECxWDUKCRhV9JVYfrHofTwhEcWImQKxOWuov1zoGWunxheF4QpgXIFihoZFKjaouN5UVkerYPyDKo9SEKAyRq68yKhwrSlrBFWBWyBROZNAxiIUgxhh++qd/mnPPPbe1TjcI2kqpDYDv//7vD37NyuqIKTFROCVK/62GcZbs+Iorh1GwarClkHiD+FCfNLDCMzZj58teweDcy3ikt42Htm2Fq76HrS9+Gcc7Xfo4fGJYSDJmzr8YZzLwQX5pOUk4tGUHXHwpywk4q2CUQZZWkfsCoyWFevpzsyTnXoDrzOLJUE3RKnlfvIZc1Ir0R+Z1PuG6V6vhr9dLGJZ771leXlx5wHhPPbGeBGm9Wns0DuOb87EEk5RwaeG+hSCUR06QBfAYSoyE5K+CSte0EfRqkmlYbRqpUit9MMac8CD94Ac/2MrzbTC0hLoB8PnPf168D0Ecay1lWZKmaZ1zOG5Itx61peF9wxQoEQYH4nDG08fBTI+9L7icIybjeDbDse4sz2Rdet/1fIr57ZQmC1NRkzC7bRdOLYrgXElhDMc7Xc5/8UtYFhBTgpaYxQUSE0jBVMn6i4VSZh2SmhAMprLovPhKM5TKV7n2dY4rxx3SQBBwWj2sXLRPT7hTgOCiBF8zd1cERDAqJAiG4JoQkdpPWkurjvg/vfqVSP6EZ0Nc3RRJWTk39YM2FoNcfPHFvPrVr26t0w2GllA3CKIIdUzaHgwG9ftJWJVARtYFI8vgSfBiKHE4m1PKAJUy/NiTFAbL2G6GIw8/4FzRZIb+/FbYuYfSdZGiAzm4wlOUjiRLEWswnZRFD8zMUlhPRxxblo5z219+CpPnFM5TOKrpjh0JJfhlEhzGhci+CpTGU9qC0hZDdfyTHiJrIZCphPxbb1ZIy4RoexXxCfsaXx8DFadp9cdHuWepovsr0XmbmjoRQaoRgNG0Ung1w2lRTQqUlaBYLA4+QQxFhy3Usix5z3vew44dO1p5vg2GllA3CN773vdKt9utPydJUpelNnUu1xIBmQSPgjZk8STI0MVSSadhrimsJXclSZYFq0gyShci+ntfeDklSqpKJsKRRx5mxgiuCBqjeZ43wkmOfOk4W4s+i3d8k/OWj7Gzv8Ccd6RFwTbXZ7Z/DBksVSqo4Rq8+NoqrXveyOtcL5k223E4ji8tBiFoifM0xdykmD4VcqRUBGyKUilPVXmkpSTkWHJSnKRBpcoYnK/a8zHLtwo6AbUvYJwt2fQmjK5ubmtIPO7du5dXvvKVrTzfBkRLqBsIP/MzP0O326WoCCpOAzzOTzhJcWo1f6LiAoE2Zv40ajC+CsNUunIWYblf4k1VBOCFvPT05mbQZEDKEluWjvHUrd8gWz5G6gYYY0gko1t6unmOeM+WXofUOeaOHeWrv/V/ccXBR9i1fJwdLufcY4c4fuvNSH+J3JWNAI7HqidzKbZMwmypMkyqk651tZeYkOr09NHD4VRB1iAk2xuo9QJVAwFmXUhnwM5BNh+Up7IUein0OtDtBOWotFtt64aXUFWKVSn7pnqFf8BwWtVQND+I1fjh1eG+6PBsDh//+MfZt29fW2K6AdFG+TcQ3ve+90mWZRo1UyPicA/WTpEah3BM/FSRk1bDXS8hHqPQNYZBP+eJO+9m/iWvwBvo5zlda5jzjodu/yY9LUlMSbdUlo8cIr//Ts574YtYEIMb5Oxxnru/8DfMliVaOnzu2DE7w+Dhe/ny71zH8974M+w8dx9H77mNBz75YbYuh0KAMK2ox3gNIi5VupFqVdmpOpzkPqVQTHN/L2HmgWT7LlxlBYdy2OCfNICWniLrMvfdV+K6c2iZBL+rdahxFbEb0LRyo5RYVax3+IPfZvGWm3A+imJPzi8di0YywQmbqmt9+ctfzmWXXdaWmG5QtIS6wXDjjTfyile8ohYMVtWhcsNREpkk59fc12AxPpRfOhsI1XqCCwCDqOB9QeqEXSQc/MbNPO/SF7A453BpRlrm7Bgs8e0HH6DjQIvgO8wGizz9hc8xe+AhnveKV5MYy6N/9wVmD9zDNi+oM9g0zDS6s1TKRx/gsT/8bR4xFgZLbMMzr4r1oFogBN+jRwLhGUGcYERCehGTxVDWysPFWUgStDeHNQmZCE6ryfJUEQlTbOMF5ubY9pofor9lB0ZDqpeq4o1DpQRRpMrf9VUkP/MF/btuZ/G22/H945WSVNA5raGm8VCo3Dh1JxkpizL16ibe9773rfENanE20RLqBsNLXvIS2bNnjx49erSeFbVpoUZMSmJfbZ+4bvRXGpWYjHP4wQIzXnjgM3/BRT/8TzDbt9FxJQ9/6QtkC4skgwJjE6xAD7CD4wzuvZ1bH3gQjGV7vsDWvI94Jct69PMB1ipdPGbpGHMq1bQj4bpEFee1nolEg0Q+GljwRJ6ZQKZrKU8ZG2Z8NcagrkAlnBsxGEt9FpsklEXBTJYycHmI5KutAlrgqxQqqyWKoTAEC1WDlioalaTy2jUbswCa1zGkMDUFVJWXvvSl7N27l71797aR/Q2K9h+zAfGhD31I3/KWt9RkYK0dIsdpyy2H3AbYOhdTRKuyTlOJTQ+35UzKcppRJAnOWBKEtCjpek/Xlwhl0Cq1UKoPgZukGyayK47TTUwQR8EiXirC1pV6fNMoHdWRPivVfiYc07jOUxGJQSyFwh333BnG1SaOr6v3IlWSqIXeDOzYFpZqK59DJXqiMXk/qkpBnFKGo0fh0CFkMMBSIgQL1Y8Zxjeyq+p+qjBSNKBDMn0PP/wwe/bs+cVut/s/TmyxxUZAa6FuQPzcz/2czM7OakyfguG0mWkqpUbfe4LKUSxDjZlCvqoNarZnfcGWvESKuD4ERkSkEkRWVEtcqXQ6PfokLNiM3Gb47gyZUTqLx5m3QurCjKFOy5W0SgUmuSqqqiSRaNqdeG3TVJONwntPv78MeQ7qhoqfECpzsQoADfpw7DDNgqnh+G0sE21Qopigxl/Hn8KU0nFAMMqpJ3xWrVc2RyRxptw3v/nNWGtpyXRjo7VQNygefvhhfcELXgBQD/2nEUIZt5xmn9F81xO2i4bEezWoESR15OqwZDyZzqJXvJTLf/rn6e7Yw9O338qBD/0+W9wC3X6fjiuxlfU5yYJe77WMkua4dlf2MVhJOHjwII89/mjIdqjISwVipZSRIG6tdapWJM6VfZp5o6GBuEzqSica4ilUxq9OMb6P/+faTVFZp9ZabrvtNq644or297rB0aZNbVBcdNFFcuGFFw7locIaaVETEv3H7TNu/eRqo5BcH4fgdX9MwlE16N4L+b63v4ujl7+Yx/Z+F7Ov/lF+8Lr/yvHOFo4hiDVD51mtL6sVK0xzHeOOEfVYlP7iQiDZmkCTauheWfEa0soMHqlq762G6VNEPWhJFEWJ+fe2SuLPoKbSOo9WYn8mdrVGlOQbGlVUQij/8l/+S3bt2nV47VZanG20hLqB8Wd/9mekabpmMvvJJLtPQ75NeML8U94KahVXeAYkLM1uZd9rXsuhzjyLcztYSjOeTDIeuuC72PEzv0DZm8OU5dDoeNz51kOQ64WKp6TP8cERvC/H7KBgHCIlnjAtSTArQ4ltkI+hLusPbpMEIcWT4jHkEPSrpKxUqRsZ/lMgPqSivzyOGJxz/Mf/+B/ZtWtXO4vpJkBLqBsYL3rRi+R5z3veushvWgtvmmNWEKw5p55CSzAGgw01/Z1Zzv/eF7OQpBx3JS419LsdDmRbuPDV/wSHwdl0aPqStQoR1urzNBb46DannsGgXLEaaUynLb4a6g+3E+Y5sAjJSETe1G3UefqigUiFlV9VvcPaPzNVpdPp1NNBR4J973vfy5YtWw63eaebAy2hbnDs379fmuk/EeOG6GsNj9drlTb382gIdktIbTImAQ3TnRSuDLX5qVJQUKjHJjMslIb00ss5ai35hGsY7ce0JDp63ZOuP6wXxCeor4JOVS6Wxgh/hNSj/5Xj8RSiVZCpwZFSghRh7ihTAg60ql4tCTO6eINoio0VZ6sgBiBj/jHA9u3b+fEf/3FaJf7Ng5ZQNwF+9Ed/tH6/ll90Wh/ltIhEFer6kyBTXZRhnvvSQ95n6eknEM3xWoAE1ay88IjJ2Lp9Jyor5ZMnQ+an0vf6vTS+6kPN+KG3MdgeVKSUqGBazxRb6acCQ8N5WXHFVkn9UqWmKb4Sp56mr9FCBbjuuuvo9XprHtti46Al1E2Aj3zkIz8CDPnWmlH/JnE0U5HGLSNGLbtxr2abBosWJcYriYQk97TsM+sH3PN3nyfzOdYKCYq6ApMa1Ofo8WPMlg7j3VD/JvVjFONSoNZyXzQj/XHfQdEH8XVgzWiVdeAFozYoRDVJl4pMo9ZpHMtLFAGocm01VKHFoL4CJVASJuAzlJX4y+phflUdkmns9Xr8s3/2z9ok/k2GllA3AZIkueFNb3oTxhjyPAeoh4ZRR/VUIubjjhndP0zlIWFSPy0wFrrGYhaP4u+5g/mnn2DXscPMLS0yVyyzY/kIe/yAQ3fsJ3GBVEZJc5rh/WrHTOprFOqutwk888xBIBY1rITpQ9woWKBOK5FoU0XmtRI6UUKqlSiow1TrrLXYqiQWoi+VYct14p0eRpTliw/Mj370o8zPz7fyfJsM7dNvE6HX62nMS3TOkSRJrZnaFFQZl98Z30/K/VxtvagBB8aApI6yLOiYDpJ2Oe5KDne7sH0v1/yn9/D0jnPxWcrWhaPc9vE/YXDD/2xnzPoAACAASURBVMeu5aPghy3H9eTMTuprc6mqQ3mcSZIgUk1oZ5R7772bfOBWhvuxgKoW2mNlhj4rGBfmeQo2d3CMKpAY6nmmavmTUcO2Wsb41ASZlBMQ806vuOIKPve5z7UT721CtP+wTYT//t//u/7Kr/wKWaVVqqqkaXqCeMro+2mT5CetD5PmWVQdkjqcujDcNQneWIq0wxFN0K07SH/gVaRzcyzdcwfcdxfzS8eZy/tYMWuWx6430b+5fyTUaKlGq905B4nlzjtvC9/2cqXqVGJZqCRgJWib2gRMCqUEDVRHIFpdhhRYGoBzVY5qSLIaItVG5CrevdCj6Sr3RYQ///M/53Wve11bYroJ0RLqJkOv19OyLMmyjLIscc7R7XanqqSK76e1WpvLxKSUZVm5EEOtZrRelQSxGUsoS90En1ls7shcyawRktJVyfKTLcwmast4HQTbTIgPU62Y+qHjOxkHjh2lKAoGjz+NdXltjJaSBT3T3iwv+cVf4tjMPIOki5oUkfCwcjjElPSKPucsLnHj7/3f0F/G6gBTeUvLIUJdUYqalkzjUH9mZoZ77rmH8847r/1tbkK0PtRNhuuuu64e6idJQrfbrYWoYbqI/3qS6iMKl+OND+lDfoW4rBisc2QuZ75Y5rx8gT1HD7G7yJktC0xZEqcwGT3fyWQkTPIHj5bONueuRw1OLaU3le5qw5JQrXLBBN+dYdDpstjpsdjpcSSxHEksy7MzHO/2WOr0KLo9MBkkKdqYAmU459TUegkhj2rN21tXxH3jG9+g2+1+fe0jWmxEtOIomwxve9vbZH5+Xp1z5HlOlmX1tmilNa21uH7SPuP2HbddrAlz1wN4j3UCzuMsqDV4PDa15HmYi0q8kNoMny+TppZRbmyedxJxTurnuG3RIo3E2syIGCwv0vFhNtXlJEELV89uGszmEooB80vHyQws5stIklJqCOqXix4xSi8v2ZIvgfbB91FxuJGur+T1+6DY3yTTVZ5bIsI//af/lJmZGXbs2NFWRW1StMOKTYgvfvGL+trXvrYOujTl/aYRERm3z2piIwCYkPgj6rBiSKWa78pY1BpEw5TXuJLEZngJVnQ3NXgtEZOc0PZ6z1/vr+P9rdGPKiJ10M6XjsPHjvPkkwdDVM0VQBkqS2MDJgGbBf9pWvlRNWb5K/XUKACDARQFuAIRjzqPMZUvVsHWg76qon/UtzoBIsLNN9/MFVdc8dszMzNvn7xni42MllA3KXbv3q1Hjx4lSRLKsqzTqE7WR7rWPiJBr7P2g1bLarQcZgIdOi4Gofyq51mL9OM5fONYu8o1BIIzIb1LBIvw6CNPcHhhuWrdETJFWXFyCoAJhGulCs2vFCOEfaMoSqV9qmNmJ4UTDVJpfjhxOpvY72uuuYYPfvCDnH/++e1vchOj/edtUnz605/Wn/qpn8I5NxTdXivVaHT9uOXoMf9/e+ceJEV1xf/vvd09M7vLLrDs8nDlJaAGjGv9sIRQSqLBR/nzTRQMiQEjgq8yZVmpVEpNqTHGR0yMqIgiEUXRJEarTJlU8tOkKgalFAR5RCxAhEQisgYEdh7d9/z+6Ll3emZ7Znr2wcLM+VhTPT19+3YP7pw+9zwr9b73xTV8we0Xxyv1wMgJdr+TqgWBbds+xqGUm3MQaeGY8xrl5F4XiZjTOHuCFqRB84bjOCbs7eOPP8aoUaP493iUw06po5QLL7xQtLS0mOVtGFHTNqPWAOgJxfPsoyUbSAVYnr8Veptdjesq90QEyJzWrMivkHUonczm3ru5DqRATqia5b+ERTYE2X7sLZDrWtpDUResc6ozojIZPyX1xhtv7OJUY45O+Il4lJNIJPIkUbmwpN7SMCuZu9z5Zc0N1HWZHzQBaPuqAgWKi2QD/KWFTZv/VfjPFljq5xDZTqt6fgp66MvYQMuhnWeF+47jYMuWLRg7diz/FqsAfiwe5eiq/sXSMCulu7n/YedWkuJabg4//TUQJhUyJl9jlRDCgqsbOlHuuAgK04CgJKGg/6OI4U5R0VEHhS3Cb7zxxrxIDebohp+KRzlbt26lk08+2Sz7u2tD7ammGXXeUvulzrWzf6pU7PpZLTXYewtS4NChQ9j1yU6Q0nn72V582aW+MY1mpxE5+WvMAT3VTkuxc+dOTjGtIlhDPcoZN26cmDJlSuixSmyo3dU0i12v2GfFNNNy9+xmOwYY+ygob5unnSoy7w9+eQhEftRBfgk+XYZP96+WAPl7fp1+v72JiJqIXwYhRBc76dKlS/MqTDFHP/xkrBLi8bivVPVh2FSx4+XOCRsXHFMubArQYaHh9lUhBKAoT2AJIaBA2Lnz3+js7IT2+gMA6ZqmBdqnQE6LRfZjVWEufhSEEGhtbcXbb7+N4447jn+DVQRrqFXC+eefX1TbC3qYg8fCNMRiRPXId+fcYp+Fac4KgJfd+o6jXOaUEb5EICEhLQedyU5A+qonWdnQUqGy5Qh0qIAfSiWkP6dfbF/CE/BjU3sR7Yy699570djYyI33qgx+OlYR8XicLMsygf62bSOVSuUtK4tplYXaXamxeltO8yw3R6l5isWi+ppn7nPj/Sc/BlWHTglpg2yJj/61GdmBgOfBtIRWErBtACL7K1B+sL6nIMjLxaOa/Pyex6Hq+gLxeBzbtm1DW1sb//6qDNZQq4jrrrvOBPoDQDKZ7OJV1nRZUpewoQaptOBKFM22VIRC0IMvFfylPQBB1MXTr0AQlg0IC64gJN0MIP2GJHBtgOoAxAA7AVhxQNYDjUOBxBCgYQgQbwSEnWcz9W2qqseah64GJqXEe++9h7q6Oi6AUoXwE7LKsG2bdC3QYCtiraX2JJ60r8/V+13GZONQtXaqg/fzogCkzhaTyJDy211LgX1fHoS0YrBkAq6r/CaCAvDqGjH65MloPuEkJO0YlPQw2O3EP++7BzL1JZRNvvKaqaxIdDF0ivBJJ52EP/7xjxg9ejT/9qoQ1lCrjCeffLKLJhhMTS3UHMNsqVFiQsO2lVCpTbXYOYIUBCl4Gb82rBDC73klHaTTfstrFwIHXIW07cCL1yFTVw8Vi2HApEn4vHEQdtc3Ym/DQHRYCUDEQbB1hxS/sasle+zo1yUWH3nkERamVQzHbFQZ8+bNE42NjZROp5FOp1FfX49MJhO67C8kWA/AxHKGjAkeLxxX7HjYfMWuUdHx7HvdFka5HhQI0rKRTqagiKCyTn3P9eBlXMB2AAgc6PgMqXgK0nGQVil4qZRfRSqbi0oEQAi/DkoPkVJi0qRJGD9+fM8nY45Y+ElZhTz99NO0cOFCv51zOg3Hccyxvli2FzvWnTmLfSYhTPB+fscAQAoBmc29l8KGBwIsG9t3fgI3k4ZxOAEALP98YRnB6tsUCPBcoDMDoVyIbPFoKWJQpJCLK+g+mzdvxtixY7m1SRXDGmoVcvXVV4thw4bRF198YRxUYRpjkKgabCntNTim2Psoc4TOJQBCdp8IwVO1ycIS0g8vVQQlXLiplK9mipxAFVKBXAAkITJpEHnICz5VgH8JAQEbIAUr2xe1J8v+Sy+9FE1NTWBhWt2wDbVKeeGFF+A4Tl5Kqg7b0cK00LZaLGMqjKhjy9lXI8elinwNUZCE8AQskpAkYQkbnkdwPS8XoqQ8aO3UpJRm8/gFFCzyYAE5jxPl5gZ8Ae7HpVJFwjRXoMXHcRzceeedGDZs2NkVTMMchbBArVLOOussESzG4WUFjZTSCNdMJpMnVIsRNQGgXEhVqW2xa/hB+v57JYrPoYig1VYlFDwvg5xnKauEBoqi6CTUHLm01JzYVgWv0uhICv3g0q2szznnHAwZMgS2bf+17CTMUQ3bUKuY1atX0/Tp0+G6LuLxuN/BM6uxxuNxv4up6JpjXswOWnisJ9tS1ymWdqoD+nWR6bBWKP6LcPDgQXz66X/NMd3llIQfBCUoEA6lpxAoSEXNEVVDDQbwa3bt2sWV+GsE1lCrmNNOO020t7cjFoshlUrB8zzjoHJd1/Su16mpYcv3Ykv7UoH8UT4vPFbqGrrwiUV+QL85XyCvWIofn6rgkUJnKpknEX0bqAxkPgV0TirYCv/VHZtpUDsFgLvuuquLCYCpXvipWeXs2bOno62tbbC2p2qNVC/388rdZempp75cimmlcwoCJElI4QtMXcIvGODvIdcKhoiwe/d/kO7MoEsh6awGWviHnxe8H/arKCNdLcsyDybtdKurq8OGDRswbtw4/p3VCKyhVjmtra3NEyZMQCqVghAC6XQaSinEYjE/bjPQelkTpqGGUYk2Wng8qkZrtNTse1GgpQaLTgfHuym3IhWzp6Gm+mEVjKC47bbb0NDQ0MOZmaMJfnLWAB0dHe+2tbVNdl3XNIbTAjXYzz6q5hg2LsqYcpprqTkkCs6VXeeS2X7OQghs274te14RzTO4vC8kaxLIH15a5Op/x6BA5eLRtQdrqDVAc3PzqRdddBEAGOHpeV6XmNSoKaSl7K2l3pfTSku9V9kCUZ6g/M6kWbSdlUhACAu+CLagYMMPt9ZtoXMvAXTVYo0w9cf4/5XXPAodUa+88kpeQgVTG/DTs4ZoaGigVCqVF0plWZax/5XTRsM+Oxx2VRIASR3UL/1CKZSzr/pjfcePtBwc7DyE3Z/u9g9YEvBMtH7W3U+Q5ItbAuUF7QvktNog5TTUIEOGDMHatWu5LXQNwhpqDTFz5kzjuBFCwLZtSCmRTqfzxhXTEkt9FuVY2NhKtGOi/JJ9un004Atdl4C0UshIAVFfDzGgAWioBxobgYYBQFMjhp54ApCIZyNLBSTsvB+Br436R0m/RHRhKoTAokWL0NLScl/kk5iqgZ+gNUYikSBdgFov/bU9Fej9+NIoYyLZW2UuhEpmNVX/mDS5+RlSEDEHh9w0Up6CCwFhSbgiW32/Lo5vnnc2/t+SpUCnC7h+pSpCtvA0FOysjDZaq5a2gfjUYliWhSFDhmDNmjUcd1qjsIZaY9x///3GMaWUgmVZeRpquaymUuMqiUWN8j5vXzfeQ4jZkyhbEEUCQvgdC2wb0rb8FiaWBGwHA5oGoq6u3m99AgCWFUgqDdFCKxCJ+uH02muvoamp6bfRz2SqCX6K1iADBgwg13VNoH/QfqqpxMtfys7aG1oqgC5efYlADykBeCRgOTZcBXy2dy9gSXiUPU8JQNgYMHAgBrU2Y9f77wOuypoP/Hx/vay3tPwG8p1fESwZU6dOxcqVKzFmzBj+XdUorKHWID/5yU9MFf90Om08/VFto4XaaNi55bKgys1ZeLzYORpL+BosZdLwDn4Jb99+4Mv9wP4vgS8PAPv248AnO7Fr7fsAKYA8EHnZIn057TRbTsWXnxR4ReBXv/oVhg8fviDaaKYa4SdpjdLQ0ECZTCYvDlVTieYYNY60J15+AJCwCj7PatVCgYBsHK2Fzs5O/Pe//0VOVyioUyABUrliJ1JKKFK5X0IgNRXQ4VOqbCvpM844AytWrGDPfo3DGmqN8vLLLxvNVAhhbJSCkOc9DxIljjTK58HjpWywYdeRBAiV7+3340kJrpuG52Ugsg4mEXwJD5ZFgHKz+/6cSgvJUE00XCiHsXz5chamDAvUWuXcc88Vo0YdC6Vc2JaABQtC+fVFHcuC52VAQvmRmhWIie4K1zCCGqqfw6+gsi9PC10loMh/CctGMp0xWVH+1l/SE5GfzICs7Az6ooLClPSH+aFTWjvV9xQseDJ79mzE4/GKvx9TffATtYbZtGkD/Z/JpyCdcuHYDQARbAEQPJAFeKT8ilSegpS55g49KXQSNrYSp5Y5ng3sN8I+67T67549yCSTuUD+yuV4KEHTiM6K0gkRH374IY4//nj+LTGsodYyEyeeJAY3t8CKJ5C2BNICIMeCJxRcVyERi4OU6wtY8oqmk5YLtSrlkKrEqaWLo2iThNkHjPnCzYaAiazWKdA7WoMWojoiwrZteJ6HBQsWcAEUxsBP1Rpn28dbacKJJ8AjB04sBu/QIcRtPx3VdV1AKMRiNlyvZymloaFQ6KqhltVyqcj8loQCYdfOnf4+svbh7HvVQ1U1WJ5Pd1gFgO3bt2Ps2LH8O2IAsIZa8xw3Zpw4/WvTAC8NJA+hMZaARRLptAth2bCtGNKpyovbRU0QiIpxmOl9pTud+i+ibLwpLIBkvjbcC+t+XUxGvweAhx9+2BSSZhiANVQGwM5/f0zHj/8KlOtBKgHL8tM443UJJA+l4DhWXj57xWmjZcZGSSoItjsRwhemJHOB/UIIZDIZfLZnjwmLEtqOit4xpTqOA9d1QURobGzEunXrcNxxx/FviDGwhspgZNsYMXTocCiykBYCaT9h3i9KHdAAi9lCK01XLRxTKvjfjBG5aFAiymvYpz871NnZbQ24HLrLARFBSol77rkHjY2NX/TJxZijFn66MjnqmgmUhC0By/MAJWDbfuEUke233F0bapSxpc4v1FZNURTktM+9e/cinUplx+nEf+oVG6pGSommpiasX7+e406ZLrCGygAA3tj7JZ1z401Aog7kKZCnYEsgrZIgSydk5muFJpc+oF0GPyscH0VzLRSumkAxPdOYT4/X5zQNHoT6pkY/BlW/gEjC1NQIyGaMhd2HEH777RdeeAGDBg3iAihMF1igMgCAgyTxf6+YBRDB8/yOqK7rQkqAZFaQlVimBz8P7ge3QSqpYtXl3ICsU/q4JWFZVs5JRBSI3i+P9t4XVt4PCloiwogRI3DSSSehqanpisiTMzUDC1QGABD3XNQJgfNmXQHEHbjKg7AFyAPIpTwPO1BceBYe604sarGtCpznh6Pmn59Op5F2M/mGrIiBqLr8HgBThFsTFLRPPfUUhgwZwsWjmVDYBsQAAPYQdaSBwXXAe0OaBkwWnUk4wjLxnYVedk25cn5Rs6fKniP9OvpS75PMO+66Lvb+7wuojBaoBRpqRGU1GGMafC+EwFe+8hW88cYbGD58OP9umFBYQ2UAAK1CNLcJIZqFOHXxw48h7iSQdjMQ0obyyp/fV9714NwSuXjUYOETgodUuhMqkwKgAArUdyU/sL/Sa2lhqrOiiAjLly9HU1MTa6dMUfhJy4QyaFAzJZNJpFIpJBIJKOUC6L53v5Lc/8JzABiPfmE7ab394osvkEwlIaTMxqFm54GIJOyDOfraMRXM3W9vb8frr7+OY445hn8zTFFYQ2VCeeThRYAiJGIOMulD5vOommg5Z1PYZyW9/zpTSlGXLYBsmqzI00x1WakoEjDojCIi0x5G5+4/++yzGDp06NkRpmJqGBaoTCjf/d63hVIK5GXKpleGFUop/DxsW2quYnOEISh7XBFU1uYZLJgdFX1OYYrpJZdcgpaWFti2/deKJ2VqChaoTFE2bt4ASBteIJJIa296KaztjKXQlaD0+cFtcN7g+8J944WX2SD97FZnUGnhpzVTrXFqRTUKxlZbIIzvv/9+XuozkWCByhRlwoQJYtyE8VBKmVc8HofrunBdF7FYzAS7R4lHLSRqHKt+n1dwOjC2MHa0OwTn1st8IQTmzp2L+vr6Hs/P1Ab81GVKsnr1apo2bZqp/6mUQl1dHVKpFKSURXtRBT8r54iKUhxFE7Rr6lc6nUZHR0evfWft4Y/FYti6dStGjhzJvxMmEqyhMiU57bTTxODBg00mkZQSnZ2dxq4aNbW00iV+KQrHp7L5+z1FPyC0wL711lu5PB9TEfzkZSJhWX7Hep3eqU0AgO44WnnAvn5fSSJAUOBp7Xjv3r2+l7+H6Lktyy+wvWXLFowZM4Z/I0xkWENlInH55ZfnLbH1khgorYGWSjUt/LzwfRhhttTeEKYaIQQ8z8MDDzyARCLRa/MytQE/fZnIOI5DWjPUXvXCpX/UVNTC490J+Nfbzz77rMffTUci6O+3c+dO9uwzFcMaKhOZGTNmGMcUkCsoUomXP4rHv5S9FcgJPy0Ay4VtRUGHZukU096Yk6k9+K+GqQjbtknbTIPxqIV21ChFo4PvS2mjhUt8bcMVwm97sm/fvopqCejShPoaWpgqpTBmzBi89dZbaGtr498GUzGsoTIVcdtttwHIb1pXyuMfJEp91DBKRQ3oHk9R0ZWpgkVPABhn1K9//WtYlhV5PoYJwk9hpmIaGhoolUoZTREoH19aiXYa1QYrpcS+ffuQTqcj3bc+V5sKgpWllFJoa2vDqlWrOO6U6TasoTIVM3/+fOPtB5BnQ41aaLrwfeGYYuOCghBARR7+whRYLWB1+uwrr7yC1tbWBZEnZJgC+EnMdItEIkHajlko8LqjjUYq4YdcFpNeln/++edd7iGMYHm+4PzaJjt16lSsXLkSxx57LP8mmG7DGirTLf7+979DKWXskUEqqSpVbkyYFhv08kclOLawqpTruli0aBHa2trGRZ6QYUJggcp0iylTpojW1lY4jmP61QOVld+LkrZaeCz4XsfCRhGsOnUWyBVT0fvTpk3D0KFDIYTYVnYihikBC1Sm2yxatAiZTAaO43Q51t1MKD2mUMCGOZQqqTIVTEYI2k4B4LnnnsOIESNYO2V6DAtUptvMnDlTxGIx45QK5tkD6BIBUEzTLHyFERSe2oaayWQi36sOiypk/vz5SCQSrJ0yvQIb4JkesWfPno5jjz12sA7u10txLbwcx8nTDEsF/Ov9cp/r5fv+/fsrEqqF17VtG5s2bcL48ePHsUBlegPWUJke0dra2jxy5EgQEdLpNIQQiMfj8Dwv1L4apZRfufd6vxJhqqtkBZk/fz4aGxtZO2V6DdZQmR7zr3/9i9rb2/OW5cE2zFFCqaKGWAXfd3R0RAqZCmJZlhm/bds2Ls/H9CqsoTI95sQTTxTjx48H4Ns3bdvOy16KIvSipp4Wc1aVQxfH1kL+kUceQUNDwxeRTmaYiPDTmek1bNsmy7KQSqUQi8W6FCGptMB0qZRT13Vx4MABANFbW2un2aBBg7Bu3TqMHj2a//6ZXoU1VKbX+N73vgelFGzbhmVZ6OzsNJWogOgdT6O81/baSgujAMB9992HwYMH/7aCr8YwkeAnNNOrxGIx0mFUjuOYeFEtVHuSjqq1ViLCgQMHKopF1ec1NDRgy5YtXJ6P6RNYQ2V6lcsuu8xUbwqmpVZaHCVsq4tZa1toMe00GG9amHTw8ssvc3k+ps/gpzTT61iWRcFlfqlW05W0O9HCVEqJ//3vf6FL/mARlMLi0RMnTsTrr7/OtlOmz2ANlel1HnzwwbzlORA9x7/UfmEGViFa6AIwxaO1tgwAv/jFL9DW1nZ2d78Xw5SDn9RMn+A4DnmeZ7KnwlpN6/dRyv3peYTwu5IePHiwi4Yapp3q90OGDMHatWu5eDTTp7CGyvQJDz74oEk7LfTyF1Isxz9sDBCuoWrtVAhhhC+Q01TffvttjBgxgrVTpk/hpzXTZxTaUsNiS8O008JjhfupVKpo2FSYlnrBBRdg8eLFXDya6XNYQ2X6jI0bN+bVLQXKt0gJEqalBkOlCo8H7aXBz+6++260tLRwaxOmz2GByvQZJ554omhubjZhSt0pQl04Bii+5NeC27Iso52ed955GDZsGBKJxJKefRuGKQ8LVKZP+c1vfmOEYTB8SufUA9FSR4PL/8I6q8E5tGDV+0888QQXj2YOGyxQmT7l/PPPF21tbQD83k3a46+1yELKBfeHjQXyi1hrjfhHP/qRPsbl+ZjDAhvpmcOClJJisZipYaqdR5ZlwXGcLs3+igX8ExEOHTqUN3dhiBQRIR6P46OPPsKoUaP4b5w5bLCGyhwWTj31VKRSKbPsl1KakKZkMgkgWlpq0MEVNlYL3ltuuaVLQWmG6Wv46c0cFvbs2dPR2to6OJFIwHVdOI6DVCoFx3HyiqcApdNRU6lUqFDV47RJYefOnVwAhTnssIbKHBZaW1ubL7zwQmQyGSilkEqlEI/Hkclk8oQpEK6damEZFKaFNlh93rJlyyIXnmaY3oT/6pjDihCCtN20s7MT8XgcQNcK/GFbIkJnZ2fovNome+yxx2LVqlWcYsr0C6yhMoeVyy+/HJ7nIZ1Ow7ZtKKVCA//DvPulsqp0KNU999zDtlOm3+CnOHPYcRyH9PLdtm2jfZYqnqIFq3Zg6Xz9oDmgoaEBmzdvZs8+02+whsocdm666SYQEWKxWJ5dtFTxFF1UWlet0l0BdKSAlBLvvvsujjnmGC6AwjBMbeE4DgkhKBaLkWVZZNs2OY5DsVjMvOLxOMXjcUokElRXV0dCCBJCEAACQJZlmc9OOeUU+uSTT6I3mGIYhqkWXn31VRJCGEGqt2FCtVCgSikJQJ5w/dvf/sbClGGY2mXAgAFGOJYSqPplWRYBICllnlA95ZRTaNeuXSxQGYapXVauXEmWZRkNNShUg4I1Ho9TXV1dnlaqBSoA2rJlCx06dOjn/fttGIZh+pmBAweSZVnGjhomVOPxOMViMSNQbds2wnT27Nn06aefsnbKMAzzzjvvGIEaJlS1lppIJIwjClnBGovFaP369eS67oz+/h4MwzBHBEEtNaidOo5DUkpKJBJGkOotAPr2t79N//73v1k7ZRiG0axZs8YIz2wfKiNg6+rqKBaLmeMI2E937NhBRHRcf98/wzDMEcXUqVPNcl9KSY7jUDweJwBmi+xSXwhBP//5z1k7ZRiGKYbWTIUQ5DgOWZZF8XjcOKGklCSEoIaGBtq+fTsLU+aIg1NPmSOGyZMnm/RSz/NgWRYymYxpaQL4aah33HEHBg4c+F4/3irDMMyRTTKZvFY7pnTwvtZUtd3UcRzasWMHa6cMwzDlmDNnjgmf0kv+YBD/a6+9xnGnDMMwUdHaqZSSbNs22VHDhw+nnTt3sjBljljYhsoccVx33XUgIlOiT9dHffTRR+E4Tj/fHcMwzFGGECIvoP+YY45h2ynDMEx3WLp0qcmMklLS2rVrqaOj493+vi+GYZijksbGRrIsK5xI0QAACiJJREFUi6ZOncpB/AzDMD1hyZIlJISg1atX0/79+1/q7/thGIY5qrn44otZO2UYhmEYhmEYhmEYhmEYhmEYhmEYhmEYhmEYhmEYhmEYhmEYhmEYhmEYhmEYhmEYhqlRRH/fANN33HrrrbRjxw4opXDFFVdg1qxZ3fr/vWPHDvrxj3+MVCoFIQRuv/12nHzyyaFzPfTQQ7Rq1SoIIZDJZPCHP/wh8jXfeusteuCBByClhG3beOmllyq63zvuuIM2btwIIQROP/10/OAHPwg9f/bs2ZRMJiGEwC233IIzzjij6HVeeukleumll2DbNjo7OxGPx5HJZGDbNpRSsCwLnueZrgJKKUiZ3whDKQUhBH7/+9/z741hjlbuuece08/esqxuN7fTjfMAUGtra8k5GhsbTUM9KSUtXrw48jV/+9vfEgDTQyqZTF5byX1Onz6dpJQkhKArr7yy1HXNPb7wwgsl7+/2228396ObBeqt/jfRx/U27CWEINd1Z1TyfZijD+4pVcVcffXViMViUEpBKYVly5ZVPAcRHffyyy+b/RtuuKHo2GXLltGBAwcghIBlWVBK4Yknnoh8rWQyCSkliKiLlhcFrTUSESzLKjpOzy2EQDKZLDmnEMLcD5Eve/XW8zxYlmX6XunPASAWixmttfAYwzBHKbNmzSIhBEkpacyYMRX/qn/5y1/maWD/+c9/is4xZcoUo7kNGDCAhBBk2zatXr060nVXrlyZ1zK60ns988wzSQhBQgiaM2dOSQ1V/5s8++yzJa+ze/du2rhxI23YsIHWrFlDGzdupI0bN9L7779P69evp4EDB5p/n5tvvpk2bNhAH3zwAa1Zs4bWr19PGzduNNtKvw/DMEcYf/3rX/OWqW+++WZFP+yvfvWrRmBceumlRc9dv369uc7QoUPphz/8odmfP39+pGuuWLHCCG4pJRHRcZXc6xlnnGHOLydQ9b/HsmXLeiToBg8ebB4Ad955JwvNGoeX/FXOjBkzxAknnGAcKIsWLYp87j/+8Q/64IMPzP7ChQuLjl28eDGEEFBK4fzzz8ecOXPgOA6UUnj++ecjXc9xHLM87s4SWZsagq2ni6GdRz1tS61NC0KIstdkqh8WqDXAggULAPhC5LXXXkNU59TTTz8NwLcZjh49Gueee25RibFixQpja5w7dy7a29tFe3s7AODgwYNYsmRJ2Wt6ntcjW6MQAp7nmXsuN1Yp1e1raYJ2VRaoDAvUGmDhwoX31dXVgYiQSqWwYsWKSOc999xzAHzhU84ZtW/fPti2jVGjRuEb3/iGAIDvfOc7RoN7/PHHe/o1GOaIhwVqDVBfX/+jWbNmmf0onveHH36YXNcFAMTjcVx11VVFx+r5XNfFtdfmIp0WLly4QHu7161bh6jOKYY5WmGBWiNce+21JmD+o48+wl/+8peSwm3p0qUmIP2iiy7C8OHDQ9ez69ato9WrV0MIAcdx8N3vftccSyQSSy644AJjE12yZEkvfyuGObJggVojTJs2TZx88slwXRdSSixdurTo2FWrVtGGDRsA+LbBm266qejYJ5980tgizznnHIwcOTJP8C5cuNA4ml588cXe+CoMc8TCArWGuOGGG4zn/Xe/+x06OjreDRu3dOlS42SZOHFiydTMlStXmqD3+fPndzn+zW9+U4wcORIAcODAATz11FO87GeqFhaoNcT8+fOFZVlwHAeu62Lp0qWTw8Y9//zzRqCWCpV67rnn6PPPP4dSCkOHDsUll1wSKnjnzZtntFR2TjHVDAvUGmPevHnIZDKQUmLx4sVdjj/66KOk0zHr6upwzTXX3Fdsrscee8ykcV599dVFrzl37lwTUvTee+9h7dq1rKUyVQkL1BpDa5xKKWzduhVvvPFGnnB76qmnjDNq5syZqK+v/1HYPBs2bKB//vOfZn/u3LlFrzl27Fhx1llnmf1izqlgcHxWQ94W8WsBADKZjAnTsm275Fh9rZ7m2HOOPhOk9F8dU3W0t7eLKVOm0DvvvAMAeVrqqlWraNq0aZBSQimF66+/HsuXLw+d5/HHH4fjOMhkMhBC4LLLLsOpp55KusSfZVlwXdcUSdFOLgBF5xw0aJApbOJ5HrZu3Urjxo2LHC2fSqVMYH9jY2PRcTqoP5gI0F3CCqMwDFNDLFu2zOSy19XVkXZOLViwwOSlT548uaSECBYFEUKYUnZ6X7+3LMvs6zGO49Bjjz3WZf5169aZ+xJCULnQrkKCpQPvvffeSOX7XnzxxR5JwpaWFjPX3XffzVK1xmENtQaZN2+eaG5upo6ODiSTSSxbtmwygLyc++uvvx7f//73Q89fsWIFzZkzB1JK1NfX41vf+paJNbVtG0II6KSAYG7+5s2b8e677yKTyeCZZ57pMm97e7toamqi/fv3AwD+/Oc/R/5Ob775Jmmzgm3b+NrXvlZ0rLb7KqXMfXYX1kwZhsEtt9xiNMHTTjuNXn31VbM/cODAklLi9NNPN5rkVVddFVmirF69mmzbNueGOaeuvPJKUyS6qamJioV2FXLuuecaTbFcEWytKdu2Tc8880yPJOKQIUNYQ2WYWmfTpk15legvvvhiI+huuOGGooJh06ZNeZXoV61aVZEQmTRpkjn3+uuv73LumjVr8uY/88wzy85/7733kpTS3P9dd91V7hzz3Z9//vkeCcHW1lYzFwtUhqlhzj77bCO4HMcx7z/44IOiguHmm28240844YSKBchDDz1kbKkNDQ2h5y9cuNAIR9u2adKkSfSnP/2py9gPP/yQZs+enSeAjz/++Cj3ZO6hpxpqVptngcowtU7WIZPnRJo+fXpJodDc3GyEXbZnVUV0dHS8G4vFzPWefPLJ0Dm+/vWvd3FytbS00JQpU2j69Ok0YcKELvfe0tJC77//fiSBGpxz9OjRZV+PP/546LxDhw5lDZVhGJ9hw4blCably5cXFQorVqzI0xx37drVLQEyc+ZMIwSnTp1adI5rrrnGRAkUNsoLvpdS0imnnEJbt26Nej+hEQmlXj/72c9C5w56+X/605+yQGWYWkZ39ZRSUradR1FOP/10I8CyS/9usXbtWho+fLgRRKW0ytWrV9OVV15Jzc3NXcwTtm3TjBkz6Omnn670XvJsrgV9rEJfxcKwBg0a1CONnakuuMQ4c9Swfft22rVrF9LpNEaMGIGJEyfy3y/DMAzDMAzDMAzDMAzDMAzDMAzDMAzDMAzDMAzDMAzDMAzDMAzDMAzDMAzDMAzDMEw1c9FFF3GFHIZhmF5A7t69u7/vgWEYpiqQyWSyv++BYRimKpD19fX9fQ8MwzBVgezs7Ozve2AYhqkKZCKR6O97YBiGqQpkOp3u73tgGIapCqQQ3JaHYRimN2CByjAM00uwQGUYhuklpFKqv++BYRimKpD9fQMMwzDVgiTiVH6GYZjeQFqW1d/3wDAMUxVIz/P6+x4YhmEYhmEYJsf/BxesVEej1BOOAAAAAElFTkSuQmCC;" parent="tquT07f-gbf-o2BWBBhi-37" vertex="1">
          <mxGeometry width="108.97459031073704" height="91.67000000000004" as="geometry" />
        </mxCell>
        <mxCell id="tquT07f-gbf-o2BWBBhi-39" value="&lt;b&gt;CONSUL&lt;br&gt;client&lt;br&gt;&lt;/b&gt;" style="rounded=1;whiteSpace=wrap;html=1;fillColor=#FF3399;" parent="tquT07f-gbf-o2BWBBhi-37" vertex="1">
          <mxGeometry x="67.97427652733118" y="37.080092236052636" width="72.0257234726688" height="35.709187785439255" as="geometry" />
        </mxCell>
        <mxCell id="tquT07f-gbf-o2BWBBhi-43" style="edgeStyle=orthogonalEdgeStyle;rounded=0;orthogonalLoop=1;jettySize=auto;html=1;startArrow=classic;startFill=1;exitX=0.75;exitY=1;exitDx=0;exitDy=0;entryX=0.5;entryY=1;entryDx=0;entryDy=0;" parent="1" source="tquT07f-gbf-o2BWBBhi-29" target="tquT07f-gbf-o2BWBBhi-35" edge="1">
          <mxGeometry relative="1" as="geometry" />
        </mxCell>
        <mxCell id="tquT07f-gbf-o2BWBBhi-42" style="edgeStyle=orthogonalEdgeStyle;rounded=0;orthogonalLoop=1;jettySize=auto;html=1;exitX=0.5;exitY=1;exitDx=0;exitDy=0;startArrow=classic;startFill=1;entryX=0.25;entryY=1;entryDx=0;entryDy=0;" parent="1" source="tquT07f-gbf-o2BWBBhi-38" target="tquT07f-gbf-o2BWBBhi-29" edge="1">
          <mxGeometry relative="1" as="geometry">
            <mxPoint x="503" y="600" as="targetPoint" />
            <Array as="points">
              <mxPoint x="175" y="610" />
              <mxPoint x="476" y="610" />
            </Array>
          </mxGeometry>
        </mxCell>
        <mxCell id="xxPwivFfMjmod1IGwTzM-4" value="&lt;font style=&quot;font-size: 44px&quot;&gt;3 Availability Zones&lt;/font&gt;" style="text;html=1;strokeColor=none;fillColor=none;align=center;verticalAlign=middle;whiteSpace=wrap;rounded=0;" vertex="1" parent="1">
          <mxGeometry x="174" y="149.5" width="630" height="60" as="geometry" />
        </mxCell>
        <mxCell id="xxPwivFfMjmod1IGwTzM-5" value="" style="group" vertex="1" connectable="0" parent="1">
          <mxGeometry x="130" y="484" width="140" height="91.67" as="geometry" />
        </mxCell>
        <mxCell id="xxPwivFfMjmod1IGwTzM-7" value="&lt;b&gt;CONSUL&lt;br&gt;client&lt;br&gt;&lt;/b&gt;" style="rounded=1;whiteSpace=wrap;html=1;fillColor=#FF3399;" vertex="1" parent="xxPwivFfMjmod1IGwTzM-5">
          <mxGeometry x="67.97427652733118" y="37.080092236052636" width="72.0257234726688" height="35.709187785439255" as="geometry" />
        </mxCell>
      </root>
    </mxGraphModel>
  </diagram>
</mxfile>
